<?xml version="1.0" encoding="utf-8" standalone="no"?>
<!DOCTYPE svg PUBLIC "-//W3C//DTD SVG 1.1//EN"
  "http://www.w3.org/Graphics/SVG/1.1/DTD/svg11.dtd">
<!-- Created with matplotlib (https://matplotlib.org/) -->
<svg height="702pt" version="1.1" viewBox="0 0 1382.4 702" width="1382.4pt" xmlns="http://www.w3.org/2000/svg" xmlns:xlink="http://www.w3.org/1999/xlink">
 <metadata>
  <rdf:RDF xmlns:cc="http://creativecommons.org/ns#" xmlns:dc="http://purl.org/dc/elements/1.1/" xmlns:rdf="http://www.w3.org/1999/02/22-rdf-syntax-ns#">
   <cc:Work>
    <dc:type rdf:resource="http://purl.org/dc/dcmitype/StillImage"/>
    <dc:date>2021-11-24T12:50:22.737848</dc:date>
    <dc:format>image/svg+xml</dc:format>
    <dc:creator>
     <cc:Agent>
      <dc:title>Matplotlib v3.3.4, https://matplotlib.org/</dc:title>
     </cc:Agent>
    </dc:creator>
   </cc:Work>
  </rdf:RDF>
 </metadata>
 <defs>
  <style type="text/css">*{stroke-linecap:butt;stroke-linejoin:round;}</style>
 </defs>
 <g id="figure_1">
  <g id="patch_1">
   <path d="M 0 702 
L 1382.4 702 
L 1382.4 0 
L 0 0 
z
" style="fill:#ffffff;"/>
  </g>
  <g id="axes_1">
   <g id="patch_2">
    <path d="M 172.8 624.78 
L 1244.16 624.78 
L 1244.16 84.24 
L 172.8 84.24 
z
" style="fill:#ffffff;"/>
   </g>
   <g id="matplotlib.axis_1">
    <g id="xtick_1">
     <g id="line2d_1">
      <defs>
       <path d="M 0 0 
L 0 3.5 
" id="m6236d4f8da" style="stroke:#000000;stroke-width:0.8;"/>
      </defs>
      <g>
       <use style="stroke:#000000;stroke-width:0.8;" x="221.498182" xlink:href="#m6236d4f8da" y="624.78"/>
      </g>
     </g>
     <g id="text_1">
      <!-- 0 -->
      <g transform="translate(218.316932 639.378438)scale(0.1 -0.1)">
       <defs>
        <path d="M 31.78125 66.40625 
Q 24.171875 66.40625 20.328125 58.90625 
Q 16.5 51.421875 16.5 36.375 
Q 16.5 21.390625 20.328125 13.890625 
Q 24.171875 6.390625 31.78125 6.390625 
Q 39.453125 6.390625 43.28125 13.890625 
Q 47.125 21.390625 47.125 36.375 
Q 47.125 51.421875 43.28125 58.90625 
Q 39.453125 66.40625 31.78125 66.40625 
z
M 31.78125 74.21875 
Q 44.046875 74.21875 50.515625 64.515625 
Q 56.984375 54.828125 56.984375 36.375 
Q 56.984375 17.96875 50.515625 8.265625 
Q 44.046875 -1.421875 31.78125 -1.421875 
Q 19.53125 -1.421875 13.0625 8.265625 
Q 6.59375 17.96875 6.59375 36.375 
Q 6.59375 54.828125 13.0625 64.515625 
Q 19.53125 74.21875 31.78125 74.21875 
z
" id="DejaVuSans-48"/>
       </defs>
       <use xlink:href="#DejaVuSans-48"/>
      </g>
     </g>
    </g>
    <g id="xtick_2">
     <g id="line2d_2">
      <g>
       <use style="stroke:#000000;stroke-width:0.8;" x="383.96084" xlink:href="#m6236d4f8da" y="624.78"/>
      </g>
     </g>
     <g id="text_2">
      <!-- 200 -->
      <g transform="translate(374.41709 639.378438)scale(0.1 -0.1)">
       <defs>
        <path d="M 19.1875 8.296875 
L 53.609375 8.296875 
L 53.609375 0 
L 7.328125 0 
L 7.328125 8.296875 
Q 12.9375 14.109375 22.625 23.890625 
Q 32.328125 33.6875 34.8125 36.53125 
Q 39.546875 41.84375 41.421875 45.53125 
Q 43.3125 49.21875 43.3125 52.78125 
Q 43.3125 58.59375 39.234375 62.25 
Q 35.15625 65.921875 28.609375 65.921875 
Q 23.96875 65.921875 18.8125 64.3125 
Q 13.671875 62.703125 7.8125 59.421875 
L 7.8125 69.390625 
Q 13.765625 71.78125 18.9375 73 
Q 24.125 74.21875 28.421875 74.21875 
Q 39.75 74.21875 46.484375 68.546875 
Q 53.21875 62.890625 53.21875 53.421875 
Q 53.21875 48.921875 51.53125 44.890625 
Q 49.859375 40.875 45.40625 35.40625 
Q 44.1875 33.984375 37.640625 27.21875 
Q 31.109375 20.453125 19.1875 8.296875 
z
" id="DejaVuSans-50"/>
       </defs>
       <use xlink:href="#DejaVuSans-50"/>
       <use x="63.623047" xlink:href="#DejaVuSans-48"/>
       <use x="127.246094" xlink:href="#DejaVuSans-48"/>
      </g>
     </g>
    </g>
    <g id="xtick_3">
     <g id="line2d_3">
      <g>
       <use style="stroke:#000000;stroke-width:0.8;" x="546.423498" xlink:href="#m6236d4f8da" y="624.78"/>
      </g>
     </g>
     <g id="text_3">
      <!-- 400 -->
      <g transform="translate(536.879748 639.378438)scale(0.1 -0.1)">
       <defs>
        <path d="M 37.796875 64.3125 
L 12.890625 25.390625 
L 37.796875 25.390625 
z
M 35.203125 72.90625 
L 47.609375 72.90625 
L 47.609375 25.390625 
L 58.015625 25.390625 
L 58.015625 17.1875 
L 47.609375 17.1875 
L 47.609375 0 
L 37.796875 0 
L 37.796875 17.1875 
L 4.890625 17.1875 
L 4.890625 26.703125 
z
" id="DejaVuSans-52"/>
       </defs>
       <use xlink:href="#DejaVuSans-52"/>
       <use x="63.623047" xlink:href="#DejaVuSans-48"/>
       <use x="127.246094" xlink:href="#DejaVuSans-48"/>
      </g>
     </g>
    </g>
    <g id="xtick_4">
     <g id="line2d_4">
      <g>
       <use style="stroke:#000000;stroke-width:0.8;" x="708.886157" xlink:href="#m6236d4f8da" y="624.78"/>
      </g>
     </g>
     <g id="text_4">
      <!-- 600 -->
      <g transform="translate(699.342407 639.378438)scale(0.1 -0.1)">
       <defs>
        <path d="M 33.015625 40.375 
Q 26.375 40.375 22.484375 35.828125 
Q 18.609375 31.296875 18.609375 23.390625 
Q 18.609375 15.53125 22.484375 10.953125 
Q 26.375 6.390625 33.015625 6.390625 
Q 39.65625 6.390625 43.53125 10.953125 
Q 47.40625 15.53125 47.40625 23.390625 
Q 47.40625 31.296875 43.53125 35.828125 
Q 39.65625 40.375 33.015625 40.375 
z
M 52.59375 71.296875 
L 52.59375 62.3125 
Q 48.875 64.0625 45.09375 64.984375 
Q 41.3125 65.921875 37.59375 65.921875 
Q 27.828125 65.921875 22.671875 59.328125 
Q 17.53125 52.734375 16.796875 39.40625 
Q 19.671875 43.65625 24.015625 45.921875 
Q 28.375 48.1875 33.59375 48.1875 
Q 44.578125 48.1875 50.953125 41.515625 
Q 57.328125 34.859375 57.328125 23.390625 
Q 57.328125 12.15625 50.6875 5.359375 
Q 44.046875 -1.421875 33.015625 -1.421875 
Q 20.359375 -1.421875 13.671875 8.265625 
Q 6.984375 17.96875 6.984375 36.375 
Q 6.984375 53.65625 15.1875 63.9375 
Q 23.390625 74.21875 37.203125 74.21875 
Q 40.921875 74.21875 44.703125 73.484375 
Q 48.484375 72.75 52.59375 71.296875 
z
" id="DejaVuSans-54"/>
       </defs>
       <use xlink:href="#DejaVuSans-54"/>
       <use x="63.623047" xlink:href="#DejaVuSans-48"/>
       <use x="127.246094" xlink:href="#DejaVuSans-48"/>
      </g>
     </g>
    </g>
    <g id="xtick_5">
     <g id="line2d_5">
      <g>
       <use style="stroke:#000000;stroke-width:0.8;" x="871.348815" xlink:href="#m6236d4f8da" y="624.78"/>
      </g>
     </g>
     <g id="text_5">
      <!-- 800 -->
      <g transform="translate(861.805065 639.378438)scale(0.1 -0.1)">
       <defs>
        <path d="M 31.78125 34.625 
Q 24.75 34.625 20.71875 30.859375 
Q 16.703125 27.09375 16.703125 20.515625 
Q 16.703125 13.921875 20.71875 10.15625 
Q 24.75 6.390625 31.78125 6.390625 
Q 38.8125 6.390625 42.859375 10.171875 
Q 46.921875 13.96875 46.921875 20.515625 
Q 46.921875 27.09375 42.890625 30.859375 
Q 38.875 34.625 31.78125 34.625 
z
M 21.921875 38.8125 
Q 15.578125 40.375 12.03125 44.71875 
Q 8.5 49.078125 8.5 55.328125 
Q 8.5 64.0625 14.71875 69.140625 
Q 20.953125 74.21875 31.78125 74.21875 
Q 42.671875 74.21875 48.875 69.140625 
Q 55.078125 64.0625 55.078125 55.328125 
Q 55.078125 49.078125 51.53125 44.71875 
Q 48 40.375 41.703125 38.8125 
Q 48.828125 37.15625 52.796875 32.3125 
Q 56.78125 27.484375 56.78125 20.515625 
Q 56.78125 9.90625 50.3125 4.234375 
Q 43.84375 -1.421875 31.78125 -1.421875 
Q 19.734375 -1.421875 13.25 4.234375 
Q 6.78125 9.90625 6.78125 20.515625 
Q 6.78125 27.484375 10.78125 32.3125 
Q 14.796875 37.15625 21.921875 38.8125 
z
M 18.3125 54.390625 
Q 18.3125 48.734375 21.84375 45.5625 
Q 25.390625 42.390625 31.78125 42.390625 
Q 38.140625 42.390625 41.71875 45.5625 
Q 45.3125 48.734375 45.3125 54.390625 
Q 45.3125 60.0625 41.71875 63.234375 
Q 38.140625 66.40625 31.78125 66.40625 
Q 25.390625 66.40625 21.84375 63.234375 
Q 18.3125 60.0625 18.3125 54.390625 
z
" id="DejaVuSans-56"/>
       </defs>
       <use xlink:href="#DejaVuSans-56"/>
       <use x="63.623047" xlink:href="#DejaVuSans-48"/>
       <use x="127.246094" xlink:href="#DejaVuSans-48"/>
      </g>
     </g>
    </g>
    <g id="xtick_6">
     <g id="line2d_6">
      <g>
       <use style="stroke:#000000;stroke-width:0.8;" x="1033.811473" xlink:href="#m6236d4f8da" y="624.78"/>
      </g>
     </g>
     <g id="text_6">
      <!-- 1000 -->
      <g transform="translate(1021.086473 639.378438)scale(0.1 -0.1)">
       <defs>
        <path d="M 12.40625 8.296875 
L 28.515625 8.296875 
L 28.515625 63.921875 
L 10.984375 60.40625 
L 10.984375 69.390625 
L 28.421875 72.90625 
L 38.28125 72.90625 
L 38.28125 8.296875 
L 54.390625 8.296875 
L 54.390625 0 
L 12.40625 0 
z
" id="DejaVuSans-49"/>
       </defs>
       <use xlink:href="#DejaVuSans-49"/>
       <use x="63.623047" xlink:href="#DejaVuSans-48"/>
       <use x="127.246094" xlink:href="#DejaVuSans-48"/>
       <use x="190.869141" xlink:href="#DejaVuSans-48"/>
      </g>
     </g>
    </g>
    <g id="xtick_7">
     <g id="line2d_7">
      <g>
       <use style="stroke:#000000;stroke-width:0.8;" x="1196.274131" xlink:href="#m6236d4f8da" y="624.78"/>
      </g>
     </g>
     <g id="text_7">
      <!-- 1200 -->
      <g transform="translate(1183.549131 639.378438)scale(0.1 -0.1)">
       <use xlink:href="#DejaVuSans-49"/>
       <use x="63.623047" xlink:href="#DejaVuSans-50"/>
       <use x="127.246094" xlink:href="#DejaVuSans-48"/>
       <use x="190.869141" xlink:href="#DejaVuSans-48"/>
      </g>
     </g>
    </g>
   </g>
   <g id="matplotlib.axis_2">
    <g id="ytick_1">
     <g id="line2d_8">
      <defs>
       <path d="M 0 0 
L -3.5 0 
" id="m52c2ba5241" style="stroke:#000000;stroke-width:0.8;"/>
      </defs>
      <g>
       <use style="stroke:#000000;stroke-width:0.8;" x="172.8" xlink:href="#m52c2ba5241" y="600.21"/>
      </g>
     </g>
     <g id="text_8">
      <!-- 0 -->
      <g transform="translate(159.4375 604.009219)scale(0.1 -0.1)">
       <use xlink:href="#DejaVuSans-48"/>
      </g>
     </g>
    </g>
    <g id="ytick_2">
     <g id="line2d_9">
      <g>
       <use style="stroke:#000000;stroke-width:0.8;" x="172.8" xlink:href="#m52c2ba5241" y="503.857059"/>
      </g>
     </g>
     <g id="text_9">
      <!-- 50 -->
      <g transform="translate(153.075 507.656278)scale(0.1 -0.1)">
       <defs>
        <path d="M 10.796875 72.90625 
L 49.515625 72.90625 
L 49.515625 64.59375 
L 19.828125 64.59375 
L 19.828125 46.734375 
Q 21.96875 47.46875 24.109375 47.828125 
Q 26.265625 48.1875 28.421875 48.1875 
Q 40.625 48.1875 47.75 41.5 
Q 54.890625 34.8125 54.890625 23.390625 
Q 54.890625 11.625 47.5625 5.09375 
Q 40.234375 -1.421875 26.90625 -1.421875 
Q 22.3125 -1.421875 17.546875 -0.640625 
Q 12.796875 0.140625 7.71875 1.703125 
L 7.71875 11.625 
Q 12.109375 9.234375 16.796875 8.0625 
Q 21.484375 6.890625 26.703125 6.890625 
Q 35.15625 6.890625 40.078125 11.328125 
Q 45.015625 15.765625 45.015625 23.390625 
Q 45.015625 31 40.078125 35.4375 
Q 35.15625 39.890625 26.703125 39.890625 
Q 22.75 39.890625 18.8125 39.015625 
Q 14.890625 38.140625 10.796875 36.28125 
z
" id="DejaVuSans-53"/>
       </defs>
       <use xlink:href="#DejaVuSans-53"/>
       <use x="63.623047" xlink:href="#DejaVuSans-48"/>
      </g>
     </g>
    </g>
    <g id="ytick_3">
     <g id="line2d_10">
      <g>
       <use style="stroke:#000000;stroke-width:0.8;" x="172.8" xlink:href="#m52c2ba5241" y="407.504118"/>
      </g>
     </g>
     <g id="text_10">
      <!-- 100 -->
      <g transform="translate(146.7125 411.303336)scale(0.1 -0.1)">
       <use xlink:href="#DejaVuSans-49"/>
       <use x="63.623047" xlink:href="#DejaVuSans-48"/>
       <use x="127.246094" xlink:href="#DejaVuSans-48"/>
      </g>
     </g>
    </g>
    <g id="ytick_4">
     <g id="line2d_11">
      <g>
       <use style="stroke:#000000;stroke-width:0.8;" x="172.8" xlink:href="#m52c2ba5241" y="311.151176"/>
      </g>
     </g>
     <g id="text_11">
      <!-- 150 -->
      <g transform="translate(146.7125 314.950395)scale(0.1 -0.1)">
       <use xlink:href="#DejaVuSans-49"/>
       <use x="63.623047" xlink:href="#DejaVuSans-53"/>
       <use x="127.246094" xlink:href="#DejaVuSans-48"/>
      </g>
     </g>
    </g>
    <g id="ytick_5">
     <g id="line2d_12">
      <g>
       <use style="stroke:#000000;stroke-width:0.8;" x="172.8" xlink:href="#m52c2ba5241" y="214.798235"/>
      </g>
     </g>
     <g id="text_12">
      <!-- 200 -->
      <g transform="translate(146.7125 218.597454)scale(0.1 -0.1)">
       <use xlink:href="#DejaVuSans-50"/>
       <use x="63.623047" xlink:href="#DejaVuSans-48"/>
       <use x="127.246094" xlink:href="#DejaVuSans-48"/>
      </g>
     </g>
    </g>
    <g id="ytick_6">
     <g id="line2d_13">
      <g>
       <use style="stroke:#000000;stroke-width:0.8;" x="172.8" xlink:href="#m52c2ba5241" y="118.445294"/>
      </g>
     </g>
     <g id="text_13">
      <!-- 250 -->
      <g transform="translate(146.7125 122.244513)scale(0.1 -0.1)">
       <use xlink:href="#DejaVuSans-50"/>
       <use x="63.623047" xlink:href="#DejaVuSans-53"/>
       <use x="127.246094" xlink:href="#DejaVuSans-48"/>
      </g>
     </g>
    </g>
   </g>
   <g id="line2d_14">
    <path clip-path="url(#p52e92edc0e)" d="M 221.498182 598.282941 
L 222.310495 598.282941 
L 223.122808 600.21 
L 223.935122 598.282941 
L 224.747435 600.21 
L 225.559748 600.21 
L 226.372062 598.282941 
L 227.184375 600.21 
L 227.996688 600.21 
L 228.809001 598.282941 
L 231.245941 598.282941 
L 232.058255 600.21 
L 232.870568 598.282941 
L 233.682881 598.282941 
L 234.495194 600.21 
L 235.307508 598.282941 
L 236.119821 600.21 
L 236.932134 598.282941 
L 237.744448 600.21 
L 238.556761 598.282941 
L 240.181388 598.282941 
L 240.993701 600.21 
L 241.806014 598.282941 
L 242.618327 598.282941 
L 243.430641 600.21 
L 244.242954 600.21 
L 245.055267 598.282941 
L 245.867581 600.21 
L 249.116834 600.21 
L 249.929147 598.282941 
L 250.74146 598.282941 
L 251.553774 600.21 
L 252.366087 600.21 
L 253.1784 598.282941 
L 253.990713 598.282941 
L 254.803027 600.21 
L 255.61534 598.282941 
L 256.427653 600.21 
L 258.05228 600.21 
L 258.864593 598.282941 
L 259.676907 600.21 
L 260.48922 600.21 
L 261.301533 598.282941 
L 263.738473 598.282941 
L 264.550786 600.21 
L 266.987726 600.21 
L 267.800039 598.282941 
L 268.612353 600.21 
L 269.424666 600.21 
L 270.236979 598.282941 
L 271.861606 598.282941 
L 272.673919 600.21 
L 273.486232 598.282941 
L 275.923172 598.282941 
L 276.735486 600.21 
L 277.547799 600.21 
L 278.360112 598.282941 
L 279.172426 600.21 
L 279.984739 598.282941 
L 281.609365 598.282941 
L 282.421679 600.21 
L 284.046305 600.21 
L 284.858619 598.282941 
L 288.920185 598.282941 
L 289.732498 600.21 
L 290.544812 598.282941 
L 291.357125 598.282941 
L 292.169438 600.21 
L 293.794065 600.21 
L 294.606378 598.282941 
L 295.418691 600.21 
L 297.043318 600.21 
L 297.855631 598.282941 
L 300.292571 598.282941 
L 301.104884 600.21 
L 301.917198 600.21 
L 302.729511 598.282941 
L 309.228017 598.282941 
L 310.040331 600.21 
L 310.852644 598.282941 
L 311.664957 598.282941 
L 312.47727 600.21 
L 314.101897 600.21 
L 314.91421 596.355882 
L 315.726524 598.282941 
L 324.66197 598.282941 
L 325.474283 600.21 
L 326.286596 598.282941 
L 327.911223 598.282941 
L 328.723536 600.21 
L 329.53585 598.282941 
L 331.160476 598.282941 
L 331.972789 600.21 
L 332.785103 598.282941 
L 333.597416 600.21 
L 334.409729 598.282941 
L 335.222043 600.21 
L 336.034356 598.282941 
L 336.846669 600.21 
L 337.658982 598.282941 
L 338.471296 600.21 
L 339.283609 600.21 
L 340.095922 596.355882 
L 340.908236 598.282941 
L 345.782115 598.282941 
L 346.594429 600.21 
L 347.406742 598.282941 
L 353.905248 598.282941 
L 354.717562 600.21 
L 355.529875 600.21 
L 357.154501 596.355882 
L 357.966815 596.355882 
L 358.779128 600.21 
L 359.591441 598.282941 
L 361.216068 598.282941 
L 362.028381 600.21 
L 362.840695 598.282941 
L 363.653008 598.282941 
L 364.465321 600.21 
L 365.277634 598.282941 
L 366.089948 600.21 
L 366.902261 598.282941 
L 369.339201 598.282941 
L 370.151514 600.21 
L 370.963827 598.282941 
L 372.588454 598.282941 
L 373.400767 600.21 
L 374.213081 598.282941 
L 375.025394 600.21 
L 375.837707 598.282941 
L 376.65002 600.21 
L 377.462334 598.282941 
L 378.274647 600.21 
L 379.08696 598.282941 
L 379.899274 600.21 
L 380.711587 598.282941 
L 382.336214 598.282941 
L 383.148527 600.21 
L 383.96084 598.282941 
L 390.459346 598.282941 
L 391.27166 600.21 
L 392.083973 598.282941 
L 398.582479 598.282941 
L 399.394793 596.355882 
L 400.207106 598.282941 
L 404.268672 598.282941 
L 405.080986 600.21 
L 405.893299 596.355882 
L 406.705612 600.21 
L 407.517926 600.21 
L 408.330239 598.282941 
L 409.142552 598.282941 
L 409.954865 600.21 
L 410.767179 598.282941 
L 411.579492 600.21 
L 413.204119 600.21 
L 414.016432 598.282941 
L 416.453372 598.282941 
L 417.265685 600.21 
L 418.077998 598.282941 
L 418.890312 598.282941 
L 419.702625 600.21 
L 420.514938 598.282941 
L 424.576505 598.282941 
L 425.388818 600.21 
L 426.201131 598.282941 
L 427.013445 600.21 
L 427.825758 600.21 
L 428.638071 598.282941 
L 429.450384 600.21 
L 430.262698 598.282941 
L 433.511951 598.282941 
L 434.324264 600.21 
L 435.136577 600.21 
L 435.948891 598.282941 
L 440.82277 598.282941 
L 441.635084 600.21 
L 442.447397 598.282941 
L 451.382843 598.282941 
L 452.195157 600.21 
L 453.00747 598.282941 
L 461.130603 598.282941 
L 461.942916 600.21 
L 463.567543 596.355882 
L 464.379856 598.282941 
L 467.629109 598.282941 
L 468.441422 596.355882 
L 469.253736 598.282941 
L 474.939929 598.282941 
L 475.752242 596.355882 
L 476.564555 598.282941 
L 477.376869 598.282941 
L 478.189182 600.21 
L 479.001495 598.282941 
L 479.813808 598.282941 
L 480.626122 600.21 
L 481.438435 600.21 
L 482.250748 596.355882 
L 483.063062 596.355882 
L 483.875375 598.282941 
L 484.687688 598.282941 
L 485.500002 600.21 
L 486.312315 598.282941 
L 487.124628 598.282941 
L 487.936941 600.21 
L 489.561568 600.21 
L 490.373881 598.282941 
L 491.998508 598.282941 
L 492.810821 596.355882 
L 493.623134 598.282941 
L 497.684701 598.282941 
L 498.497014 596.355882 
L 499.309327 596.355882 
L 500.121641 598.282941 
L 500.933954 596.355882 
L 501.746267 596.355882 
L 502.558581 598.282941 
L 506.620147 598.282941 
L 507.43246 596.355882 
L 508.244774 596.355882 
L 509.8694 600.21 
L 510.681714 600.21 
L 511.494027 598.282941 
L 515.555593 598.282941 
L 516.367907 600.21 
L 517.18022 598.282941 
L 519.61716 598.282941 
L 520.429473 596.355882 
L 521.241786 598.282941 
L 522.866413 598.282941 
L 523.678726 596.355882 
L 525.303353 600.21 
L 526.115666 598.282941 
L 530.989546 598.282941 
L 531.801859 600.21 
L 532.614172 598.282941 
L 533.426486 598.282941 
L 534.238799 596.355882 
L 535.051112 600.21 
L 535.863426 598.282941 
L 536.675739 598.282941 
L 537.488052 596.355882 
L 538.300365 598.282941 
L 542.361932 598.282941 
L 543.174245 596.355882 
L 544.798872 596.355882 
L 545.611185 598.282941 
L 546.423498 598.282941 
L 547.235812 596.355882 
L 548.048125 598.282941 
L 548.860438 598.282941 
L 549.672752 596.355882 
L 551.297378 600.21 
L 552.109691 598.282941 
L 554.546631 598.282941 
L 555.358945 596.355882 
L 556.171258 598.282941 
L 558.608198 598.282941 
L 559.420511 596.355882 
L 560.232824 598.282941 
L 564.294391 598.282941 
L 565.106704 596.355882 
L 565.919017 598.282941 
L 566.731331 598.282941 
L 567.543644 600.21 
L 569.168271 596.355882 
L 569.980584 598.282941 
L 570.792897 598.282941 
L 571.60521 596.355882 
L 572.417524 598.282941 
L 573.229837 596.355882 
L 574.04215 598.282941 
L 574.854464 598.282941 
L 575.666777 596.355882 
L 576.47909 598.282941 
L 577.291403 596.355882 
L 578.103717 596.355882 
L 579.728343 600.21 
L 580.540657 598.282941 
L 582.165283 598.282941 
L 583.78991 594.428824 
L 584.602223 598.282941 
L 585.414536 596.355882 
L 586.22685 596.355882 
L 587.039163 600.21 
L 587.851476 598.282941 
L 589.476103 598.282941 
L 590.288416 596.355882 
L 591.100729 596.355882 
L 591.913043 598.282941 
L 592.725356 598.282941 
L 593.537669 596.355882 
L 595.974609 596.355882 
L 596.786922 598.282941 
L 598.411549 598.282941 
L 599.223862 596.355882 
L 600.036176 598.282941 
L 600.848489 596.355882 
L 601.660802 598.282941 
L 602.473115 596.355882 
L 603.285429 598.282941 
L 604.097742 596.355882 
L 606.534682 596.355882 
L 607.346995 594.428824 
L 608.159309 596.355882 
L 609.783935 596.355882 
L 610.596248 598.282941 
L 611.408562 596.355882 
L 613.033188 596.355882 
L 613.845502 598.282941 
L 614.657815 596.355882 
L 617.907068 596.355882 
L 618.719381 598.282941 
L 620.344008 598.282941 
L 621.156321 596.355882 
L 621.968634 598.282941 
L 622.780948 596.355882 
L 625.217888 596.355882 
L 626.030201 594.428824 
L 626.842514 596.355882 
L 631.716394 596.355882 
L 632.528707 598.282941 
L 634.153334 594.428824 
L 634.965647 596.355882 
L 638.2149 596.355882 
L 639.027214 598.282941 
L 639.839527 596.355882 
L 644.713407 596.355882 
L 645.52572 594.428824 
L 646.338033 596.355882 
L 647.150347 596.355882 
L 647.96266 598.282941 
L 648.774973 596.355882 
L 649.587286 596.355882 
L 650.3996 594.428824 
L 651.211913 598.282941 
L 652.024226 596.355882 
L 652.83654 596.355882 
L 653.648853 594.428824 
L 655.273479 598.282941 
L 656.085793 596.355882 
L 660.147359 596.355882 
L 660.959672 598.282941 
L 661.771986 596.355882 
L 665.021239 596.355882 
L 665.833552 594.428824 
L 668.270492 594.428824 
L 669.082805 592.501765 
L 669.895119 598.282941 
L 670.707432 594.428824 
L 672.332059 594.428824 
L 673.144372 596.355882 
L 673.956685 596.355882 
L 674.768998 598.282941 
L 675.581312 594.428824 
L 676.393625 594.428824 
L 677.205938 596.355882 
L 678.830565 596.355882 
L 679.642878 594.428824 
L 681.267505 594.428824 
L 682.079818 592.501765 
L 682.892131 594.428824 
L 684.516758 594.428824 
L 685.329071 596.355882 
L 686.141384 596.355882 
L 686.953698 592.501765 
L 687.766011 596.355882 
L 688.578324 592.501765 
L 689.390638 592.501765 
L 690.202951 594.428824 
L 691.015264 594.428824 
L 691.827578 596.355882 
L 692.639891 594.428824 
L 695.889144 594.428824 
L 696.701457 592.501765 
L 697.513771 594.428824 
L 699.138397 594.428824 
L 699.95071 592.501765 
L 700.763024 594.428824 
L 701.575337 592.501765 
L 702.38765 594.428824 
L 703.199964 592.501765 
L 704.012277 592.501765 
L 705.636903 596.355882 
L 706.449217 592.501765 
L 707.26153 592.501765 
L 708.073843 594.428824 
L 708.886157 592.501765 
L 709.69847 592.501765 
L 710.510783 594.428824 
L 711.323097 592.501765 
L 712.13541 594.428824 
L 712.947723 592.501765 
L 714.57235 592.501765 
L 715.384663 594.428824 
L 716.196976 594.428824 
L 717.00929 592.501765 
L 717.821603 592.501765 
L 718.633916 594.428824 
L 719.446229 592.501765 
L 720.258543 594.428824 
L 721.070856 592.501765 
L 723.507796 592.501765 
L 724.320109 594.428824 
L 725.132422 592.501765 
L 728.381676 592.501765 
L 729.193989 594.428824 
L 731.630929 594.428824 
L 732.443242 592.501765 
L 733.255555 594.428824 
L 734.067869 590.574706 
L 734.880182 590.574706 
L 735.692495 592.501765 
L 737.317122 592.501765 
L 738.129435 590.574706 
L 738.941748 592.501765 
L 739.754062 592.501765 
L 740.566375 590.574706 
L 741.378688 594.428824 
L 742.191002 592.501765 
L 743.003315 592.501765 
L 744.627941 588.647647 
L 745.440255 592.501765 
L 746.252568 590.574706 
L 747.877195 590.574706 
L 748.689508 592.501765 
L 749.501821 590.574706 
L 750.314135 590.574706 
L 751.126448 588.647647 
L 753.563388 588.647647 
L 754.375701 590.574706 
L 755.188014 590.574706 
L 756.000328 588.647647 
L 759.249581 588.647647 
L 760.874207 592.501765 
L 761.686521 588.647647 
L 762.498834 592.501765 
L 763.311147 588.647647 
L 764.12346 590.574706 
L 764.935774 588.647647 
L 766.5604 588.647647 
L 767.372714 586.720588 
L 768.185027 588.647647 
L 768.99734 586.720588 
L 769.809653 586.720588 
L 770.621967 584.793529 
L 771.43428 584.793529 
L 772.246593 586.720588 
L 773.058907 582.866471 
L 773.87122 586.720588 
L 774.683533 577.085294 
L 775.495847 582.866471 
L 776.30816 579.012353 
L 777.120473 580.939412 
L 778.7451 580.939412 
L 779.557413 577.085294 
L 781.18204 580.939412 
L 781.994353 580.939412 
L 782.806666 575.158235 
L 783.618979 580.939412 
L 784.431293 575.158235 
L 786.055919 571.304118 
L 786.868233 573.231176 
L 787.680546 569.377059 
L 788.492859 571.304118 
L 789.305172 569.377059 
L 790.117486 569.377059 
L 790.929799 563.595882 
L 791.742112 565.522941 
L 793.366739 565.522941 
L 794.179052 563.595882 
L 794.991366 563.595882 
L 795.803679 559.741765 
L 796.615992 553.960588 
L 797.428305 552.033529 
L 798.240619 546.252353 
L 799.052932 544.325294 
L 799.865245 532.762941 
L 800.677559 536.617059 
L 801.489872 528.908824 
L 802.302185 525.054706 
L 803.114498 517.346471 
L 803.926812 507.711176 
L 804.739125 480.732353 
L 805.551438 459.534706 
L 806.363752 465.315882 
L 807.176065 465.315882 
L 807.988378 463.388824 
L 808.800691 438.337059 
L 809.613005 407.504118 
L 810.425318 355.473529 
L 811.237631 340.057059 
L 812.049945 295.734706 
L 812.862258 203.235882 
L 813.674571 180.111176 
L 814.486885 226.360588 
L 815.299198 124.226471 
L 816.111511 108.81 
L 833.17009 108.81 
L 833.982404 151.205294 
L 835.60703 307.297059 
L 836.419343 299.588824 
L 837.231657 372.817059 
L 838.04397 390.160588 
L 839.668597 474.951176 
L 840.48091 467.242941 
L 841.293223 484.586471 
L 842.105536 463.388824 
L 842.91785 500.002941 
L 843.730163 503.857059 
L 844.542476 513.492353 
L 845.35479 521.200588 
L 846.167103 532.762941 
L 846.979416 528.908824 
L 847.791729 538.544118 
L 848.604043 550.106471 
L 849.416356 548.179412 
L 850.228669 534.69 
L 851.853296 542.398235 
L 852.665609 519.273529 
L 853.477923 528.908824 
L 854.290236 548.179412 
L 855.102549 552.033529 
L 855.914862 542.398235 
L 856.727176 540.471176 
L 857.539489 553.960588 
L 858.351802 553.960588 
L 859.164116 555.887647 
L 859.976429 561.668824 
L 861.601055 565.522941 
L 862.413369 563.595882 
L 864.037995 571.304118 
L 864.850309 573.231176 
L 865.662622 579.012353 
L 866.474935 580.939412 
L 867.287248 584.793529 
L 868.099562 580.939412 
L 868.911875 580.939412 
L 869.724188 582.866471 
L 870.536502 582.866471 
L 871.348815 580.939412 
L 872.161128 586.720588 
L 872.973442 584.793529 
L 873.785755 586.720588 
L 874.598068 586.720588 
L 875.410381 590.574706 
L 876.222695 588.647647 
L 877.035008 588.647647 
L 877.847321 590.574706 
L 878.659635 588.647647 
L 879.471948 588.647647 
L 880.284261 586.720588 
L 881.096574 588.647647 
L 881.908888 586.720588 
L 882.721201 590.574706 
L 884.345828 590.574706 
L 885.158141 588.647647 
L 885.970454 590.574706 
L 887.595081 590.574706 
L 888.407394 592.501765 
L 889.219707 590.574706 
L 890.844334 590.574706 
L 891.656647 588.647647 
L 893.281274 592.501765 
L 895.718214 592.501765 
L 896.530527 590.574706 
L 898.155154 594.428824 
L 898.967467 592.501765 
L 899.77978 594.428824 
L 900.592093 594.428824 
L 901.404407 592.501765 
L 902.21672 592.501765 
L 903.029033 594.428824 
L 905.465973 594.428824 
L 906.278286 596.355882 
L 907.0906 592.501765 
L 907.902913 596.355882 
L 908.715226 594.428824 
L 911.152166 594.428824 
L 911.964479 592.501765 
L 912.776793 594.428824 
L 913.589106 594.428824 
L 914.401419 592.501765 
L 915.213733 594.428824 
L 916.026046 592.501765 
L 916.838359 592.501765 
L 917.650673 590.574706 
L 918.462986 592.501765 
L 919.275299 588.647647 
L 920.087612 586.720588 
L 920.899926 586.720588 
L 921.712239 582.866471 
L 922.524552 586.720588 
L 923.336866 588.647647 
L 924.149179 586.720588 
L 924.961492 588.647647 
L 926.586119 588.647647 
L 927.398432 586.720588 
L 928.210745 586.720588 
L 929.023059 580.939412 
L 929.835372 584.793529 
L 930.647685 584.793529 
L 932.272312 588.647647 
L 933.084625 588.647647 
L 933.896938 586.720588 
L 934.709252 586.720588 
L 935.521565 584.793529 
L 936.333878 590.574706 
L 937.146192 592.501765 
L 938.770818 588.647647 
L 939.583131 594.428824 
L 941.207758 590.574706 
L 942.020071 592.501765 
L 942.832385 596.355882 
L 943.644698 594.428824 
L 944.457011 594.428824 
L 945.269324 598.282941 
L 946.893951 594.428824 
L 947.706264 596.355882 
L 950.955517 596.355882 
L 951.767831 598.282941 
L 952.580144 598.282941 
L 953.392457 596.355882 
L 955.017084 596.355882 
L 955.829397 598.282941 
L 956.641711 598.282941 
L 957.454024 596.355882 
L 959.07865 596.355882 
L 959.890964 598.282941 
L 960.703277 598.282941 
L 961.51559 596.355882 
L 962.327904 596.355882 
L 963.140217 598.282941 
L 963.95253 598.282941 
L 964.764843 596.355882 
L 967.201783 596.355882 
L 968.014097 598.282941 
L 971.26335 598.282941 
L 972.075663 600.21 
L 972.887976 596.355882 
L 973.70029 598.282941 
L 977.761856 598.282941 
L 978.574169 596.355882 
L 979.386483 598.282941 
L 981.823423 598.282941 
L 982.635736 600.21 
L 983.448049 598.282941 
L 985.072676 598.282941 
L 985.884989 600.21 
L 986.697302 598.282941 
L 989.134242 598.282941 
L 989.946555 600.21 
L 991.571182 596.355882 
L 992.383495 598.282941 
L 993.195809 598.282941 
L 994.008122 600.21 
L 994.820435 598.282941 
L 995.632749 598.282941 
L 996.445062 596.355882 
L 998.069688 600.21 
L 998.882002 598.282941 
L 1002.943568 598.282941 
L 1003.755881 600.21 
L 1004.568195 598.282941 
L 1005.380508 600.21 
L 1006.192821 598.282941 
L 1007.817448 598.282941 
L 1008.629761 600.21 
L 1009.442074 596.355882 
L 1010.254388 600.21 
L 1011.066701 596.355882 
L 1012.691328 600.21 
L 1013.503641 598.282941 
L 1018.377521 598.282941 
L 1019.189834 600.21 
L 1020.002147 598.282941 
L 1023.2514 598.282941 
L 1024.063714 600.21 
L 1024.876027 598.282941 
L 1033.811473 598.282941 
L 1034.623786 596.355882 
L 1035.4361 598.282941 
L 1038.685353 598.282941 
L 1039.497666 596.355882 
L 1040.30998 598.282941 
L 1042.746919 598.282941 
L 1043.559233 596.355882 
L 1044.371546 600.21 
L 1045.183859 598.282941 
L 1045.996173 598.282941 
L 1046.808486 600.21 
L 1047.620799 598.282941 
L 1048.433112 600.21 
L 1050.057739 596.355882 
L 1050.870052 598.282941 
L 1053.306992 598.282941 
L 1054.119305 600.21 
L 1055.743932 600.21 
L 1056.556245 598.282941 
L 1057.368559 598.282941 
L 1058.180872 600.21 
L 1059.805499 600.21 
L 1060.617812 598.282941 
L 1069.553258 598.282941 
L 1070.365571 600.21 
L 1071.177885 598.282941 
L 1073.614824 598.282941 
L 1074.427138 600.21 
L 1076.864078 600.21 
L 1077.676391 598.282941 
L 1078.488704 600.21 
L 1079.301018 598.282941 
L 1080.113331 600.21 
L 1080.925644 600.21 
L 1081.737957 598.282941 
L 1082.550271 600.21 
L 1083.362584 598.282941 
L 1086.611837 598.282941 
L 1087.42415 600.21 
L 1088.236464 598.282941 
L 1089.048777 600.21 
L 1090.673404 600.21 
L 1091.485717 598.282941 
L 1092.29803 600.21 
L 1093.110343 598.282941 
L 1096.359597 598.282941 
L 1097.17191 600.21 
L 1097.984223 600.21 
L 1098.796537 598.282941 
L 1099.60885 600.21 
L 1100.421163 598.282941 
L 1101.233476 598.282941 
L 1102.04579 600.21 
L 1102.858103 598.282941 
L 1103.670416 600.21 
L 1104.48273 598.282941 
L 1106.107356 598.282941 
L 1106.919669 600.21 
L 1108.544296 600.21 
L 1109.356609 598.282941 
L 1110.168923 598.282941 
L 1110.981236 600.21 
L 1111.793549 600.21 
L 1112.605862 598.282941 
L 1113.418176 600.21 
L 1114.230489 600.21 
L 1115.042802 598.282941 
L 1115.855116 598.282941 
L 1116.667429 600.21 
L 1117.479742 598.282941 
L 1118.292056 600.21 
L 1119.104369 600.21 
L 1119.916682 598.282941 
L 1120.728995 600.21 
L 1121.541309 598.282941 
L 1122.353622 598.282941 
L 1123.165935 600.21 
L 1123.978249 598.282941 
L 1125.602875 598.282941 
L 1126.415188 600.21 
L 1127.227502 598.282941 
L 1128.039815 600.21 
L 1128.852128 596.355882 
L 1129.664442 598.282941 
L 1132.101381 598.282941 
L 1132.913695 600.21 
L 1133.726008 600.21 
L 1134.538321 598.282941 
L 1136.162948 598.282941 
L 1136.975261 600.21 
L 1137.787574 598.282941 
L 1139.412201 598.282941 
L 1140.224514 600.21 
L 1141.036828 598.282941 
L 1141.849141 600.21 
L 1142.661454 598.282941 
L 1143.473768 600.21 
L 1144.286081 598.282941 
L 1146.723021 598.282941 
L 1147.535334 600.21 
L 1152.409214 600.21 
L 1153.221527 598.282941 
L 1154.03384 600.21 
L 1154.846154 598.282941 
L 1155.658467 600.21 
L 1158.095407 600.21 
L 1158.90772 598.282941 
L 1159.720033 600.21 
L 1162.156973 600.21 
L 1162.969287 598.282941 
L 1163.7816 600.21 
L 1164.593913 598.282941 
L 1165.406226 600.21 
L 1166.21854 598.282941 
L 1167.030853 600.21 
L 1170.280106 600.21 
L 1171.092419 598.282941 
L 1171.904733 598.282941 
L 1172.717046 600.21 
L 1173.529359 600.21 
L 1174.341673 598.282941 
L 1175.966299 598.282941 
L 1176.778612 600.21 
L 1179.215552 600.21 
L 1180.027866 598.282941 
L 1180.840179 598.282941 
L 1181.652492 600.21 
L 1188.963312 600.21 
L 1189.775625 598.282941 
L 1190.587938 600.21 
L 1192.212565 600.21 
L 1193.024878 598.282941 
L 1193.837192 600.21 
L 1195.461818 600.21 
L 1195.461818 600.21 
" style="fill:none;stroke:#1f77b4;stroke-linecap:square;stroke-width:1.5;"/>
   </g>
   <g id="patch_3">
    <path d="M 172.8 624.78 
L 172.8 84.24 
" style="fill:none;stroke:#000000;stroke-linecap:square;stroke-linejoin:miter;stroke-width:0.8;"/>
   </g>
   <g id="patch_4">
    <path d="M 1244.16 624.78 
L 1244.16 84.24 
" style="fill:none;stroke:#000000;stroke-linecap:square;stroke-linejoin:miter;stroke-width:0.8;"/>
   </g>
   <g id="patch_5">
    <path d="M 172.8 624.78 
L 1244.16 624.78 
" style="fill:none;stroke:#000000;stroke-linecap:square;stroke-linejoin:miter;stroke-width:0.8;"/>
   </g>
   <g id="patch_6">
    <path d="M 172.8 84.24 
L 1244.16 84.24 
" style="fill:none;stroke:#000000;stroke-linecap:square;stroke-linejoin:miter;stroke-width:0.8;"/>
   </g>
   <g id="text_14">
    <!-- raw -->
    <g transform="translate(222.229264 599.246471)scale(0.1 -0.1)">
     <defs>
      <path d="M 41.109375 46.296875 
Q 39.59375 47.171875 37.8125 47.578125 
Q 36.03125 48 33.890625 48 
Q 26.265625 48 22.1875 43.046875 
Q 18.109375 38.09375 18.109375 28.8125 
L 18.109375 0 
L 9.078125 0 
L 9.078125 54.6875 
L 18.109375 54.6875 
L 18.109375 46.1875 
Q 20.953125 51.171875 25.484375 53.578125 
Q 30.03125 56 36.53125 56 
Q 37.453125 56 38.578125 55.875 
Q 39.703125 55.765625 41.0625 55.515625 
z
" id="DejaVuSans-114"/>
      <path d="M 34.28125 27.484375 
Q 23.390625 27.484375 19.1875 25 
Q 14.984375 22.515625 14.984375 16.5 
Q 14.984375 11.71875 18.140625 8.90625 
Q 21.296875 6.109375 26.703125 6.109375 
Q 34.1875 6.109375 38.703125 11.40625 
Q 43.21875 16.703125 43.21875 25.484375 
L 43.21875 27.484375 
z
M 52.203125 31.203125 
L 52.203125 0 
L 43.21875 0 
L 43.21875 8.296875 
Q 40.140625 3.328125 35.546875 0.953125 
Q 30.953125 -1.421875 24.3125 -1.421875 
Q 15.921875 -1.421875 10.953125 3.296875 
Q 6 8.015625 6 15.921875 
Q 6 25.140625 12.171875 29.828125 
Q 18.359375 34.515625 30.609375 34.515625 
L 43.21875 34.515625 
L 43.21875 35.40625 
Q 43.21875 41.609375 39.140625 45 
Q 35.0625 48.390625 27.6875 48.390625 
Q 23 48.390625 18.546875 47.265625 
Q 14.109375 46.140625 10.015625 43.890625 
L 10.015625 52.203125 
Q 14.9375 54.109375 19.578125 55.046875 
Q 24.21875 56 28.609375 56 
Q 40.484375 56 46.34375 49.84375 
Q 52.203125 43.703125 52.203125 31.203125 
z
" id="DejaVuSans-97"/>
      <path d="M 4.203125 54.6875 
L 13.1875 54.6875 
L 24.421875 12.015625 
L 35.59375 54.6875 
L 46.1875 54.6875 
L 57.421875 12.015625 
L 68.609375 54.6875 
L 77.59375 54.6875 
L 63.28125 0 
L 52.6875 0 
L 40.921875 44.828125 
L 29.109375 0 
L 18.5 0 
z
" id="DejaVuSans-119"/>
     </defs>
     <use xlink:href="#DejaVuSans-114"/>
     <use x="41.113281" xlink:href="#DejaVuSans-97"/>
     <use x="102.392578" xlink:href="#DejaVuSans-119"/>
    </g>
   </g>
  </g>
 </g>
 <defs>
  <clipPath id="p52e92edc0e">
   <rect height="540.54" width="1071.36" x="172.8" y="84.24"/>
  </clipPath>
 </defs>
</svg>
