<?xml version="1.0" encoding="UTF-8" standalone="no"?>
<!-- Created with matplotlib (https://matplotlib.org/) -->

<svg
   xmlns:dc="http://purl.org/dc/elements/1.1/"
   xmlns:cc="http://creativecommons.org/ns#"
   xmlns:rdf="http://www.w3.org/1999/02/22-rdf-syntax-ns#"
   xmlns:svg="http://www.w3.org/2000/svg"
   xmlns="http://www.w3.org/2000/svg"
   xmlns:xlink="http://www.w3.org/1999/xlink"
   xmlns:sodipodi="http://sodipodi.sourceforge.net/DTD/sodipodi-0.dtd"
   xmlns:inkscape="http://www.inkscape.org/namespaces/inkscape"
   height="174.12297pt"
   version="1.1"
   viewBox="0 0 448.67312 174.12297"
   width="448.67313pt"
   id="svg752"
   sodipodi:docname="zero_crossing_midpoint.svg"
   inkscape:version="0.92.3 (2405546, 2018-03-11)">
  <sodipodi:namedview
     pagecolor="#ffffff"
     bordercolor="#666666"
     borderopacity="1"
     objecttolerance="10"
     gridtolerance="10"
     guidetolerance="10"
     inkscape:pageopacity="0"
     inkscape:pageshadow="2"
     inkscape:window-width="1920"
     inkscape:window-height="1017"
     id="namedview754"
     showgrid="false"
     inkscape:zoom="1.7616288"
     inkscape:cx="238.7594"
     inkscape:cy="181.6465"
     inkscape:window-x="-8"
     inkscape:window-y="-8"
     inkscape:window-maximized="1"
     inkscape:current-layer="svg752"
     showguides="false"
     inkscape:guide-bbox="true">
    <sodipodi:guide
       position="265.08152,21.967038"
       orientation="1,0"
       id="guide1103"
       inkscape:locked="false" />
    <sodipodi:guide
       position="180.99833,166.49645"
       orientation="1,0"
       id="guide1105"
       inkscape:locked="false" />
  </sodipodi:namedview>
  <metadata
     id="metadata2">
    <rdf:RDF>
      <cc:Work>
        <dc:type
           rdf:resource="http://purl.org/dc/dcmitype/StillImage" />
        <dc:date>2021-12-01T13:13:10.761741</dc:date>
        <dc:format>image/svg+xml</dc:format>
        <dc:creator>
          <cc:Agent>
            <dc:title>Matplotlib v3.3.4, https://matplotlib.org/</dc:title>
          </cc:Agent>
        </dc:creator>
        <dc:title></dc:title>
      </cc:Work>
    </rdf:RDF>
  </metadata>
  <defs
     id="defs6"
     style="stroke-linecap:butt;stroke-linejoin:round">
    <style
       type="text/css"
       id="style4">*{stroke-linecap:butt;stroke-linejoin:round;}</style>
  </defs>
  <g
     id="matplotlib.axis_5"
     style="stroke-linecap:butt;stroke-linejoin:round"
     transform="translate(-411.86728,-465.39765)">
    <g
       id="xtick_19"
       style="stroke-linecap:butt;stroke-linejoin:round">
      <g
         id="line2d_33"
         style="stroke-linecap:butt;stroke-linejoin:round">
        <g
           id="g535"
           style="stroke-linecap:butt;stroke-linejoin:round">
          <path
             inkscape:connector-curvature="0"
             style="stroke:#000000;stroke-width:0.80000001;stroke-linecap:butt;stroke-linejoin:round"
             id="use533"
             d="m 501.77548,624.78003 v 3.5" />
        </g>
      </g>
      <g
         id="text_33"
         style="stroke-linecap:butt;stroke-linejoin:round">
        <!-- 40 -->
        <g
           transform="matrix(0.1,0,0,-0.1,495.41299,639.37844)"
           id="g542"
           style="stroke-linecap:butt;stroke-linejoin:round">
          <path
             style="stroke-linecap:butt;stroke-linejoin:round"
             inkscape:connector-curvature="0"
             id="use538"
             d="M 37.796875,64.3125 12.890625,25.390625 h 24.90625 z m -2.59375,8.59375 h 12.40625 V 25.390625 h 10.40625 V 17.1875 H 47.609375 V 0 h -9.8125 V 17.1875 H 4.890625 v 9.515625 z" />
          <path
             style="stroke-linecap:butt;stroke-linejoin:round"
             inkscape:connector-curvature="0"
             id="use540"
             d="m 95.404297,66.40625 q -7.609375,0 -11.453125,-7.5 -3.828125,-7.484375 -3.828125,-22.53125 0,-14.984375 3.828125,-22.484375 3.84375,-7.5 11.453125,-7.5 7.671873,0 11.500003,7.5 3.84375,7.5 3.84375,22.484375 0,15.046875 -3.84375,22.53125 -3.82813,7.5 -11.500003,7.5 z m 0,7.8125 q 12.265623,0 18.734373,-9.703125 6.46875,-9.6875 6.46875,-28.140625 0,-18.40625 -6.46875,-28.109375 -6.46875,-9.6875 -18.734373,-9.6875 -12.25,0 -18.71875,9.6875 -6.46875,9.703125 -6.46875,28.109375 0,18.453125 6.46875,28.140625 6.46875,9.703125 18.71875,9.703125 z" />
        </g>
      </g>
    </g>
    <g
       id="xtick_20"
       style="stroke-linecap:butt;stroke-linejoin:round">
      <g
         id="line2d_34"
         style="stroke-linecap:butt;stroke-linejoin:round">
        <g
           id="g548"
           style="stroke-linecap:butt;stroke-linejoin:round">
          <path
             inkscape:connector-curvature="0"
             style="stroke:#000000;stroke-width:0.80000001;stroke-linecap:butt;stroke-linejoin:round"
             id="use546"
             d="m 641.91412,624.78003 v 3.5" />
        </g>
      </g>
      <g
         id="text_34"
         style="stroke-linecap:butt;stroke-linejoin:round">
        <!-- 60 -->
        <g
           transform="matrix(0.1,0,0,-0.1,635.55164,639.37844)"
           id="g555"
           style="stroke-linecap:butt;stroke-linejoin:round">
          <path
             style="stroke-linecap:butt;stroke-linejoin:round"
             inkscape:connector-curvature="0"
             id="use551"
             d="m 33.015625,40.375 q -6.640625,0 -10.53125,-4.546875 -3.875,-4.53125 -3.875,-12.4375 0,-7.859375 3.875,-12.4375 3.890625,-4.5625 10.53125,-4.5625 6.640625,0 10.515625,4.5625 3.875,4.578125 3.875,12.4375 0,7.90625 -3.875,12.4375 Q 39.65625,40.375 33.015625,40.375 Z M 52.59375,71.296875 V 62.3125 q -3.71875,1.75 -7.5,2.671875 -3.78125,0.9375 -7.5,0.9375 -9.765625,0 -14.921875,-6.59375 -5.140625,-6.59375 -5.875,-19.921875 2.875,4.25 7.21875,6.515625 4.359375,2.265625 9.578125,2.265625 10.984375,0 17.359375,-6.671875 6.375,-6.65625 6.375,-18.125 0,-11.234375 -6.640625,-18.03125 -6.640625,-6.78125 -17.671875,-6.78125 -12.65625,0 -19.34375,9.6875 -6.6875,9.703125 -6.6875,28.109375 0,17.28125 8.203125,27.5625 8.203125,10.28125 22.015625,10.28125 3.71875,0 7.5,-0.734375 3.78125,-0.734375 7.890625,-2.1875 z" />
          <path
             style="stroke-linecap:butt;stroke-linejoin:round"
             inkscape:connector-curvature="0"
             id="use553"
             d="m 95.404297,66.40625 q -7.609375,0 -11.453125,-7.5 -3.828125,-7.484375 -3.828125,-22.53125 0,-14.984375 3.828125,-22.484375 3.84375,-7.5 11.453125,-7.5 7.671873,0 11.500003,7.5 3.84375,7.5 3.84375,22.484375 0,15.046875 -3.84375,22.53125 -3.82813,7.5 -11.500003,7.5 z m 0,7.8125 q 12.265623,0 18.734373,-9.703125 6.46875,-9.6875 6.46875,-28.140625 0,-18.40625 -6.46875,-28.109375 -6.46875,-9.6875 -18.734373,-9.6875 -12.25,0 -18.71875,9.6875 -6.46875,9.703125 -6.46875,28.109375 0,18.453125 6.46875,28.140625 6.46875,9.703125 18.71875,9.703125 z" />
        </g>
      </g>
    </g>
    <g
       id="xtick_21"
       style="stroke-linecap:butt;stroke-linejoin:round">
      <g
         id="line2d_35"
         style="stroke-linecap:butt;stroke-linejoin:round">
        <g
           id="g561"
           style="stroke-linecap:butt;stroke-linejoin:round">
          <path
             inkscape:connector-curvature="0"
             style="stroke:#000000;stroke-width:0.80000001;stroke-linecap:butt;stroke-linejoin:round"
             id="use559"
             d="m 782.0528,624.78003 v 3.5" />
        </g>
      </g>
      <g
         id="text_35"
         style="stroke-linecap:butt;stroke-linejoin:round">
        <!-- 80 -->
        <g
           transform="matrix(0.1,0,0,-0.1,775.69029,639.37844)"
           id="g568"
           style="stroke-linecap:butt;stroke-linejoin:round">
          <path
             style="stroke-linecap:butt;stroke-linejoin:round"
             inkscape:connector-curvature="0"
             id="use564"
             d="m 31.78125,34.625 q -7.03125,0 -11.0625,-3.765625 -4.015625,-3.765625 -4.015625,-10.34375 0,-6.59375 4.015625,-10.359375 4.03125,-3.765625 11.0625,-3.765625 7.03125,0 11.078125,3.78125 4.0625,3.796875 4.0625,10.34375 0,6.578125 -4.03125,10.34375 Q 38.875,34.625 31.78125,34.625 Z m -9.859375,4.1875 Q 15.578125,40.375 12.03125,44.71875 8.5,49.078125 8.5,55.328125 q 0,8.734375 6.21875,13.8125 6.234375,5.078125 17.0625,5.078125 10.890625,0 17.09375,-5.078125 6.203125,-5.078125 6.203125,-13.8125 0,-6.25 -3.546875,-10.609375 Q 48,40.375 41.703125,38.8125 q 7.125,-1.65625 11.09375,-6.5 3.984375,-4.828125 3.984375,-11.796875 0,-10.609375 -6.46875,-16.28125 -6.46875,-5.65625 -18.53125,-5.65625 -12.046875,0 -18.53125,5.65625 -6.46875,5.671875 -6.46875,16.28125 0,6.96875 4,11.796875 4.015625,4.84375 11.140625,6.5 z M 18.3125,54.390625 q 0,-5.65625 3.53125,-8.828125 3.546875,-3.171875 9.9375,-3.171875 6.359375,0 9.9375,3.171875 3.59375,3.171875 3.59375,8.828125 0,5.671875 -3.59375,8.84375 -3.578125,3.171875 -9.9375,3.171875 -6.390625,0 -9.9375,-3.171875 Q 18.3125,60.0625 18.3125,54.390625 Z" />
          <path
             style="stroke-linecap:butt;stroke-linejoin:round"
             inkscape:connector-curvature="0"
             id="use566"
             d="m 95.404297,66.40625 q -7.609375,0 -11.453125,-7.5 -3.828125,-7.484375 -3.828125,-22.53125 0,-14.984375 3.828125,-22.484375 3.84375,-7.5 11.453125,-7.5 7.671873,0 11.500003,7.5 3.84375,7.5 3.84375,22.484375 0,15.046875 -3.84375,22.53125 -3.82813,7.5 -11.500003,7.5 z m 0,7.8125 q 12.265623,0 18.734373,-9.703125 6.46875,-9.6875 6.46875,-28.140625 0,-18.40625 -6.46875,-28.109375 -6.46875,-9.6875 -18.734373,-9.6875 -12.25,0 -18.71875,9.6875 -6.46875,9.703125 -6.46875,28.109375 0,18.453125 6.46875,28.140625 6.46875,9.703125 18.71875,9.703125 z" />
        </g>
      </g>
    </g>
  </g>
  <g
     id="matplotlib.axis_6"
     style="stroke-linecap:butt;stroke-linejoin:round"
     transform="translate(-139.39219,-465.39765)">
    <g
       id="ytick_13"
       style="stroke-linecap:butt;stroke-linejoin:round">
      <g
         id="line2d_39"
         style="stroke-linecap:butt;stroke-linejoin:round">
        <g
           id="g620"
           style="stroke-linecap:butt;stroke-linejoin:round">
          <path
             inkscape:connector-curvature="0"
             style="stroke:#000000;stroke-width:0.80000001;stroke-linecap:butt;stroke-linejoin:round"
             id="use618"
             d="m 172.8,603.07837 h -3.5" />
        </g>
      </g>
      <g
         id="text_39"
         style="stroke-linecap:butt;stroke-linejoin:round">
        <!-- −200 -->
        <g
           transform="matrix(0.1,0,0,-0.1,138.33281,606.87758)"
           id="g634"
           style="stroke-linecap:butt;stroke-linejoin:round">
          <defs
             id="defs624">
            <path
               d="M 10.59375,35.5 H 73.1875 V 27.203125 H 10.59375 Z"
               id="DejaVuSans-8722"
               inkscape:connector-curvature="0"
               style="stroke-linecap:butt;stroke-linejoin:round" />
          </defs>
          <use
             xlink:href="#DejaVuSans-8722"
             id="use626"
             style="stroke-linecap:butt;stroke-linejoin:round"
             x="0"
             y="0"
             width="100%"
             height="100%" />
          <path
             style="stroke-linecap:butt;stroke-linejoin:round"
             inkscape:connector-curvature="0"
             id="use628"
             d="m 102.97656,8.296875 h 34.42188 V 0 H 91.117188 v 8.296875 q 5.609375,5.8125 15.296872,15.59375 9.70313,9.796875 12.1875,12.640625 4.73438,5.3125 6.60938,9 1.89062,3.6875 1.89062,7.25 0,5.8125 -4.07812,9.46875 -4.07813,3.671875 -10.625,3.671875 -4.64063,0 -9.79688,-1.609375 -5.140622,-1.609375 -10.999997,-4.890625 v 9.96875 Q 97.554688,71.78125 102.72656,73 q 5.1875,1.21875 9.48438,1.21875 11.32812,0 18.0625,-5.671875 6.73437,-5.65625 6.73437,-15.125 0,-4.5 -1.6875,-8.53125 -1.67187,-4.015625 -6.125,-9.484375 -1.21875,-1.421875 -7.76562,-8.1875 -6.53125,-6.765625 -18.45313,-18.921875 z" />
          <path
             style="stroke-linecap:butt;stroke-linejoin:round"
             inkscape:connector-curvature="0"
             id="use630"
             d="m 179.19336,66.40625 q -7.60938,0 -11.45313,-7.5 -3.82812,-7.484375 -3.82812,-22.53125 0,-14.984375 3.82812,-22.484375 3.84375,-7.5 11.45313,-7.5 7.67187,0 11.5,7.5 3.84375,7.5 3.84375,22.484375 0,15.046875 -3.84375,22.53125 -3.82813,7.5 -11.5,7.5 z m 0,7.8125 q 12.26562,0 18.73437,-9.703125 6.46875,-9.6875 6.46875,-28.140625 0,-18.40625 -6.46875,-28.109375 -6.46875,-9.6875 -18.73437,-9.6875 -12.25,0 -18.71875,9.6875 -6.46875,9.703125 -6.46875,28.109375 0,18.453125 6.46875,28.140625 6.46875,9.703125 18.71875,9.703125 z" />
          <path
             style="stroke-linecap:butt;stroke-linejoin:round"
             inkscape:connector-curvature="0"
             id="use632"
             d="m 242.81641,66.40625 q -7.60938,0 -11.45313,-7.5 -3.82812,-7.484375 -3.82812,-22.53125 0,-14.984375 3.82812,-22.484375 3.84375,-7.5 11.45313,-7.5 7.67187,0 11.5,7.5 3.84375,7.5 3.84375,22.484375 0,15.046875 -3.84375,22.53125 -3.82813,7.5 -11.5,7.5 z m 0,7.8125 q 12.26562,0 18.73437,-9.703125 6.46875,-9.6875 6.46875,-28.140625 0,-18.40625 -6.46875,-28.109375 -6.46875,-9.6875 -18.73437,-9.6875 -12.25,0 -18.71875,9.6875 -6.46875,9.703125 -6.46875,28.109375 0,18.453125 6.46875,28.140625 6.46875,9.703125 18.71875,9.703125 z" />
        </g>
      </g>
    </g>
    <g
       id="ytick_14"
       style="stroke-linecap:butt;stroke-linejoin:round">
      <g
         id="line2d_40"
         style="stroke-linecap:butt;stroke-linejoin:round">
        <g
           id="g640"
           style="stroke-linecap:butt;stroke-linejoin:round">
          <path
             inkscape:connector-curvature="0"
             style="stroke:#000000;stroke-width:0.80000001;stroke-linecap:butt;stroke-linejoin:round"
             id="use638"
             d="m 172.8,575.29492 h -3.5" />
        </g>
      </g>
      <g
         id="text_40"
         style="stroke-linecap:butt;stroke-linejoin:round">
        <!-- −100 -->
        <g
           transform="matrix(0.1,0,0,-0.1,138.33281,579.09415)"
           id="g651"
           style="stroke-linecap:butt;stroke-linejoin:round">
          <use
             xlink:href="#DejaVuSans-8722"
             id="use643"
             style="stroke-linecap:butt;stroke-linejoin:round"
             x="0"
             y="0"
             width="100%"
             height="100%" />
          <path
             style="stroke-linecap:butt;stroke-linejoin:round"
             inkscape:connector-curvature="0"
             id="use645"
             d="m 96.195313,8.296875 h 16.109377 v 55.625 L 94.773438,60.40625 v 8.984375 l 17.437502,3.515625 h 9.85937 V 8.296875 h 16.10938 V 0 H 96.195313 Z" />
          <path
             style="stroke-linecap:butt;stroke-linejoin:round"
             inkscape:connector-curvature="0"
             id="use647"
             d="m 179.19336,66.40625 q -7.60938,0 -11.45313,-7.5 -3.82812,-7.484375 -3.82812,-22.53125 0,-14.984375 3.82812,-22.484375 3.84375,-7.5 11.45313,-7.5 7.67187,0 11.5,7.5 3.84375,7.5 3.84375,22.484375 0,15.046875 -3.84375,22.53125 -3.82813,7.5 -11.5,7.5 z m 0,7.8125 q 12.26562,0 18.73437,-9.703125 6.46875,-9.6875 6.46875,-28.140625 0,-18.40625 -6.46875,-28.109375 -6.46875,-9.6875 -18.73437,-9.6875 -12.25,0 -18.71875,9.6875 -6.46875,9.703125 -6.46875,28.109375 0,18.453125 6.46875,28.140625 6.46875,9.703125 18.71875,9.703125 z" />
          <path
             style="stroke-linecap:butt;stroke-linejoin:round"
             inkscape:connector-curvature="0"
             id="use649"
             d="m 242.81641,66.40625 q -7.60938,0 -11.45313,-7.5 -3.82812,-7.484375 -3.82812,-22.53125 0,-14.984375 3.82812,-22.484375 3.84375,-7.5 11.45313,-7.5 7.67187,0 11.5,7.5 3.84375,7.5 3.84375,22.484375 0,15.046875 -3.84375,22.53125 -3.82813,7.5 -11.5,7.5 z m 0,7.8125 q 12.26562,0 18.73437,-9.703125 6.46875,-9.6875 6.46875,-28.140625 0,-18.40625 -6.46875,-28.109375 -6.46875,-9.6875 -18.73437,-9.6875 -12.25,0 -18.71875,9.6875 -6.46875,9.703125 -6.46875,28.109375 0,18.453125 6.46875,28.140625 6.46875,9.703125 18.71875,9.703125 z" />
        </g>
      </g>
    </g>
    <g
       id="ytick_15"
       style="stroke-linecap:butt;stroke-linejoin:round">
      <g
         id="line2d_41"
         style="stroke-linecap:butt;stroke-linejoin:round">
        <g
           id="g657"
           style="stroke-linecap:butt;stroke-linejoin:round">
          <path
             inkscape:connector-curvature="0"
             style="stroke:#000000;stroke-width:0.80000001;stroke-linecap:butt;stroke-linejoin:round"
             id="use655"
             d="m 172.8,547.51147 h -3.5" />
        </g>
      </g>
      <g
         id="text_41"
         style="stroke-linecap:butt;stroke-linejoin:round">
        <!-- 0 -->
        <g
           transform="matrix(0.1,0,0,-0.1,159.4375,551.31072)"
           id="g662"
           style="stroke-linecap:butt;stroke-linejoin:round">
          <path
             style="stroke-linecap:butt;stroke-linejoin:round"
             inkscape:connector-curvature="0"
             id="use660"
             d="m 31.78125,66.40625 q -7.609375,0 -11.453125,-7.5 Q 16.5,51.421875 16.5,36.375 q 0,-14.984375 3.828125,-22.484375 3.84375,-7.5 11.453125,-7.5 7.671875,0 11.5,7.5 3.84375,7.5 3.84375,22.484375 0,15.046875 -3.84375,22.53125 -3.828125,7.5 -11.5,7.5 z m 0,7.8125 q 12.265625,0 18.734375,-9.703125 6.46875,-9.6875 6.46875,-28.140625 0,-18.40625 -6.46875,-28.109375 -6.46875,-9.6875 -18.734375,-9.6875 -12.25,0 -18.71875,9.6875 Q 6.59375,17.96875 6.59375,36.375 q 0,18.453125 6.46875,28.140625 6.46875,9.703125 18.71875,9.703125 z" />
        </g>
      </g>
    </g>
    <g
       id="ytick_16"
       style="stroke-linecap:butt;stroke-linejoin:round">
      <g
         id="line2d_42"
         style="stroke-linecap:butt;stroke-linejoin:round">
        <g
           id="g668"
           style="stroke-linecap:butt;stroke-linejoin:round">
          <path
             inkscape:connector-curvature="0"
             style="stroke:#000000;stroke-width:0.80000001;stroke-linecap:butt;stroke-linejoin:round"
             id="use666"
             d="m 172.8,519.72809 h -3.5" />
        </g>
      </g>
      <g
         id="text_42"
         style="stroke-linecap:butt;stroke-linejoin:round">
        <!-- 100 -->
        <g
           transform="matrix(0.1,0,0,-0.1,146.7125,523.52729)"
           id="g677"
           style="stroke-linecap:butt;stroke-linejoin:round">
          <path
             style="stroke-linecap:butt;stroke-linejoin:round"
             inkscape:connector-curvature="0"
             id="use671"
             d="m 12.40625,8.296875 h 16.109375 v 55.625 L 10.984375,60.40625 v 8.984375 l 17.4375,3.515625 H 38.28125 V 8.296875 H 54.390625 V 0 H 12.40625 Z" />
          <path
             style="stroke-linecap:butt;stroke-linejoin:round"
             inkscape:connector-curvature="0"
             id="use673"
             d="m 95.404297,66.40625 q -7.609375,0 -11.453125,-7.5 -3.828125,-7.484375 -3.828125,-22.53125 0,-14.984375 3.828125,-22.484375 3.84375,-7.5 11.453125,-7.5 7.671873,0 11.500003,7.5 3.84375,7.5 3.84375,22.484375 0,15.046875 -3.84375,22.53125 -3.82813,7.5 -11.500003,7.5 z m 0,7.8125 q 12.265623,0 18.734373,-9.703125 6.46875,-9.6875 6.46875,-28.140625 0,-18.40625 -6.46875,-28.109375 -6.46875,-9.6875 -18.734373,-9.6875 -12.25,0 -18.71875,9.6875 -6.46875,9.703125 -6.46875,28.109375 0,18.453125 6.46875,28.140625 6.46875,9.703125 18.71875,9.703125 z" />
          <path
             style="stroke-linecap:butt;stroke-linejoin:round"
             inkscape:connector-curvature="0"
             id="use675"
             d="m 159.02734,66.40625 q -7.60937,0 -11.45312,-7.5 -3.82813,-7.484375 -3.82813,-22.53125 0,-14.984375 3.82813,-22.484375 3.84375,-7.5 11.45312,-7.5 7.67188,0 11.5,7.5 3.84375,7.5 3.84375,22.484375 0,15.046875 -3.84375,22.53125 -3.82812,7.5 -11.5,7.5 z m 0,7.8125 q 12.26563,0 18.73438,-9.703125 6.46875,-9.6875 6.46875,-28.140625 0,-18.40625 -6.46875,-28.109375 -6.46875,-9.6875 -18.73438,-9.6875 -12.25,0 -18.71875,9.6875 -6.46875,9.703125 -6.46875,28.109375 0,18.453125 6.46875,28.140625 6.46875,9.703125 18.71875,9.703125 z" />
        </g>
      </g>
    </g>
    <g
       id="ytick_17"
       style="stroke-linecap:butt;stroke-linejoin:round">
      <g
         id="line2d_43"
         style="stroke-linecap:butt;stroke-linejoin:round">
        <g
           id="g683"
           style="stroke-linecap:butt;stroke-linejoin:round">
          <path
             inkscape:connector-curvature="0"
             style="stroke:#000000;stroke-width:0.80000001;stroke-linecap:butt;stroke-linejoin:round"
             id="use681"
             d="m 172.8,491.94464 h -3.5" />
        </g>
      </g>
      <g
         id="text_43"
         style="stroke-linecap:butt;stroke-linejoin:round">
        <!-- 200 -->
        <g
           transform="matrix(0.1,0,0,-0.1,146.7125,495.74385)"
           id="g692"
           style="stroke-linecap:butt;stroke-linejoin:round">
          <path
             style="stroke-linecap:butt;stroke-linejoin:round"
             inkscape:connector-curvature="0"
             id="use686"
             d="M 19.1875,8.296875 H 53.609375 V 0 H 7.328125 v 8.296875 q 5.609375,5.8125 15.296875,15.59375 9.703125,9.796875 12.1875,12.640625 4.734375,5.3125 6.609375,9 1.890625,3.6875 1.890625,7.25 0,5.8125 -4.078125,9.46875 -4.078125,3.671875 -10.625,3.671875 -4.640625,0 -9.796875,-1.609375 -5.140625,-1.609375 -11,-4.890625 v 9.96875 Q 13.765625,71.78125 18.9375,73 q 5.1875,1.21875 9.484375,1.21875 11.328125,0 18.0625,-5.671875 6.734375,-5.65625 6.734375,-15.125 0,-4.5 -1.6875,-8.53125 Q 49.859375,40.875 45.40625,35.40625 44.1875,33.984375 37.640625,27.21875 31.109375,20.453125 19.1875,8.296875 Z" />
          <path
             style="stroke-linecap:butt;stroke-linejoin:round"
             inkscape:connector-curvature="0"
             id="use688"
             d="m 95.404297,66.40625 q -7.609375,0 -11.453125,-7.5 -3.828125,-7.484375 -3.828125,-22.53125 0,-14.984375 3.828125,-22.484375 3.84375,-7.5 11.453125,-7.5 7.671873,0 11.500003,7.5 3.84375,7.5 3.84375,22.484375 0,15.046875 -3.84375,22.53125 -3.82813,7.5 -11.500003,7.5 z m 0,7.8125 q 12.265623,0 18.734373,-9.703125 6.46875,-9.6875 6.46875,-28.140625 0,-18.40625 -6.46875,-28.109375 -6.46875,-9.6875 -18.734373,-9.6875 -12.25,0 -18.71875,9.6875 -6.46875,9.703125 -6.46875,28.109375 0,18.453125 6.46875,28.140625 6.46875,9.703125 18.71875,9.703125 z" />
          <path
             style="stroke-linecap:butt;stroke-linejoin:round"
             inkscape:connector-curvature="0"
             id="use690"
             d="m 159.02734,66.40625 q -7.60937,0 -11.45312,-7.5 -3.82813,-7.484375 -3.82813,-22.53125 0,-14.984375 3.82813,-22.484375 3.84375,-7.5 11.45312,-7.5 7.67188,0 11.5,7.5 3.84375,7.5 3.84375,22.484375 0,15.046875 -3.84375,22.53125 -3.82812,7.5 -11.5,7.5 z m 0,7.8125 q 12.26563,0 18.73438,-9.703125 6.46875,-9.6875 6.46875,-28.140625 0,-18.40625 -6.46875,-28.109375 -6.46875,-9.6875 -18.73438,-9.6875 -12.25,0 -18.71875,9.6875 -6.46875,9.703125 -6.46875,28.109375 0,18.453125 6.46875,28.140625 6.46875,9.703125 18.71875,9.703125 z" />
        </g>
      </g>
    </g>
  </g>
  <g
     id="line2d_44"
     style="stroke-linecap:butt;stroke-linejoin:round"
     transform="translate(-411.86728,-465.39765)">
    <path
       clip-path="url(#pb23420914a)"
       d="m 459.73389,547.4004 14.01387,-0.13494 14.01386,-0.76206 14.01387,0.0556 7.00693,0.27387 7.00693,0.0595 7.00694,0.25799 7.00693,-0.55566 7.00693,-0.85335 7.00693,-1.08753 7.00694,-2.60767 7.00693,-2.9887 7.00693,-4.04845 7.00693,-7.66425 7.00694,-17.49563 7.00693,-23.28648 7.00693,-13.53847 7.00693,8.85894 7.00694,27.0571 7.00693,25.58854 7.00693,12.4827 7.00693,1.45267 14.01387,-1.95277 7.00693,1.61937 7.00693,13.086 7.00694,25.31864 7.00693,24.0287 7.00693,6.98952 7.00694,-12.9828 7.00693,-20.92489 7.00693,-15.31661 7.00693,-7.10066 7.00694,-3.33798 7.00693,-2.57989 7.00693,-2.45288 7.00693,-2.8736 7.00694,-1.7821 7.00693,0.0476 7.00693,0.78191 7.00694,0.58742 7.00693,-0.53582 7.00693,-0.73428 7.00693,-0.43263 h 14.01387 l 14.01386,-1.2185 7.00694,-0.10319 7.00693,0.15876 7.00693,0.46835"
       style="fill:none;stroke:#1f77b4;stroke-width:1.5;stroke-linecap:square;stroke-linejoin:round"
       id="path697"
       inkscape:connector-curvature="0"
       sodipodi:nodetypes="cccccccccccccccccccccccccccccccccccccccccccccccc" />
  </g>
  <g
     id="patch_13"
     style="stroke-linecap:butt;stroke-linejoin:round"
     transform="translate(-411.86728,-465.39765)">
    <path
       d="M 444.94495,624.78 V 465.79765"
       style="fill:none;stroke:#000000;stroke-width:0.80000001;stroke-linecap:square;stroke-linejoin:miter"
       id="path700"
       inkscape:connector-curvature="0" />
  </g>
  <g
     id="patch_14"
     style="stroke-linecap:butt;stroke-linejoin:round"
     transform="translate(-795.88689,-465.39765)">
    <path
       d="M 1244.16,624.78 V 465.79765"
       style="fill:none;stroke:#000000;stroke-width:0.80000001;stroke-linecap:square;stroke-linejoin:miter"
       id="path703"
       inkscape:connector-curvature="0" />
  </g>
  <g
     id="patch_15"
     style="stroke-linecap:butt;stroke-linejoin:round"
     transform="matrix(0.38754057,0,0,0.60406089,-33.88935,-218.02282)">
    <path
       d="M 172.8,624.78 H 1244.16"
       style="fill:none;stroke:#000000;stroke-width:0.80000001;stroke-linecap:square;stroke-linejoin:miter"
       id="path706"
       inkscape:connector-curvature="0" />
  </g>
  <g
     id="patch_16"
     style="stroke-linecap:butt;stroke-linejoin:round"
     transform="matrix(0.38754057,0,0,0.60406089,-33.88935,-280.97015)">
    <path
       d="M 172.8,465.79765 H 1244.16"
       style="fill:none;stroke:#000000;stroke-width:0.80000001;stroke-linecap:square;stroke-linejoin:miter"
       id="path709"
       inkscape:connector-curvature="0" />
  </g>
  <defs
     id="defs750">
    <clipPath
       id="pc6ddb6927c"
       style="stroke-linecap:butt;stroke-linejoin:round">
      <rect
         height="158.98235"
         width="1071.36"
         x="172.8"
         y="84.239998"
         id="rect741"
         style="stroke-linecap:butt;stroke-linejoin:round" />
    </clipPath>
    <clipPath
       id="pa4024e8552"
       style="stroke-linecap:butt;stroke-linejoin:round">
      <rect
         height="158.98235"
         width="1071.36"
         x="172.8"
         y="275.01883"
         id="rect744"
         style="stroke-linecap:butt;stroke-linejoin:round" />
    </clipPath>
    <clipPath
       id="pb23420914a"
       style="stroke-linecap:butt;stroke-linejoin:round">
      <rect
         height="158.98235"
         width="1071.36"
         x="172.8"
         y="465.79764"
         id="rect747"
         style="stroke-linecap:butt;stroke-linejoin:round" />
    </clipPath>
  </defs>
  <path
     style="fill:none;stroke:#000000;stroke-width:0.75px;stroke-linecap:butt;stroke-linejoin:miter;stroke-opacity:1"
     d="M 222.17144,82.003102 Z"
     id="path1078"
     inkscape:connector-curvature="0" />
  <circle
     style="opacity:1;fill:#d40000;fill-opacity:1;stroke:none;stroke-width:11.46818161;stroke-linecap:round;stroke-linejoin:round;stroke-miterlimit:4;stroke-dasharray:none;stroke-dashoffset:0;stroke-opacity:1"
     id="path1080"
     cx="222.02463"
     cy="82.481934"
     r="3" />
  <circle
     style="opacity:1;fill:#d4ff00;fill-opacity:1;stroke:none;stroke-width:11.46818161;stroke-linecap:round;stroke-linejoin:round;stroke-miterlimit:4;stroke-dasharray:none;stroke-dashoffset:0;stroke-opacity:1"
     id="path1080-5"
     cx="181.53032"
     cy="8.2470093"
     r="3" />
  <circle
     style="opacity:1;fill:#d4ff00;fill-opacity:1;stroke:none;stroke-width:11.46818161;stroke-linecap:round;stroke-linejoin:round;stroke-miterlimit:4;stroke-dasharray:none;stroke-dashoffset:0;stroke-opacity:1"
     id="path1080-55"
     cx="264.91986"
     cy="151.24353"
     r="3" />
  <path
     style="fill:none;stroke:#000000;stroke-width:1.125;stroke-linecap:butt;stroke-linejoin:miter;stroke-opacity:1;stroke-miterlimit:4;stroke-dasharray:3.37500001,1.125;stroke-dashoffset:0"
     d="m 180.99833,7.6265197 h 84.08319"
     id="path1107"
     inkscape:connector-curvature="0" />
  <path
     style="fill:none;stroke:#000000;stroke-width:0.75;stroke-linecap:butt;stroke-linejoin:miter;stroke-opacity:1;stroke-miterlimit:4;stroke-dasharray:0.75,1.5;stroke-dashoffset:0"
     d="M 222.17144,82.003102 V 7.644915"
     id="path1109"
     inkscape:connector-curvature="0" />
  <path
     style="fill:none;stroke:#000000;stroke-width:0.75;stroke-linecap:butt;stroke-linejoin:miter;stroke-opacity:1;stroke-miterlimit:4;stroke-dasharray:0.75,2.25000001;stroke-dashoffset:0"
     d="M 265.08152,7.6265197 V 152.15593"
     id="path1111"
     inkscape:connector-curvature="0" />
</svg>
