<?xml version="1.0" encoding="utf-8" standalone="no"?>
<!DOCTYPE svg PUBLIC "-//W3C//DTD SVG 1.1//EN"
  "http://www.w3.org/Graphics/SVG/1.1/DTD/svg11.dtd">
<!-- Created with matplotlib (https://matplotlib.org/) -->
<svg height="702pt" version="1.1" viewBox="0 0 1382.4 702" width="1382.4pt" xmlns="http://www.w3.org/2000/svg" xmlns:xlink="http://www.w3.org/1999/xlink">
 <metadata>
  <rdf:RDF xmlns:cc="http://creativecommons.org/ns#" xmlns:dc="http://purl.org/dc/elements/1.1/" xmlns:rdf="http://www.w3.org/1999/02/22-rdf-syntax-ns#">
   <cc:Work>
    <dc:type rdf:resource="http://purl.org/dc/dcmitype/StillImage"/>
    <dc:date>2021-12-16T15:51:55.337446</dc:date>
    <dc:format>image/svg+xml</dc:format>
    <dc:creator>
     <cc:Agent>
      <dc:title>Matplotlib v3.3.4, https://matplotlib.org/</dc:title>
     </cc:Agent>
    </dc:creator>
   </cc:Work>
  </rdf:RDF>
 </metadata>
 <defs>
  <style type="text/css">*{stroke-linecap:butt;stroke-linejoin:round;}</style>
 </defs>
 <g id="figure_1">
  <g id="patch_1">
   <path d="M 0 702 
L 1382.4 702 
L 1382.4 0 
L 0 0 
z
" style="fill:#ffffff;"/>
  </g>
  <g id="axes_1">
   <g id="patch_2">
    <path d="M 172.8 243.222353 
L 1244.16 243.222353 
L 1244.16 84.24 
L 172.8 84.24 
z
" style="fill:#ffffff;"/>
   </g>
   <g id="matplotlib.axis_1">
    <g id="xtick_1">
     <g id="line2d_1">
      <defs>
       <path d="M 0 0 
L 0 3.5 
" id="m73a25100d0" style="stroke:#000000;stroke-width:0.8;"/>
      </defs>
      <g>
       <use style="stroke:#000000;stroke-width:0.8;" x="221.498182" xlink:href="#m73a25100d0" y="243.222353"/>
      </g>
     </g>
     <g id="text_1">
      <!-- 0 -->
      <g transform="translate(218.316932 257.82079)scale(0.1 -0.1)">
       <defs>
        <path d="M 31.78125 66.40625 
Q 24.171875 66.40625 20.328125 58.90625 
Q 16.5 51.421875 16.5 36.375 
Q 16.5 21.390625 20.328125 13.890625 
Q 24.171875 6.390625 31.78125 6.390625 
Q 39.453125 6.390625 43.28125 13.890625 
Q 47.125 21.390625 47.125 36.375 
Q 47.125 51.421875 43.28125 58.90625 
Q 39.453125 66.40625 31.78125 66.40625 
z
M 31.78125 74.21875 
Q 44.046875 74.21875 50.515625 64.515625 
Q 56.984375 54.828125 56.984375 36.375 
Q 56.984375 17.96875 50.515625 8.265625 
Q 44.046875 -1.421875 31.78125 -1.421875 
Q 19.53125 -1.421875 13.0625 8.265625 
Q 6.59375 17.96875 6.59375 36.375 
Q 6.59375 54.828125 13.0625 64.515625 
Q 19.53125 74.21875 31.78125 74.21875 
z
" id="DejaVuSans-48"/>
       </defs>
       <use xlink:href="#DejaVuSans-48"/>
      </g>
     </g>
    </g>
    <g id="xtick_2">
     <g id="line2d_2">
      <g>
       <use style="stroke:#000000;stroke-width:0.8;" x="426.543158" xlink:href="#m73a25100d0" y="243.222353"/>
      </g>
     </g>
     <g id="text_2">
      <!-- 100 -->
      <g transform="translate(416.999408 257.82079)scale(0.1 -0.1)">
       <defs>
        <path d="M 12.40625 8.296875 
L 28.515625 8.296875 
L 28.515625 63.921875 
L 10.984375 60.40625 
L 10.984375 69.390625 
L 28.421875 72.90625 
L 38.28125 72.90625 
L 38.28125 8.296875 
L 54.390625 8.296875 
L 54.390625 0 
L 12.40625 0 
z
" id="DejaVuSans-49"/>
       </defs>
       <use xlink:href="#DejaVuSans-49"/>
       <use x="63.623047" xlink:href="#DejaVuSans-48"/>
       <use x="127.246094" xlink:href="#DejaVuSans-48"/>
      </g>
     </g>
    </g>
    <g id="xtick_3">
     <g id="line2d_3">
      <g>
       <use style="stroke:#000000;stroke-width:0.8;" x="631.588134" xlink:href="#m73a25100d0" y="243.222353"/>
      </g>
     </g>
     <g id="text_3">
      <!-- 200 -->
      <g transform="translate(622.044384 257.82079)scale(0.1 -0.1)">
       <defs>
        <path d="M 19.1875 8.296875 
L 53.609375 8.296875 
L 53.609375 0 
L 7.328125 0 
L 7.328125 8.296875 
Q 12.9375 14.109375 22.625 23.890625 
Q 32.328125 33.6875 34.8125 36.53125 
Q 39.546875 41.84375 41.421875 45.53125 
Q 43.3125 49.21875 43.3125 52.78125 
Q 43.3125 58.59375 39.234375 62.25 
Q 35.15625 65.921875 28.609375 65.921875 
Q 23.96875 65.921875 18.8125 64.3125 
Q 13.671875 62.703125 7.8125 59.421875 
L 7.8125 69.390625 
Q 13.765625 71.78125 18.9375 73 
Q 24.125 74.21875 28.421875 74.21875 
Q 39.75 74.21875 46.484375 68.546875 
Q 53.21875 62.890625 53.21875 53.421875 
Q 53.21875 48.921875 51.53125 44.890625 
Q 49.859375 40.875 45.40625 35.40625 
Q 44.1875 33.984375 37.640625 27.21875 
Q 31.109375 20.453125 19.1875 8.296875 
z
" id="DejaVuSans-50"/>
       </defs>
       <use xlink:href="#DejaVuSans-50"/>
       <use x="63.623047" xlink:href="#DejaVuSans-48"/>
       <use x="127.246094" xlink:href="#DejaVuSans-48"/>
      </g>
     </g>
    </g>
    <g id="xtick_4">
     <g id="line2d_4">
      <g>
       <use style="stroke:#000000;stroke-width:0.8;" x="836.63311" xlink:href="#m73a25100d0" y="243.222353"/>
      </g>
     </g>
     <g id="text_4">
      <!-- 300 -->
      <g transform="translate(827.08936 257.82079)scale(0.1 -0.1)">
       <defs>
        <path d="M 40.578125 39.3125 
Q 47.65625 37.796875 51.625 33 
Q 55.609375 28.21875 55.609375 21.1875 
Q 55.609375 10.40625 48.1875 4.484375 
Q 40.765625 -1.421875 27.09375 -1.421875 
Q 22.515625 -1.421875 17.65625 -0.515625 
Q 12.796875 0.390625 7.625 2.203125 
L 7.625 11.71875 
Q 11.71875 9.328125 16.59375 8.109375 
Q 21.484375 6.890625 26.8125 6.890625 
Q 36.078125 6.890625 40.9375 10.546875 
Q 45.796875 14.203125 45.796875 21.1875 
Q 45.796875 27.640625 41.28125 31.265625 
Q 36.765625 34.90625 28.71875 34.90625 
L 20.21875 34.90625 
L 20.21875 43.015625 
L 29.109375 43.015625 
Q 36.375 43.015625 40.234375 45.921875 
Q 44.09375 48.828125 44.09375 54.296875 
Q 44.09375 59.90625 40.109375 62.90625 
Q 36.140625 65.921875 28.71875 65.921875 
Q 24.65625 65.921875 20.015625 65.03125 
Q 15.375 64.15625 9.8125 62.3125 
L 9.8125 71.09375 
Q 15.4375 72.65625 20.34375 73.4375 
Q 25.25 74.21875 29.59375 74.21875 
Q 40.828125 74.21875 47.359375 69.109375 
Q 53.90625 64.015625 53.90625 55.328125 
Q 53.90625 49.265625 50.4375 45.09375 
Q 46.96875 40.921875 40.578125 39.3125 
z
" id="DejaVuSans-51"/>
       </defs>
       <use xlink:href="#DejaVuSans-51"/>
       <use x="63.623047" xlink:href="#DejaVuSans-48"/>
       <use x="127.246094" xlink:href="#DejaVuSans-48"/>
      </g>
     </g>
    </g>
    <g id="xtick_5">
     <g id="line2d_5">
      <g>
       <use style="stroke:#000000;stroke-width:0.8;" x="1041.678086" xlink:href="#m73a25100d0" y="243.222353"/>
      </g>
     </g>
     <g id="text_5">
      <!-- 400 -->
      <g transform="translate(1032.134336 257.82079)scale(0.1 -0.1)">
       <defs>
        <path d="M 37.796875 64.3125 
L 12.890625 25.390625 
L 37.796875 25.390625 
z
M 35.203125 72.90625 
L 47.609375 72.90625 
L 47.609375 25.390625 
L 58.015625 25.390625 
L 58.015625 17.1875 
L 47.609375 17.1875 
L 47.609375 0 
L 37.796875 0 
L 37.796875 17.1875 
L 4.890625 17.1875 
L 4.890625 26.703125 
z
" id="DejaVuSans-52"/>
       </defs>
       <use xlink:href="#DejaVuSans-52"/>
       <use x="63.623047" xlink:href="#DejaVuSans-48"/>
       <use x="127.246094" xlink:href="#DejaVuSans-48"/>
      </g>
     </g>
    </g>
   </g>
   <g id="matplotlib.axis_2">
    <g id="ytick_1">
     <g id="line2d_6">
      <defs>
       <path d="M 0 0 
L -3.5 0 
" id="m46c02f7812" style="stroke:#000000;stroke-width:0.8;"/>
      </defs>
      <g>
       <use style="stroke:#000000;stroke-width:0.8;" x="172.8" xlink:href="#m46c02f7812" y="236.564896"/>
      </g>
     </g>
     <g id="text_6">
      <!-- 0 -->
      <g transform="translate(159.4375 240.364115)scale(0.1 -0.1)">
       <use xlink:href="#DejaVuSans-48"/>
      </g>
     </g>
    </g>
    <g id="ytick_2">
     <g id="line2d_7">
      <g>
       <use style="stroke:#000000;stroke-width:0.8;" x="172.8" xlink:href="#m46c02f7812" y="208.114224"/>
      </g>
     </g>
     <g id="text_7">
      <!-- 50 -->
      <g transform="translate(153.075 211.913443)scale(0.1 -0.1)">
       <defs>
        <path d="M 10.796875 72.90625 
L 49.515625 72.90625 
L 49.515625 64.59375 
L 19.828125 64.59375 
L 19.828125 46.734375 
Q 21.96875 47.46875 24.109375 47.828125 
Q 26.265625 48.1875 28.421875 48.1875 
Q 40.625 48.1875 47.75 41.5 
Q 54.890625 34.8125 54.890625 23.390625 
Q 54.890625 11.625 47.5625 5.09375 
Q 40.234375 -1.421875 26.90625 -1.421875 
Q 22.3125 -1.421875 17.546875 -0.640625 
Q 12.796875 0.140625 7.71875 1.703125 
L 7.71875 11.625 
Q 12.109375 9.234375 16.796875 8.0625 
Q 21.484375 6.890625 26.703125 6.890625 
Q 35.15625 6.890625 40.078125 11.328125 
Q 45.015625 15.765625 45.015625 23.390625 
Q 45.015625 31 40.078125 35.4375 
Q 35.15625 39.890625 26.703125 39.890625 
Q 22.75 39.890625 18.8125 39.015625 
Q 14.890625 38.140625 10.796875 36.28125 
z
" id="DejaVuSans-53"/>
       </defs>
       <use xlink:href="#DejaVuSans-53"/>
       <use x="63.623047" xlink:href="#DejaVuSans-48"/>
      </g>
     </g>
    </g>
    <g id="ytick_3">
     <g id="line2d_8">
      <g>
       <use style="stroke:#000000;stroke-width:0.8;" x="172.8" xlink:href="#m46c02f7812" y="179.663553"/>
      </g>
     </g>
     <g id="text_8">
      <!-- 100 -->
      <g transform="translate(146.7125 183.462771)scale(0.1 -0.1)">
       <use xlink:href="#DejaVuSans-49"/>
       <use x="63.623047" xlink:href="#DejaVuSans-48"/>
       <use x="127.246094" xlink:href="#DejaVuSans-48"/>
      </g>
     </g>
    </g>
    <g id="ytick_4">
     <g id="line2d_9">
      <g>
       <use style="stroke:#000000;stroke-width:0.8;" x="172.8" xlink:href="#m46c02f7812" y="151.212881"/>
      </g>
     </g>
     <g id="text_9">
      <!-- 150 -->
      <g transform="translate(146.7125 155.0121)scale(0.1 -0.1)">
       <use xlink:href="#DejaVuSans-49"/>
       <use x="63.623047" xlink:href="#DejaVuSans-53"/>
       <use x="127.246094" xlink:href="#DejaVuSans-48"/>
      </g>
     </g>
    </g>
    <g id="ytick_5">
     <g id="line2d_10">
      <g>
       <use style="stroke:#000000;stroke-width:0.8;" x="172.8" xlink:href="#m46c02f7812" y="122.762209"/>
      </g>
     </g>
     <g id="text_10">
      <!-- 200 -->
      <g transform="translate(146.7125 126.561428)scale(0.1 -0.1)">
       <use xlink:href="#DejaVuSans-50"/>
       <use x="63.623047" xlink:href="#DejaVuSans-48"/>
       <use x="127.246094" xlink:href="#DejaVuSans-48"/>
      </g>
     </g>
    </g>
    <g id="ytick_6">
     <g id="line2d_11">
      <g>
       <use style="stroke:#000000;stroke-width:0.8;" x="172.8" xlink:href="#m46c02f7812" y="94.311538"/>
      </g>
     </g>
     <g id="text_11">
      <!-- 250 -->
      <g transform="translate(146.7125 98.110756)scale(0.1 -0.1)">
       <use xlink:href="#DejaVuSans-50"/>
       <use x="63.623047" xlink:href="#DejaVuSans-53"/>
       <use x="127.246094" xlink:href="#DejaVuSans-48"/>
      </g>
     </g>
    </g>
   </g>
   <g id="line2d_12">
    <path clip-path="url(#p7ff43183e3)" d="M 221.498182 235.995882 
L 223.548632 235.426869 
L 225.599081 235.426869 
L 227.649531 234.857855 
L 229.699981 235.426869 
L 233.80088 235.426869 
L 235.85133 234.857855 
L 237.90178 235.426869 
L 244.053129 235.426869 
L 246.103579 234.857855 
L 248.154029 234.857855 
L 250.204478 235.426869 
L 256.355828 235.426869 
L 258.406278 235.995882 
L 260.456727 235.426869 
L 283.011675 235.426869 
L 285.062124 235.995882 
L 287.112574 235.426869 
L 289.163024 235.995882 
L 291.213474 235.426869 
L 293.263923 235.995882 
L 297.364823 235.995882 
L 299.415273 235.426869 
L 307.617072 235.426869 
L 309.667522 235.995882 
L 311.717971 235.426869 
L 313.768421 235.426869 
L 315.818871 235.995882 
L 317.869321 235.426869 
L 319.91977 235.426869 
L 321.97022 235.995882 
L 324.02067 235.426869 
L 348.626067 235.426869 
L 350.676517 234.857855 
L 354.777416 234.857855 
L 356.827866 235.426869 
L 358.878316 234.857855 
L 365.029665 234.857855 
L 367.080115 234.288842 
L 369.130565 234.857855 
L 371.181014 234.857855 
L 373.231464 233.719829 
L 375.281914 234.288842 
L 377.332364 234.288842 
L 379.382813 234.857855 
L 383.483713 234.857855 
L 385.534163 234.288842 
L 387.584612 234.288842 
L 389.635062 234.857855 
L 391.685512 233.719829 
L 393.735962 234.857855 
L 397.836861 233.719829 
L 399.887311 234.288842 
L 403.988211 234.288842 
L 406.03866 233.719829 
L 408.08911 234.288842 
L 410.13956 233.719829 
L 412.19001 234.288842 
L 416.290909 234.288842 
L 418.341359 234.857855 
L 420.391809 233.719829 
L 422.442258 234.288842 
L 426.543158 234.288842 
L 428.593608 233.719829 
L 430.644057 234.288842 
L 434.744957 234.288842 
L 436.795407 234.857855 
L 438.845856 234.857855 
L 440.896306 234.288842 
L 447.047656 234.288842 
L 449.098105 234.857855 
L 451.148555 234.857855 
L 453.199005 233.719829 
L 455.249455 234.288842 
L 457.299904 234.288842 
L 459.350354 234.857855 
L 467.552153 234.857855 
L 469.602603 234.288842 
L 471.653053 234.288842 
L 473.703502 235.426869 
L 475.753952 235.426869 
L 477.804402 234.857855 
L 479.854852 234.857855 
L 481.905301 235.426869 
L 483.955751 234.857855 
L 486.006201 234.857855 
L 488.056651 235.426869 
L 524.964746 235.426869 
L 527.015196 234.857855 
L 529.065646 235.426869 
L 539.317895 235.426869 
L 541.368344 234.857855 
L 547.519694 234.857855 
L 549.570144 234.288842 
L 551.620593 234.857855 
L 553.671043 234.288842 
L 555.721493 234.857855 
L 559.822392 234.857855 
L 561.872842 235.426869 
L 563.923292 233.719829 
L 565.973742 234.857855 
L 568.024191 234.288842 
L 570.074641 234.857855 
L 572.125091 234.288842 
L 574.175541 234.857855 
L 576.22599 233.719829 
L 578.27644 234.288842 
L 582.37734 234.288842 
L 584.427789 233.719829 
L 588.528689 233.719829 
L 590.579139 233.150815 
L 592.629589 233.150815 
L 594.680038 233.719829 
L 596.730488 233.150815 
L 598.780938 233.150815 
L 600.831388 232.581802 
L 602.881837 233.150815 
L 604.932287 232.012788 
L 606.982737 232.581802 
L 609.033187 232.012788 
L 613.134086 233.150815 
L 615.184536 234.288842 
L 617.234986 233.150815 
L 619.285435 233.719829 
L 621.335885 233.150815 
L 623.386335 233.150815 
L 625.436785 234.288842 
L 627.487234 234.857855 
L 629.537684 233.719829 
L 631.588134 234.288842 
L 637.739483 234.288842 
L 639.789933 234.857855 
L 641.840383 233.719829 
L 643.890833 234.288842 
L 645.941282 233.150815 
L 647.991732 233.150815 
L 650.042182 233.719829 
L 652.092632 233.150815 
L 654.143081 233.719829 
L 656.193531 233.150815 
L 658.243981 233.150815 
L 660.294431 233.719829 
L 668.49623 233.719829 
L 670.546679 234.288842 
L 672.597129 233.719829 
L 674.647579 234.288842 
L 676.698029 234.288842 
L 678.748478 233.719829 
L 680.798928 233.719829 
L 682.849378 233.150815 
L 684.899828 233.150815 
L 686.950278 233.719829 
L 689.000727 233.150815 
L 695.152077 233.150815 
L 697.202526 233.719829 
L 699.252976 232.012788 
L 701.303426 230.874761 
L 703.353876 230.874761 
L 705.404325 230.305748 
L 709.505225 223.477587 
L 711.555675 218.925479 
L 713.606124 220.63252 
L 715.656574 212.666332 
L 717.707024 204.13113 
L 719.757474 209.821264 
L 721.807923 210.390278 
L 723.858373 206.976197 
L 725.908823 214.942385 
L 727.959273 194.457902 
L 730.009722 202.993103 
L 732.060172 180.801579 
L 734.110622 171.128351 
L 736.161072 182.50862 
L 738.211522 205.269157 
L 740.261971 176.249472 
L 742.312421 188.767767 
L 744.362871 186.491714 
L 746.413321 179.663553 
L 748.46377 163.731176 
L 750.51422 188.767767 
L 752.56467 167.71427 
L 754.61512 98.863645 
L 756.665569 179.094539 
L 758.716019 177.387499 
L 760.766469 191.043821 
L 762.816919 161.455123 
L 764.867368 190.474808 
L 766.917818 133.004451 
L 768.968268 91.466471 
L 771.018718 134.142478 
L 775.119617 92.035484 
L 777.170067 91.466471 
L 779.220517 163.731176 
L 781.270967 154.057948 
L 783.321416 91.466471 
L 785.371866 129.021357 
L 787.422316 91.466471 
L 801.775464 91.466471 
L 803.825914 108.536874 
L 805.876364 91.466471 
L 807.926813 91.466471 
L 809.977263 119.917142 
L 812.027713 122.762209 
L 814.078163 147.229787 
L 816.128612 141.539653 
L 818.179062 121.624182 
L 820.229512 109.6749 
L 822.279962 144.38472 
L 824.330411 130.159384 
L 826.380861 150.074854 
L 828.431311 148.367814 
L 830.481761 128.452344 
L 832.532211 93.173511 
L 834.58266 133.004451 
L 836.63311 106.829833 
L 838.68356 122.193196 
L 840.73401 91.466471 
L 842.784459 94.311538 
L 844.834909 93.742524 
L 846.885359 91.466471 
L 848.935809 96.018578 
L 850.986258 136.418532 
L 853.036708 174.542432 
L 855.087158 142.108666 
L 857.137608 96.018578 
L 859.188057 151.212881 
L 861.238507 185.9227 
L 863.288957 183.077633 
L 865.339407 161.455123 
L 867.389856 117.641088 
L 869.440306 127.88333 
L 871.490756 108.536874 
L 873.541206 131.297411 
L 875.591656 173.404405 
L 877.642105 151.781894 
L 879.692555 128.452344 
L 881.743005 122.193196 
L 883.793455 113.657994 
L 885.843904 100.570686 
L 887.894354 143.246693 
L 889.944804 143.246693 
L 891.995254 117.072075 
L 894.045703 133.004451 
L 896.096153 181.939606 
L 898.146603 125.038263 
L 900.197053 167.71427 
L 902.247502 143.246693 
L 904.297952 156.903015 
L 906.348402 150.643868 
L 908.398852 133.004451 
L 910.449301 94.880551 
L 912.499751 136.418532 
L 914.550201 118.210102 
L 916.600651 123.331223 
L 918.6511 91.466471 
L 963.760995 91.466471 
L 965.811445 97.156605 
L 967.861895 91.466471 
L 969.912344 114.796021 
L 971.962794 146.09176 
L 974.013244 163.162163 
L 976.063694 169.990324 
L 978.114144 179.094539 
L 980.164593 171.697365 
L 982.215043 179.663553 
L 984.265493 189.336781 
L 986.315943 169.990324 
L 988.366392 156.334002 
L 990.416842 160.886109 
L 992.467292 158.610056 
L 994.517742 118.779115 
L 996.568191 135.849518 
L 998.618641 142.108666 
L 1002.719541 172.835391 
L 1004.76999 182.50862 
L 1006.82044 189.336781 
L 1008.87089 192.181848 
L 1010.92134 196.733956 
L 1012.971789 199.010009 
L 1015.022239 201.855076 
L 1017.072689 205.83817 
L 1019.123139 208.683238 
L 1021.173589 213.804358 
L 1023.224038 211.528305 
L 1025.274488 213.804358 
L 1027.324938 210.959291 
L 1029.375388 211.528305 
L 1031.425837 214.942385 
L 1033.476287 192.750862 
L 1035.526737 208.114224 
L 1037.577187 214.373372 
L 1041.678086 221.201533 
L 1043.728536 218.356466 
L 1045.778986 217.218439 
L 1047.829435 218.925479 
L 1049.879885 217.787453 
L 1051.930335 221.770547 
L 1053.980785 220.063506 
L 1056.031234 222.908573 
L 1058.081684 222.33956 
L 1060.132134 219.494493 
L 1062.182584 221.770547 
L 1064.233033 220.063506 
L 1066.283483 223.477587 
L 1068.333933 220.063506 
L 1070.384383 218.925479 
L 1072.434833 216.649426 
L 1074.485282 217.218439 
L 1076.535732 221.201533 
L 1078.586182 218.356466 
L 1080.636632 221.201533 
L 1082.687081 220.063506 
L 1084.737531 223.477587 
L 1086.787981 219.494493 
L 1088.838431 219.494493 
L 1090.88888 218.356466 
L 1094.98978 220.63252 
L 1097.04023 217.218439 
L 1099.090679 218.356466 
L 1101.141129 220.63252 
L 1103.191579 219.494493 
L 1105.242029 220.063506 
L 1107.292478 222.33956 
L 1109.342928 222.908573 
L 1111.393378 224.615614 
L 1113.443828 224.615614 
L 1115.494278 222.908573 
L 1117.544727 227.460681 
L 1119.595177 225.753641 
L 1121.645627 226.891667 
L 1123.696077 225.753641 
L 1125.746526 226.891667 
L 1127.796976 229.167721 
L 1129.847426 226.322654 
L 1133.948325 225.184627 
L 1135.998775 226.891667 
L 1138.049225 225.753641 
L 1144.200574 227.460681 
L 1146.251024 225.753641 
L 1148.301474 226.322654 
L 1150.351923 228.029694 
L 1152.402373 228.598708 
L 1154.452823 229.736735 
L 1156.503273 227.460681 
L 1158.553722 226.891667 
L 1160.604172 227.460681 
L 1162.654622 225.753641 
L 1164.705072 228.598708 
L 1166.755522 226.891667 
L 1168.805971 228.598708 
L 1170.856421 229.736735 
L 1172.906871 229.736735 
L 1174.957321 230.874761 
L 1177.00777 229.736735 
L 1179.05822 229.736735 
L 1183.15912 230.874761 
L 1185.209569 230.305748 
L 1187.260019 230.305748 
L 1189.310469 230.874761 
L 1191.360919 230.305748 
L 1193.411368 230.874761 
L 1195.461818 230.305748 
L 1195.461818 230.305748 
" style="fill:none;stroke:#1f77b4;stroke-linecap:square;stroke-width:1.5;"/>
   </g>
   <g id="patch_3">
    <path d="M 172.8 243.222353 
L 172.8 84.24 
" style="fill:none;stroke:#000000;stroke-linecap:square;stroke-linejoin:miter;stroke-width:0.8;"/>
   </g>
   <g id="patch_4">
    <path d="M 1244.16 243.222353 
L 1244.16 84.24 
" style="fill:none;stroke:#000000;stroke-linecap:square;stroke-linejoin:miter;stroke-width:0.8;"/>
   </g>
   <g id="patch_5">
    <path d="M 172.8 243.222353 
L 1244.16 243.222353 
" style="fill:none;stroke:#000000;stroke-linecap:square;stroke-linejoin:miter;stroke-width:0.8;"/>
   </g>
   <g id="patch_6">
    <path d="M 172.8 84.24 
L 1244.16 84.24 
" style="fill:none;stroke:#000000;stroke-linecap:square;stroke-linejoin:miter;stroke-width:0.8;"/>
   </g>
   <g id="text_12">
    <!-- raw -->
    <g transform="translate(223.343587 236.280389)scale(0.1 -0.1)">
     <defs>
      <path d="M 41.109375 46.296875 
Q 39.59375 47.171875 37.8125 47.578125 
Q 36.03125 48 33.890625 48 
Q 26.265625 48 22.1875 43.046875 
Q 18.109375 38.09375 18.109375 28.8125 
L 18.109375 0 
L 9.078125 0 
L 9.078125 54.6875 
L 18.109375 54.6875 
L 18.109375 46.1875 
Q 20.953125 51.171875 25.484375 53.578125 
Q 30.03125 56 36.53125 56 
Q 37.453125 56 38.578125 55.875 
Q 39.703125 55.765625 41.0625 55.515625 
z
" id="DejaVuSans-114"/>
      <path d="M 34.28125 27.484375 
Q 23.390625 27.484375 19.1875 25 
Q 14.984375 22.515625 14.984375 16.5 
Q 14.984375 11.71875 18.140625 8.90625 
Q 21.296875 6.109375 26.703125 6.109375 
Q 34.1875 6.109375 38.703125 11.40625 
Q 43.21875 16.703125 43.21875 25.484375 
L 43.21875 27.484375 
z
M 52.203125 31.203125 
L 52.203125 0 
L 43.21875 0 
L 43.21875 8.296875 
Q 40.140625 3.328125 35.546875 0.953125 
Q 30.953125 -1.421875 24.3125 -1.421875 
Q 15.921875 -1.421875 10.953125 3.296875 
Q 6 8.015625 6 15.921875 
Q 6 25.140625 12.171875 29.828125 
Q 18.359375 34.515625 30.609375 34.515625 
L 43.21875 34.515625 
L 43.21875 35.40625 
Q 43.21875 41.609375 39.140625 45 
Q 35.0625 48.390625 27.6875 48.390625 
Q 23 48.390625 18.546875 47.265625 
Q 14.109375 46.140625 10.015625 43.890625 
L 10.015625 52.203125 
Q 14.9375 54.109375 19.578125 55.046875 
Q 24.21875 56 28.609375 56 
Q 40.484375 56 46.34375 49.84375 
Q 52.203125 43.703125 52.203125 31.203125 
z
" id="DejaVuSans-97"/>
      <path d="M 4.203125 54.6875 
L 13.1875 54.6875 
L 24.421875 12.015625 
L 35.59375 54.6875 
L 46.1875 54.6875 
L 57.421875 12.015625 
L 68.609375 54.6875 
L 77.59375 54.6875 
L 63.28125 0 
L 52.6875 0 
L 40.921875 44.828125 
L 29.109375 0 
L 18.5 0 
z
" id="DejaVuSans-119"/>
     </defs>
     <use xlink:href="#DejaVuSans-114"/>
     <use x="41.113281" xlink:href="#DejaVuSans-97"/>
     <use x="102.392578" xlink:href="#DejaVuSans-119"/>
    </g>
   </g>
  </g>
  <g id="axes_2">
   <g id="patch_7">
    <path d="M 172.8 434.001176 
L 1244.16 434.001176 
L 1244.16 275.018824 
L 172.8 275.018824 
z
" style="fill:#ffffff;"/>
   </g>
   <g id="matplotlib.axis_3">
    <g id="xtick_6">
     <g id="line2d_13">
      <g>
       <use style="stroke:#000000;stroke-width:0.8;" x="221.498182" xlink:href="#m73a25100d0" y="434.001176"/>
      </g>
     </g>
     <g id="text_13">
      <!-- 0 -->
      <g transform="translate(218.316932 448.599614)scale(0.1 -0.1)">
       <use xlink:href="#DejaVuSans-48"/>
      </g>
     </g>
    </g>
    <g id="xtick_7">
     <g id="line2d_14">
      <g>
       <use style="stroke:#000000;stroke-width:0.8;" x="426.543158" xlink:href="#m73a25100d0" y="434.001176"/>
      </g>
     </g>
     <g id="text_14">
      <!-- 100 -->
      <g transform="translate(416.999408 448.599614)scale(0.1 -0.1)">
       <use xlink:href="#DejaVuSans-49"/>
       <use x="63.623047" xlink:href="#DejaVuSans-48"/>
       <use x="127.246094" xlink:href="#DejaVuSans-48"/>
      </g>
     </g>
    </g>
    <g id="xtick_8">
     <g id="line2d_15">
      <g>
       <use style="stroke:#000000;stroke-width:0.8;" x="631.588134" xlink:href="#m73a25100d0" y="434.001176"/>
      </g>
     </g>
     <g id="text_15">
      <!-- 200 -->
      <g transform="translate(622.044384 448.599614)scale(0.1 -0.1)">
       <use xlink:href="#DejaVuSans-50"/>
       <use x="63.623047" xlink:href="#DejaVuSans-48"/>
       <use x="127.246094" xlink:href="#DejaVuSans-48"/>
      </g>
     </g>
    </g>
    <g id="xtick_9">
     <g id="line2d_16">
      <g>
       <use style="stroke:#000000;stroke-width:0.8;" x="836.63311" xlink:href="#m73a25100d0" y="434.001176"/>
      </g>
     </g>
     <g id="text_16">
      <!-- 300 -->
      <g transform="translate(827.08936 448.599614)scale(0.1 -0.1)">
       <use xlink:href="#DejaVuSans-51"/>
       <use x="63.623047" xlink:href="#DejaVuSans-48"/>
       <use x="127.246094" xlink:href="#DejaVuSans-48"/>
      </g>
     </g>
    </g>
    <g id="xtick_10">
     <g id="line2d_17">
      <g>
       <use style="stroke:#000000;stroke-width:0.8;" x="1041.678086" xlink:href="#m73a25100d0" y="434.001176"/>
      </g>
     </g>
     <g id="text_17">
      <!-- 400 -->
      <g transform="translate(1032.134336 448.599614)scale(0.1 -0.1)">
       <use xlink:href="#DejaVuSans-52"/>
       <use x="63.623047" xlink:href="#DejaVuSans-48"/>
       <use x="127.246094" xlink:href="#DejaVuSans-48"/>
      </g>
     </g>
    </g>
   </g>
   <g id="matplotlib.axis_4">
    <g id="ytick_7">
     <g id="line2d_18">
      <g>
       <use style="stroke:#000000;stroke-width:0.8;" x="172.8" xlink:href="#m46c02f7812" y="426.774706"/>
      </g>
     </g>
     <g id="text_18">
      <!-- 0 -->
      <g transform="translate(159.4375 430.573925)scale(0.1 -0.1)">
       <use xlink:href="#DejaVuSans-48"/>
      </g>
     </g>
    </g>
    <g id="ytick_8">
     <g id="line2d_19">
      <g>
       <use style="stroke:#000000;stroke-width:0.8;" x="172.8" xlink:href="#m46c02f7812" y="399.05066"/>
      </g>
     </g>
     <g id="text_19">
      <!-- 50 -->
      <g transform="translate(153.075 402.849879)scale(0.1 -0.1)">
       <use xlink:href="#DejaVuSans-53"/>
       <use x="63.623047" xlink:href="#DejaVuSans-48"/>
      </g>
     </g>
    </g>
    <g id="ytick_9">
     <g id="line2d_20">
      <g>
       <use style="stroke:#000000;stroke-width:0.8;" x="172.8" xlink:href="#m46c02f7812" y="371.326614"/>
      </g>
     </g>
     <g id="text_20">
      <!-- 100 -->
      <g transform="translate(146.7125 375.125833)scale(0.1 -0.1)">
       <use xlink:href="#DejaVuSans-49"/>
       <use x="63.623047" xlink:href="#DejaVuSans-48"/>
       <use x="127.246094" xlink:href="#DejaVuSans-48"/>
      </g>
     </g>
    </g>
    <g id="ytick_10">
     <g id="line2d_21">
      <g>
       <use style="stroke:#000000;stroke-width:0.8;" x="172.8" xlink:href="#m46c02f7812" y="343.602568"/>
      </g>
     </g>
     <g id="text_21">
      <!-- 150 -->
      <g transform="translate(146.7125 347.401787)scale(0.1 -0.1)">
       <use xlink:href="#DejaVuSans-49"/>
       <use x="63.623047" xlink:href="#DejaVuSans-53"/>
       <use x="127.246094" xlink:href="#DejaVuSans-48"/>
      </g>
     </g>
    </g>
    <g id="ytick_11">
     <g id="line2d_22">
      <g>
       <use style="stroke:#000000;stroke-width:0.8;" x="172.8" xlink:href="#m46c02f7812" y="315.878522"/>
      </g>
     </g>
     <g id="text_22">
      <!-- 200 -->
      <g transform="translate(146.7125 319.677741)scale(0.1 -0.1)">
       <use xlink:href="#DejaVuSans-50"/>
       <use x="63.623047" xlink:href="#DejaVuSans-48"/>
       <use x="127.246094" xlink:href="#DejaVuSans-48"/>
      </g>
     </g>
    </g>
    <g id="ytick_12">
     <g id="line2d_23">
      <g>
       <use style="stroke:#000000;stroke-width:0.8;" x="172.8" xlink:href="#m46c02f7812" y="288.154476"/>
      </g>
     </g>
     <g id="text_23">
      <!-- 250 -->
      <g transform="translate(146.7125 291.953695)scale(0.1 -0.1)">
       <use xlink:href="#DejaVuSans-50"/>
       <use x="63.623047" xlink:href="#DejaVuSans-53"/>
       <use x="127.246094" xlink:href="#DejaVuSans-48"/>
      </g>
     </g>
    </g>
   </g>
   <g id="line2d_24">
    <path clip-path="url(#paa95199e94)" d="M 221.498182 426.220225 
L 225.599081 425.428109 
L 229.699981 425.475636 
L 231.750431 425.760798 
L 233.80088 425.475636 
L 235.85133 425.396425 
L 237.90178 425.475636 
L 239.95223 425.713271 
L 242.002679 425.713271 
L 244.053129 425.523163 
L 246.103579 425.206317 
L 248.154029 425.206317 
L 250.204478 425.523163 
L 252.254928 425.713271 
L 254.305378 425.618217 
L 256.355828 425.855852 
L 258.406278 425.935063 
L 260.456727 425.855852 
L 262.507177 425.618217 
L 268.658526 425.665744 
L 280.961225 425.618217 
L 283.011675 425.855852 
L 285.062124 425.887536 
L 287.112574 426.04596 
L 289.163024 425.840009 
L 291.213474 425.998433 
L 293.263923 426.030117 
L 295.314373 426.315279 
L 301.465722 425.618217 
L 307.617072 425.855852 
L 309.667522 425.935063 
L 311.717971 425.808325 
L 313.768421 425.808325 
L 315.818871 425.935063 
L 317.869321 425.808325 
L 319.91977 425.808325 
L 321.97022 425.935063 
L 324.02067 425.855852 
L 326.07112 425.618217 
L 332.222469 425.665744 
L 346.575617 425.713271 
L 350.676517 425.253844 
L 352.726967 425.016209 
L 354.777416 425.301371 
L 356.827866 425.380582 
L 358.878316 425.301371 
L 360.928766 425.063736 
L 362.979215 425.15879 
L 365.029665 424.921155 
L 367.080115 424.841944 
L 369.130565 425.016209 
L 371.181014 424.826102 
L 373.231464 424.430044 
L 375.281914 424.271621 
L 377.332364 424.74689 
L 381.433263 425.206317 
L 385.534163 424.651836 
L 387.584612 424.74689 
L 389.635062 424.588467 
L 393.735962 424.635994 
L 395.786411 424.604309 
L 397.836861 424.239936 
L 399.887311 424.366674 
L 401.937761 424.651836 
L 403.988211 424.366674 
L 406.03866 424.33499 
L 408.08911 424.176567 
L 410.13956 424.33499 
L 412.19001 424.366674 
L 416.290909 424.794417 
L 422.442258 424.319148 
L 424.492708 424.651836 
L 426.543158 424.366674 
L 428.593608 424.287463 
L 432.694507 424.556782 
L 434.744957 424.699363 
L 436.795407 425.016209 
L 438.845856 425.016209 
L 440.896306 424.699363 
L 442.946756 424.509255 
L 444.997206 424.509255 
L 447.047656 424.699363 
L 449.098105 425.063736 
L 451.148555 424.826102 
L 453.199005 424.430044 
L 455.249455 424.271621 
L 457.299904 424.74689 
L 461.400804 425.15879 
L 467.552153 424.968682 
L 469.602603 424.604309 
L 471.653053 424.794417 
L 473.703502 425.428109 
L 475.753952 425.618217 
L 477.804402 425.206317 
L 483.955751 425.253844 
L 486.006201 425.206317 
L 488.056651 425.523163 
L 490.1071 425.713271 
L 496.25845 425.665744 
L 522.914297 425.713271 
L 524.964746 425.475636 
L 527.015196 425.396425 
L 529.065646 425.475636 
L 531.116096 425.713271 
L 535.216995 425.665744 
L 537.267445 425.713271 
L 543.418794 425.063736 
L 545.469244 425.15879 
L 547.519694 424.921155 
L 549.570144 424.889471 
L 551.620593 424.731048 
L 553.671043 424.889471 
L 555.721493 424.921155 
L 559.822392 425.396425 
L 561.872842 425.000367 
L 563.923292 424.810259 
L 565.973742 424.493413 
L 568.024191 424.984525 
L 570.074641 424.731048 
L 572.125091 424.984525 
L 574.175541 424.588467 
L 578.27644 424.319148 
L 580.32689 424.651836 
L 586.478239 424.002301 
L 588.528689 423.85972 
L 590.579139 423.542874 
L 596.730488 423.685455 
L 598.780938 423.210186 
L 600.831388 423.273555 
L 602.881837 422.925024 
L 604.932287 422.861655 
L 606.982737 422.465597 
L 611.083636 422.750759 
L 613.134086 423.732982 
L 615.184536 423.986459 
L 617.234986 424.018144 
L 619.285435 423.622086 
L 621.335885 423.542874 
L 623.386335 423.637928 
L 625.436785 424.509255 
L 627.487234 424.731048 
L 631.588134 424.319148 
L 633.638584 424.604309 
L 635.689033 424.509255 
L 637.739483 424.794417 
L 641.840383 424.572625 
L 643.890833 424.033986 
L 647.991732 423.542874 
L 652.092632 423.828036 
L 656.193531 423.590401 
L 658.243981 423.542874 
L 660.294431 423.85972 
L 662.34488 424.049828 
L 666.44578 423.954774 
L 668.49623 424.192409 
L 672.597129 424.33499 
L 676.698029 424.461728 
L 682.849378 423.542874 
L 689.000727 423.637928 
L 691.051177 423.400293 
L 693.101627 423.400293 
L 695.152077 423.732982 
L 697.202526 423.527032 
L 701.303426 421.420004 
L 703.353876 421.277424 
L 705.404325 420.247673 
L 707.454775 417.681219 
L 709.505225 413.308741 
L 711.555675 411.534402 
L 713.606124 409.158055 
L 715.656574 403.011238 
L 717.707024 398.02091 
L 721.807923 400.08041 
L 723.858373 402.551811 
L 725.908823 397.577325 
L 727.959273 395.533667 
L 732.060172 375.334719 
L 734.110622 364.530262 
L 736.161072 378.566551 
L 738.211522 383.208348 
L 740.261971 380.499313 
L 742.312421 374.637657 
L 744.362871 379.216085 
L 746.413321 366.764028 
L 748.46377 367.25514 
L 750.51422 373.069268 
L 752.56467 343.095614 
L 754.61512 328.33058 
L 756.665569 343.349091 
L 758.716019 382.131071 
L 760.766469 369.013637 
L 762.816919 374.209915 
L 764.867368 361.187534 
L 766.917818 328.710795 
L 768.968268 303.442307 
L 771.018718 309.288121 
L 773.069167 310.064394 
L 775.119617 283.275044 
L 777.170067 302.681877 
L 779.220517 340.449948 
L 781.270967 336.014101 
L 783.321416 312.805114 
L 785.371866 297.929183 
L 787.422316 297.929183 
L 789.472766 282.245294 
L 791.523215 285.382072 
L 797.674565 285.382072 
L 799.725014 283.956264 
L 801.775464 291.085304 
L 803.825914 293.461651 
L 805.876364 288.708957 
L 807.926813 290.847669 
L 809.977263 304.646323 
L 812.027713 324.148209 
L 814.078163 334.065496 
L 816.128612 333.653596 
L 818.179062 313.391279 
L 820.229512 314.341818 
L 822.279962 322.025339 
L 824.330411 334.683347 
L 826.380861 337.550805 
L 828.431311 340.877691 
L 830.481761 314.104183 
L 832.532211 306.388978 
L 834.58266 305.089908 
L 836.63311 316.654796 
L 838.68356 301.351122 
L 840.73401 295.125094 
L 842.784459 284.922645 
L 844.834909 287.029672 
L 846.885359 283.671102 
L 848.935809 295.426098 
L 850.986258 331.704992 
L 853.036708 355.88036 
L 855.087158 329.883126 
L 857.137608 309.589125 
L 859.188057 334.857612 
L 861.238507 374.431707 
L 863.288957 376.50705 
L 865.339407 346.929454 
L 867.389856 324.243263 
L 869.440306 307.893997 
L 871.490756 309.905971 
L 873.541206 329.233591 
L 875.591656 353.107955 
L 877.642105 347.769096 
L 879.692555 324.607636 
L 881.743005 313.898233 
L 883.793455 301.778865 
L 885.843904 307.513782 
L 887.894354 326.239394 
L 889.944804 331.514884 
L 891.995254 316.797376 
L 894.045703 336.69532 
L 896.096153 344.790742 
L 898.146603 349.179062 
L 900.197053 336.96464 
L 902.247502 349.480066 
L 904.297952 343.586726 
L 906.348402 344.521422 
L 908.398852 316.734007 
L 910.449301 308.717797 
L 912.499751 310.603032 
L 914.550201 323.419463 
L 916.600651 305.644389 
L 918.6511 293.79434 
L 920.70155 282.720563 
L 922.752 285.382072 
L 959.660096 285.382072 
L 961.710545 284.906803 
L 963.760995 287.283149 
L 965.811445 286.126661 
L 967.861895 290.514981 
L 969.912344 308.210843 
L 971.962794 336.426001 
L 974.013244 354.533763 
L 976.063694 364.51442 
L 978.114144 366.542236 
L 980.164593 367.366036 
L 982.215043 372.752422 
L 984.265493 375.287192 
L 988.366392 351.729674 
L 990.416842 353.504013 
L 992.467292 340.354894 
L 994.517742 325.542333 
L 996.568191 321.312435 
L 998.618641 337.154747 
L 1000.669091 349.416697 
L 1002.719541 363.959939 
L 1004.76999 374.431707 
L 1006.82044 380.182466 
L 1008.87089 384.333152 
L 1012.971789 390.369073 
L 1015.022239 393.189005 
L 1017.072689 396.357467 
L 1019.123139 400.69826 
L 1021.173589 402.789446 
L 1023.224038 404.183569 
L 1025.274488 403.074607 
L 1027.324938 402.583496 
L 1029.375388 404.706365 
L 1031.425837 398.052594 
L 1033.476287 393.252374 
L 1035.526737 394.630655 
L 1037.577187 405.435112 
L 1039.627636 409.237267 
L 1041.678086 410.615548 
L 1045.778986 408.492678 
L 1047.829435 408.445151 
L 1049.879885 410.045224 
L 1051.930335 410.599705 
L 1053.980785 412.215621 
L 1056.031234 412.706733 
L 1058.081684 412.389887 
L 1060.132134 411.518559 
L 1062.182584 410.83734 
L 1064.233033 412.453256 
L 1066.283483 412.263148 
L 1068.333933 411.740352 
L 1070.384383 408.967947 
L 1072.434833 407.653035 
L 1076.535732 409.902644 
L 1078.586182 410.884867 
L 1080.636632 410.282859 
L 1082.687081 412.405729 
L 1084.737531 412.07304 
L 1086.787981 411.518559 
L 1088.838431 409.427374 
L 1090.88888 409.506586 
L 1092.93933 410.330386 
L 1094.98978 410.108594 
L 1097.04023 408.967947 
L 1099.090679 409.12637 
L 1101.141129 410.441282 
L 1103.191579 410.568021 
L 1105.242029 410.979921 
L 1107.292478 412.389887 
L 1109.342928 413.942433 
L 1111.393378 414.892972 
L 1113.443828 414.46523 
L 1115.494278 415.178134 
L 1117.544727 416.096988 
L 1119.595177 417.427742 
L 1121.645627 416.540572 
L 1123.696077 416.714838 
L 1125.746526 417.776273 
L 1127.796976 418.425807 
L 1129.847426 417.602007 
L 1131.897876 415.859353 
L 1133.948325 416.302938 
L 1138.049225 416.762365 
L 1140.099675 416.651469 
L 1142.150124 417.538638 
L 1144.200574 417.332688 
L 1146.251024 416.714838 
L 1148.301474 416.889103 
L 1152.402373 419.487242 
L 1154.452823 419.360504 
L 1156.503273 418.378281 
L 1158.553722 417.586165 
L 1160.604172 417.047526 
L 1162.654622 417.570323 
L 1164.705072 417.586165 
L 1166.755522 418.346596 
L 1168.805971 418.726811 
L 1170.856421 419.8833 
L 1172.906871 420.596204 
L 1174.957321 420.659573 
L 1177.00777 420.453623 
L 1179.05822 420.120935 
L 1181.10867 420.722943 
L 1183.15912 420.992262 
L 1185.209569 420.817997 
L 1189.310469 420.897208 
L 1191.360919 421.055631 
L 1193.411368 426.774706 
L 1195.461818 426.774706 
L 1195.461818 426.774706 
" style="fill:none;stroke:#1f77b4;stroke-linecap:square;stroke-width:1.5;"/>
   </g>
   <g id="patch_8">
    <path d="M 172.8 434.001176 
L 172.8 275.018824 
" style="fill:none;stroke:#000000;stroke-linecap:square;stroke-linejoin:miter;stroke-width:0.8;"/>
   </g>
   <g id="patch_9">
    <path d="M 1244.16 434.001176 
L 1244.16 275.018824 
" style="fill:none;stroke:#000000;stroke-linecap:square;stroke-linejoin:miter;stroke-width:0.8;"/>
   </g>
   <g id="patch_10">
    <path d="M 172.8 434.001176 
L 1244.16 434.001176 
" style="fill:none;stroke:#000000;stroke-linecap:square;stroke-linejoin:miter;stroke-width:0.8;"/>
   </g>
   <g id="patch_11">
    <path d="M 172.8 275.018824 
L 1244.16 275.018824 
" style="fill:none;stroke:#000000;stroke-linecap:square;stroke-linejoin:miter;stroke-width:0.8;"/>
   </g>
   <g id="text_24">
    <!-- smoothed -->
    <g transform="translate(223.343587 426.497465)scale(0.1 -0.1)">
     <defs>
      <path d="M 44.28125 53.078125 
L 44.28125 44.578125 
Q 40.484375 46.53125 36.375 47.5 
Q 32.28125 48.484375 27.875 48.484375 
Q 21.1875 48.484375 17.84375 46.4375 
Q 14.5 44.390625 14.5 40.28125 
Q 14.5 37.15625 16.890625 35.375 
Q 19.28125 33.59375 26.515625 31.984375 
L 29.59375 31.296875 
Q 39.15625 29.25 43.1875 25.515625 
Q 47.21875 21.78125 47.21875 15.09375 
Q 47.21875 7.46875 41.1875 3.015625 
Q 35.15625 -1.421875 24.609375 -1.421875 
Q 20.21875 -1.421875 15.453125 -0.5625 
Q 10.6875 0.296875 5.421875 2 
L 5.421875 11.28125 
Q 10.40625 8.6875 15.234375 7.390625 
Q 20.0625 6.109375 24.8125 6.109375 
Q 31.15625 6.109375 34.5625 8.28125 
Q 37.984375 10.453125 37.984375 14.40625 
Q 37.984375 18.0625 35.515625 20.015625 
Q 33.0625 21.96875 24.703125 23.78125 
L 21.578125 24.515625 
Q 13.234375 26.265625 9.515625 29.90625 
Q 5.8125 33.546875 5.8125 39.890625 
Q 5.8125 47.609375 11.28125 51.796875 
Q 16.75 56 26.8125 56 
Q 31.78125 56 36.171875 55.265625 
Q 40.578125 54.546875 44.28125 53.078125 
z
" id="DejaVuSans-115"/>
      <path d="M 52 44.1875 
Q 55.375 50.25 60.0625 53.125 
Q 64.75 56 71.09375 56 
Q 79.640625 56 84.28125 50.015625 
Q 88.921875 44.046875 88.921875 33.015625 
L 88.921875 0 
L 79.890625 0 
L 79.890625 32.71875 
Q 79.890625 40.578125 77.09375 44.375 
Q 74.3125 48.1875 68.609375 48.1875 
Q 61.625 48.1875 57.5625 43.546875 
Q 53.515625 38.921875 53.515625 30.90625 
L 53.515625 0 
L 44.484375 0 
L 44.484375 32.71875 
Q 44.484375 40.625 41.703125 44.40625 
Q 38.921875 48.1875 33.109375 48.1875 
Q 26.21875 48.1875 22.15625 43.53125 
Q 18.109375 38.875 18.109375 30.90625 
L 18.109375 0 
L 9.078125 0 
L 9.078125 54.6875 
L 18.109375 54.6875 
L 18.109375 46.1875 
Q 21.1875 51.21875 25.484375 53.609375 
Q 29.78125 56 35.6875 56 
Q 41.65625 56 45.828125 52.96875 
Q 50 49.953125 52 44.1875 
z
" id="DejaVuSans-109"/>
      <path d="M 30.609375 48.390625 
Q 23.390625 48.390625 19.1875 42.75 
Q 14.984375 37.109375 14.984375 27.296875 
Q 14.984375 17.484375 19.15625 11.84375 
Q 23.34375 6.203125 30.609375 6.203125 
Q 37.796875 6.203125 41.984375 11.859375 
Q 46.1875 17.53125 46.1875 27.296875 
Q 46.1875 37.015625 41.984375 42.703125 
Q 37.796875 48.390625 30.609375 48.390625 
z
M 30.609375 56 
Q 42.328125 56 49.015625 48.375 
Q 55.71875 40.765625 55.71875 27.296875 
Q 55.71875 13.875 49.015625 6.21875 
Q 42.328125 -1.421875 30.609375 -1.421875 
Q 18.84375 -1.421875 12.171875 6.21875 
Q 5.515625 13.875 5.515625 27.296875 
Q 5.515625 40.765625 12.171875 48.375 
Q 18.84375 56 30.609375 56 
z
" id="DejaVuSans-111"/>
      <path d="M 18.3125 70.21875 
L 18.3125 54.6875 
L 36.8125 54.6875 
L 36.8125 47.703125 
L 18.3125 47.703125 
L 18.3125 18.015625 
Q 18.3125 11.328125 20.140625 9.421875 
Q 21.96875 7.515625 27.59375 7.515625 
L 36.8125 7.515625 
L 36.8125 0 
L 27.59375 0 
Q 17.1875 0 13.234375 3.875 
Q 9.28125 7.765625 9.28125 18.015625 
L 9.28125 47.703125 
L 2.6875 47.703125 
L 2.6875 54.6875 
L 9.28125 54.6875 
L 9.28125 70.21875 
z
" id="DejaVuSans-116"/>
      <path d="M 54.890625 33.015625 
L 54.890625 0 
L 45.90625 0 
L 45.90625 32.71875 
Q 45.90625 40.484375 42.875 44.328125 
Q 39.84375 48.1875 33.796875 48.1875 
Q 26.515625 48.1875 22.3125 43.546875 
Q 18.109375 38.921875 18.109375 30.90625 
L 18.109375 0 
L 9.078125 0 
L 9.078125 75.984375 
L 18.109375 75.984375 
L 18.109375 46.1875 
Q 21.34375 51.125 25.703125 53.5625 
Q 30.078125 56 35.796875 56 
Q 45.21875 56 50.046875 50.171875 
Q 54.890625 44.34375 54.890625 33.015625 
z
" id="DejaVuSans-104"/>
      <path d="M 56.203125 29.59375 
L 56.203125 25.203125 
L 14.890625 25.203125 
Q 15.484375 15.921875 20.484375 11.0625 
Q 25.484375 6.203125 34.421875 6.203125 
Q 39.59375 6.203125 44.453125 7.46875 
Q 49.3125 8.734375 54.109375 11.28125 
L 54.109375 2.78125 
Q 49.265625 0.734375 44.1875 -0.34375 
Q 39.109375 -1.421875 33.890625 -1.421875 
Q 20.796875 -1.421875 13.15625 6.1875 
Q 5.515625 13.8125 5.515625 26.8125 
Q 5.515625 40.234375 12.765625 48.109375 
Q 20.015625 56 32.328125 56 
Q 43.359375 56 49.78125 48.890625 
Q 56.203125 41.796875 56.203125 29.59375 
z
M 47.21875 32.234375 
Q 47.125 39.59375 43.09375 43.984375 
Q 39.0625 48.390625 32.421875 48.390625 
Q 24.90625 48.390625 20.390625 44.140625 
Q 15.875 39.890625 15.1875 32.171875 
z
" id="DejaVuSans-101"/>
      <path d="M 45.40625 46.390625 
L 45.40625 75.984375 
L 54.390625 75.984375 
L 54.390625 0 
L 45.40625 0 
L 45.40625 8.203125 
Q 42.578125 3.328125 38.25 0.953125 
Q 33.9375 -1.421875 27.875 -1.421875 
Q 17.96875 -1.421875 11.734375 6.484375 
Q 5.515625 14.40625 5.515625 27.296875 
Q 5.515625 40.1875 11.734375 48.09375 
Q 17.96875 56 27.875 56 
Q 33.9375 56 38.25 53.625 
Q 42.578125 51.265625 45.40625 46.390625 
z
M 14.796875 27.296875 
Q 14.796875 17.390625 18.875 11.75 
Q 22.953125 6.109375 30.078125 6.109375 
Q 37.203125 6.109375 41.296875 11.75 
Q 45.40625 17.390625 45.40625 27.296875 
Q 45.40625 37.203125 41.296875 42.84375 
Q 37.203125 48.484375 30.078125 48.484375 
Q 22.953125 48.484375 18.875 42.84375 
Q 14.796875 37.203125 14.796875 27.296875 
z
" id="DejaVuSans-100"/>
     </defs>
     <use xlink:href="#DejaVuSans-115"/>
     <use x="52.099609" xlink:href="#DejaVuSans-109"/>
     <use x="149.511719" xlink:href="#DejaVuSans-111"/>
     <use x="210.693359" xlink:href="#DejaVuSans-111"/>
     <use x="271.875" xlink:href="#DejaVuSans-116"/>
     <use x="311.083984" xlink:href="#DejaVuSans-104"/>
     <use x="374.462891" xlink:href="#DejaVuSans-101"/>
     <use x="435.986328" xlink:href="#DejaVuSans-100"/>
    </g>
   </g>
  </g>
  <g id="axes_3">
   <g id="patch_12">
    <path d="M 172.8 624.78 
L 1244.16 624.78 
L 1244.16 465.797647 
L 172.8 465.797647 
z
" style="fill:#ffffff;"/>
   </g>
   <g id="PathCollection_1">
    <defs>
     <path d="M 0 3 
C 0.795609 3 1.55874 2.683901 2.12132 2.12132 
C 2.683901 1.55874 3 0.795609 3 0 
C 3 -0.795609 2.683901 -1.55874 2.12132 -2.12132 
C 1.55874 -2.683901 0.795609 -3 0 -3 
C -0.795609 -3 -1.55874 -2.683901 -2.12132 -2.12132 
C -2.683901 -1.55874 -3 -0.795609 -3 0 
C -3 0.795609 -2.683901 1.55874 -2.12132 2.12132 
C -1.55874 2.683901 -0.795609 3 0 3 
z
" id="ma8ae359d2a" style="stroke:#ff0000;"/>
    </defs>
    <g clip-path="url(#pcd907e29a2)">
     <use style="fill:#ff0000;stroke:#ff0000;" x="850.986258" xlink:href="#ma8ae359d2a" y="544.014816"/>
    </g>
   </g>
   <g id="matplotlib.axis_5">
    <g id="xtick_11">
     <g id="line2d_25">
      <g>
       <use style="stroke:#000000;stroke-width:0.8;" x="221.498182" xlink:href="#m73a25100d0" y="624.78"/>
      </g>
     </g>
     <g id="text_25">
      <!-- 0 -->
      <g transform="translate(218.316932 639.378438)scale(0.1 -0.1)">
       <use xlink:href="#DejaVuSans-48"/>
      </g>
     </g>
    </g>
    <g id="xtick_12">
     <g id="line2d_26">
      <g>
       <use style="stroke:#000000;stroke-width:0.8;" x="426.543158" xlink:href="#m73a25100d0" y="624.78"/>
      </g>
     </g>
     <g id="text_26">
      <!-- 100 -->
      <g transform="translate(416.999408 639.378438)scale(0.1 -0.1)">
       <use xlink:href="#DejaVuSans-49"/>
       <use x="63.623047" xlink:href="#DejaVuSans-48"/>
       <use x="127.246094" xlink:href="#DejaVuSans-48"/>
      </g>
     </g>
    </g>
    <g id="xtick_13">
     <g id="line2d_27">
      <g>
       <use style="stroke:#000000;stroke-width:0.8;" x="631.588134" xlink:href="#m73a25100d0" y="624.78"/>
      </g>
     </g>
     <g id="text_27">
      <!-- 200 -->
      <g transform="translate(622.044384 639.378438)scale(0.1 -0.1)">
       <use xlink:href="#DejaVuSans-50"/>
       <use x="63.623047" xlink:href="#DejaVuSans-48"/>
       <use x="127.246094" xlink:href="#DejaVuSans-48"/>
      </g>
     </g>
    </g>
    <g id="xtick_14">
     <g id="line2d_28">
      <g>
       <use style="stroke:#000000;stroke-width:0.8;" x="836.63311" xlink:href="#m73a25100d0" y="624.78"/>
      </g>
     </g>
     <g id="text_28">
      <!-- 300 -->
      <g transform="translate(827.08936 639.378438)scale(0.1 -0.1)">
       <use xlink:href="#DejaVuSans-51"/>
       <use x="63.623047" xlink:href="#DejaVuSans-48"/>
       <use x="127.246094" xlink:href="#DejaVuSans-48"/>
      </g>
     </g>
    </g>
    <g id="xtick_15">
     <g id="line2d_29">
      <g>
       <use style="stroke:#000000;stroke-width:0.8;" x="1041.678086" xlink:href="#m73a25100d0" y="624.78"/>
      </g>
     </g>
     <g id="text_29">
      <!-- 400 -->
      <g transform="translate(1032.134336 639.378438)scale(0.1 -0.1)">
       <use xlink:href="#DejaVuSans-52"/>
       <use x="63.623047" xlink:href="#DejaVuSans-48"/>
       <use x="127.246094" xlink:href="#DejaVuSans-48"/>
      </g>
     </g>
    </g>
   </g>
   <g id="matplotlib.axis_6">
    <g id="ytick_13">
     <g id="line2d_30">
      <g>
       <use style="stroke:#000000;stroke-width:0.8;" x="172.8" xlink:href="#m46c02f7812" y="585.982123"/>
      </g>
     </g>
     <g id="text_30">
      <!-- −100 -->
      <g transform="translate(138.332812 589.781342)scale(0.1 -0.1)">
       <defs>
        <path d="M 10.59375 35.5 
L 73.1875 35.5 
L 73.1875 27.203125 
L 10.59375 27.203125 
z
" id="DejaVuSans-8722"/>
       </defs>
       <use xlink:href="#DejaVuSans-8722"/>
       <use x="83.789062" xlink:href="#DejaVuSans-49"/>
       <use x="147.412109" xlink:href="#DejaVuSans-48"/>
       <use x="211.035156" xlink:href="#DejaVuSans-48"/>
      </g>
     </g>
    </g>
    <g id="ytick_14">
     <g id="line2d_31">
      <g>
       <use style="stroke:#000000;stroke-width:0.8;" x="172.8" xlink:href="#m46c02f7812" y="544.014816"/>
      </g>
     </g>
     <g id="text_31">
      <!-- 0 -->
      <g transform="translate(159.4375 547.814035)scale(0.1 -0.1)">
       <use xlink:href="#DejaVuSans-48"/>
      </g>
     </g>
    </g>
    <g id="ytick_15">
     <g id="line2d_32">
      <g>
       <use style="stroke:#000000;stroke-width:0.8;" x="172.8" xlink:href="#m46c02f7812" y="502.047508"/>
      </g>
     </g>
     <g id="text_32">
      <!-- 100 -->
      <g transform="translate(146.7125 505.846727)scale(0.1 -0.1)">
       <use xlink:href="#DejaVuSans-49"/>
       <use x="63.623047" xlink:href="#DejaVuSans-48"/>
       <use x="127.246094" xlink:href="#DejaVuSans-48"/>
      </g>
     </g>
    </g>
   </g>
   <g id="line2d_33">
    <path clip-path="url(#pcd907e29a2)" d="M 221.498182 542.629895 
L 223.548632 542.671862 
L 227.649531 543.99683 
L 229.699981 544.188681 
L 233.80088 543.876923 
L 235.85133 543.978844 
L 237.90178 544.314582 
L 239.95223 544.200671 
L 242.002679 543.739031 
L 244.053129 543.439264 
L 246.103579 543.751021 
L 248.154029 544.27861 
L 250.204478 544.518424 
L 252.254928 544.542405 
L 258.406278 544.014816 
L 260.456727 543.751021 
L 262.507177 543.739031 
L 266.608077 544.050788 
L 276.860325 543.978844 
L 283.011675 544.404512 
L 287.112574 544.104746 
L 289.163024 544.104746 
L 291.213474 544.290601 
L 293.263923 544.314582 
L 297.364823 543.511208 
L 299.415273 543.349334 
L 301.465722 543.613129 
L 303.516172 544.050788 
L 305.566622 544.326573 
L 315.818871 544.014816 
L 319.91977 544.002825 
L 326.07112 543.739031 
L 330.172019 544.050788 
L 338.373818 544.014816 
L 344.525167 543.924886 
L 348.626067 543.349334 
L 350.676517 543.511208 
L 352.726967 543.924886 
L 354.777416 544.188681 
L 356.827866 544.050788 
L 360.928766 543.613129 
L 362.979215 543.613129 
L 365.029665 543.858937 
L 369.130565 543.63711 
L 371.181014 543.361325 
L 373.231464 543.601138 
L 377.332364 544.866153 
L 379.382813 544.71627 
L 381.433263 543.942872 
L 383.483713 543.63711 
L 385.534163 543.463246 
L 389.635062 543.972849 
L 391.685512 543.924886 
L 395.786411 543.63711 
L 397.836861 543.936877 
L 401.937761 544.08676 
L 403.988211 543.751021 
L 406.03866 543.703059 
L 412.19001 544.566386 
L 414.240459 544.404512 
L 416.290909 544.128727 
L 418.341359 543.715049 
L 426.543158 543.912895 
L 428.593608 543.942872 
L 432.694507 544.692288 
L 434.744957 544.680298 
L 440.896306 543.439264 
L 442.946756 543.703059 
L 444.997206 544.362545 
L 447.047656 544.464466 
L 451.148555 543.451255 
L 453.199005 543.565166 
L 457.299904 544.830181 
L 459.350354 544.806199 
L 465.501703 543.541185 
L 467.552153 543.565166 
L 471.653053 544.81819 
L 473.703502 544.782218 
L 477.804402 543.840951 
L 479.854852 543.804979 
L 486.006201 544.36854 
L 488.056651 544.518424 
L 490.1071 544.416503 
L 492.15755 544.104746 
L 494.208 543.978844 
L 502.409799 544.014816 
L 518.813397 544.050788 
L 522.914297 543.739031 
L 524.964746 543.751021 
L 529.065646 544.27861 
L 531.116096 544.290601 
L 533.166545 544.17669 
L 539.317895 543.385306 
L 543.418794 543.523199 
L 545.469244 543.685073 
L 549.570144 543.739031 
L 555.721493 544.602358 
L 559.822392 543.888914 
L 561.872842 543.325353 
L 563.923292 543.511208 
L 568.024191 544.236643 
L 570.074641 544.08676 
L 572.125091 543.577157 
L 574.175541 543.511208 
L 576.22599 543.661092 
L 578.27644 543.948867 
L 582.37734 543.583152 
L 584.427789 543.259404 
L 586.478239 543.247414 
L 590.579139 543.697064 
L 592.629589 543.948867 
L 596.730488 543.583152 
L 598.780938 543.259404 
L 604.932287 543.349334 
L 606.982737 543.792989 
L 609.033187 544.782218 
L 611.083636 545.585592 
L 613.134086 545.53763 
L 615.184536 544.782218 
L 617.234986 543.733035 
L 619.285435 543.571162 
L 623.386335 545.219877 
L 625.436785 545.135943 
L 629.537684 543.930881 
L 631.588134 543.894909 
L 633.638584 544.326573 
L 635.689033 544.326573 
L 637.739483 544.038797 
L 639.789933 543.571162 
L 641.840383 542.983619 
L 643.890833 542.869708 
L 645.941282 543.145493 
L 647.991732 543.834956 
L 650.042182 544.074769 
L 652.092632 544.050788 
L 654.143081 543.828961 
L 656.193531 543.990835 
L 658.243981 544.404512 
L 660.294431 544.518424 
L 664.39533 544.230648 
L 666.44578 544.218657 
L 670.546679 544.416503 
L 672.597129 544.290601 
L 674.647579 544.038797 
L 678.748478 543.109521 
L 680.798928 543.109521 
L 684.899828 543.948867 
L 686.950278 543.924886 
L 689.000727 543.751021 
L 693.101627 544.056783 
L 695.152077 543.403292 
L 697.202526 542.060339 
L 699.252976 541.358885 
L 701.303426 541.059118 
L 703.353876 539.90202 
L 705.404325 536.514659 
L 707.454775 534.014606 
L 709.505225 533.295167 
L 711.555675 531.340689 
L 713.606124 529.218342 
L 715.656574 530.315488 
L 717.707024 535.62735 
L 719.757474 544.44648 
L 721.807923 545.022031 
L 723.858373 540.4416 
L 725.908823 530.291506 
L 727.959273 518.828436 
L 730.009722 511.358255 
L 732.060172 523.252989 
L 734.110622 543.53519 
L 736.161072 554.992265 
L 738.211522 552.396287 
L 740.261971 541.26296 
L 742.312421 531.08289 
L 744.362871 531.010946 
L 746.413321 538.301267 
L 748.46377 519.062254 
L 750.51422 505.782599 
L 752.56467 508.9901 
L 754.61512 550.969398 
L 756.665569 583.991674 
L 758.716019 588.452199 
L 760.766469 554.518634 
L 762.816919 500.62062 
L 764.867368 477.16689 
L 766.917818 473.024118 
L 768.968268 497.970684 
L 771.018718 512.131653 
L 773.069167 533.594933 
L 775.119617 564.806619 
L 777.170067 585.292661 
L 779.220517 578.979578 
L 781.270967 529.955768 
L 783.321416 497.419114 
L 785.371866 497.688904 
L 787.422316 517.323608 
L 789.472766 529.769913 
L 791.523215 535.705289 
L 793.573665 546.388967 
L 795.624115 542.935657 
L 797.674565 547.791874 
L 799.725014 552.288371 
L 801.775464 550.130052 
L 803.825914 548.331453 
L 805.876364 553.289591 
L 807.926813 573.272025 
L 809.977263 590.946256 
L 812.027713 587.546905 
L 814.078163 554.230858 
L 816.128612 528.768693 
L 818.179062 527.593608 
L 820.229512 548.061663 
L 822.279962 569.998575 
L 824.330411 569.974593 
L 826.380861 540.36366 
L 828.431311 513.726411 
L 830.481761 506.394122 
L 834.58266 538.247309 
L 836.63311 534.074559 
L 838.68356 520.603054 
L 840.73401 515.375126 
L 842.784459 527.569627 
L 844.834909 543.769007 
L 846.885359 582.600758 
L 848.935809 614.304061 
L 850.986258 601.869747 
L 853.036708 554.045002 
L 855.087158 528.882604 
L 857.137608 559.938412 
L 859.188057 603.842211 
L 861.238507 588.038522 
L 863.288957 525.573182 
L 865.339407 473.875454 
L 867.389856 478.833592 
L 871.490756 573.937506 
L 873.541206 590.544569 
L 875.591656 562.156683 
L 877.642105 521.62226 
L 879.692555 492.347065 
L 881.743005 504.907281 
L 883.793455 542.833736 
L 885.843904 566.605218 
L 887.894354 564.464885 
L 889.944804 562.528394 
L 891.995254 560.016351 
L 894.045703 567.978149 
L 896.096153 564.003245 
L 898.146603 550.729585 
L 900.197053 543.217437 
L 902.247502 542.99561 
L 904.297952 526.826206 
L 906.348402 503.000766 
L 908.398852 505.500818 
L 910.449301 525.723065 
L 912.499751 541.18502 
L 914.550201 530.843077 
L 916.600651 511.699989 
L 918.6511 506.550001 
L 920.70155 525.495243 
L 922.752 538.654991 
L 924.80245 546.029247 
L 926.8529 544.014816 
L 955.559196 544.014816 
L 957.609646 543.655096 
L 959.660096 545.273835 
L 961.710545 545.297817 
L 963.760995 548.36143 
L 965.811445 562.876123 
L 967.861895 589.567331 
L 969.912344 613.164948 
L 971.962794 617.553529 
L 974.013244 598.794143 
L 976.063694 571.977033 
L 978.114144 558.883234 
L 980.164593 554.518634 
L 982.215043 544.902125 
L 984.265493 528.774688 
L 986.315943 520.53111 
L 988.366392 513.696434 
L 990.416842 510.788699 
L 992.467292 510.410993 
L 994.517742 524.434069 
L 996.568191 555.26805 
L 998.618641 583.72788 
L 1000.669091 594.363594 
L 1002.719541 586.048072 
L 1004.76999 576.581447 
L 1006.82044 565.496082 
L 1008.87089 558.805294 
L 1010.92134 556.143368 
L 1012.971789 555.310017 
L 1015.022239 556.353204 
L 1017.072689 556.257279 
L 1019.123139 554.770437 
L 1021.173589 550.417828 
L 1023.224038 545.54962 
L 1025.274488 544.860157 
L 1029.375388 534.865943 
L 1031.425837 533.660882 
L 1033.476287 543.271395 
L 1035.526737 557.09063 
L 1037.577187 562.684272 
L 1039.627636 557.306462 
L 1041.678086 546.466906 
L 1043.728536 542.611909 
L 1045.778986 543.145493 
L 1049.879885 547.647986 
L 1051.930335 548.061663 
L 1053.980785 546.586812 
L 1056.031234 544.776223 
L 1058.081684 542.521979 
L 1060.132134 543.235423 
L 1062.182584 544.272615 
L 1064.233033 544.722265 
L 1066.283483 542.330128 
L 1068.333933 539.134618 
L 1070.384383 539.866048 
L 1072.434833 542.569942 
L 1074.485282 546.317023 
L 1076.535732 546.784658 
L 1078.586182 546.868593 
L 1080.636632 546.233088 
L 1082.687081 545.171915 
L 1086.787981 540.819305 
L 1088.838431 541.934437 
L 1090.88888 543.289381 
L 1092.93933 543.894909 
L 1094.98978 543.211442 
L 1097.04023 543.72704 
L 1101.141129 546.083205 
L 1105.242029 547.354215 
L 1107.292478 548.409393 
L 1109.342928 547.600023 
L 1111.393378 546.323018 
L 1113.443828 545.753462 
L 1115.494278 546.55084 
L 1117.544727 546.436929 
L 1119.595177 545.345779 
L 1121.645627 545.016036 
L 1125.746526 545.465686 
L 1127.796976 543.301372 
L 1129.847426 541.928441 
L 1131.897876 542.09631 
L 1133.948325 543.63711 
L 1135.998775 544.788214 
L 1138.049225 544.992055 
L 1140.099675 544.90812 
L 1142.150124 544.236643 
L 1144.200574 543.882919 
L 1146.251024 544.290601 
L 1148.301474 546.17913 
L 1150.351923 547.00049 
L 1152.402373 545.609574 
L 1154.452823 543.18746 
L 1156.503273 541.496778 
L 1158.553722 542.156264 
L 1160.604172 543.409288 
L 1162.654622 544.794209 
L 1164.705072 545.579597 
L 1168.805971 546.874588 
L 1170.856421 546.472901 
L 1172.906871 545.615569 
L 1174.957321 544.140718 
L 1177.00777 543.9069 
L 1179.05822 544.36854 
L 1181.10867 544.620344 
L 1183.15912 544.578377 
L 1185.209569 544.080765 
L 1187.260019 544.092755 
L 1189.310469 548.613234 
L 1191.360919 550.747571 
L 1193.411368 544.014816 
L 1195.461818 544.014816 
L 1195.461818 544.014816 
" style="fill:none;stroke:#1f77b4;stroke-linecap:square;stroke-width:1.5;"/>
   </g>
   <g id="patch_13">
    <path d="M 172.8 624.78 
L 172.8 465.797647 
" style="fill:none;stroke:#000000;stroke-linecap:square;stroke-linejoin:miter;stroke-width:0.8;"/>
   </g>
   <g id="patch_14">
    <path d="M 1244.16 624.78 
L 1244.16 465.797647 
" style="fill:none;stroke:#000000;stroke-linecap:square;stroke-linejoin:miter;stroke-width:0.8;"/>
   </g>
   <g id="patch_15">
    <path d="M 172.8 624.78 
L 1244.16 624.78 
" style="fill:none;stroke:#000000;stroke-linecap:square;stroke-linejoin:miter;stroke-width:0.8;"/>
   </g>
   <g id="patch_16">
    <path d="M 172.8 465.797647 
L 1244.16 465.797647 
" style="fill:none;stroke:#000000;stroke-linecap:square;stroke-linejoin:miter;stroke-width:0.8;"/>
   </g>
   <g id="text_33">
    <!-- derivative -->
    <g transform="translate(223.343587 543.804979)scale(0.1 -0.1)">
     <defs>
      <path d="M 9.421875 54.6875 
L 18.40625 54.6875 
L 18.40625 0 
L 9.421875 0 
z
M 9.421875 75.984375 
L 18.40625 75.984375 
L 18.40625 64.59375 
L 9.421875 64.59375 
z
" id="DejaVuSans-105"/>
      <path d="M 2.984375 54.6875 
L 12.5 54.6875 
L 29.59375 8.796875 
L 46.6875 54.6875 
L 56.203125 54.6875 
L 35.6875 0 
L 23.484375 0 
z
" id="DejaVuSans-118"/>
     </defs>
     <use xlink:href="#DejaVuSans-100"/>
     <use x="63.476562" xlink:href="#DejaVuSans-101"/>
     <use x="125" xlink:href="#DejaVuSans-114"/>
     <use x="166.113281" xlink:href="#DejaVuSans-105"/>
     <use x="193.896484" xlink:href="#DejaVuSans-118"/>
     <use x="253.076172" xlink:href="#DejaVuSans-97"/>
     <use x="314.355469" xlink:href="#DejaVuSans-116"/>
     <use x="353.564453" xlink:href="#DejaVuSans-105"/>
     <use x="381.347656" xlink:href="#DejaVuSans-118"/>
     <use x="440.527344" xlink:href="#DejaVuSans-101"/>
    </g>
   </g>
  </g>
 </g>
 <defs>
  <clipPath id="p7ff43183e3">
   <rect height="158.982353" width="1071.36" x="172.8" y="84.24"/>
  </clipPath>
  <clipPath id="paa95199e94">
   <rect height="158.982353" width="1071.36" x="172.8" y="275.018824"/>
  </clipPath>
  <clipPath id="pcd907e29a2">
   <rect height="158.982353" width="1071.36" x="172.8" y="465.797647"/>
  </clipPath>
 </defs>
</svg>
