<?xml version="1.0" encoding="utf-8" standalone="no"?>
<!DOCTYPE svg PUBLIC "-//W3C//DTD SVG 1.1//EN"
  "http://www.w3.org/Graphics/SVG/1.1/DTD/svg11.dtd">
<!-- Created with matplotlib (https://matplotlib.org/) -->
<svg height="702pt" version="1.1" viewBox="0 0 1382.4 702" width="1382.4pt" xmlns="http://www.w3.org/2000/svg" xmlns:xlink="http://www.w3.org/1999/xlink">
 <metadata>
  <rdf:RDF xmlns:cc="http://creativecommons.org/ns#" xmlns:dc="http://purl.org/dc/elements/1.1/" xmlns:rdf="http://www.w3.org/1999/02/22-rdf-syntax-ns#">
   <cc:Work>
    <dc:type rdf:resource="http://purl.org/dc/dcmitype/StillImage"/>
    <dc:date>2021-12-01T12:51:22.594722</dc:date>
    <dc:format>image/svg+xml</dc:format>
    <dc:creator>
     <cc:Agent>
      <dc:title>Matplotlib v3.3.4, https://matplotlib.org/</dc:title>
     </cc:Agent>
    </dc:creator>
   </cc:Work>
  </rdf:RDF>
 </metadata>
 <defs>
  <style type="text/css">*{stroke-linecap:butt;stroke-linejoin:round;}</style>
 </defs>
 <g id="figure_1">
  <g id="patch_1">
   <path d="M 0 702 
L 1382.4 702 
L 1382.4 0 
L 0 0 
z
" style="fill:#ffffff;"/>
  </g>
  <g id="axes_1">
   <g id="patch_2">
    <path d="M 172.8 243.222353 
L 1244.16 243.222353 
L 1244.16 84.24 
L 172.8 84.24 
z
" style="fill:#ffffff;"/>
   </g>
   <g id="matplotlib.axis_1">
    <g id="xtick_1">
     <g id="line2d_1">
      <defs>
       <path d="M 0 0 
L 0 3.5 
" id="mf9011c7535" style="stroke:#000000;stroke-width:0.8;"/>
      </defs>
      <g>
       <use style="stroke:#000000;stroke-width:0.8;" x="221.498182" xlink:href="#mf9011c7535" y="243.222353"/>
      </g>
     </g>
     <g id="text_1">
      <!-- 0 -->
      <g transform="translate(218.316932 257.82079)scale(0.1 -0.1)">
       <defs>
        <path d="M 31.78125 66.40625 
Q 24.171875 66.40625 20.328125 58.90625 
Q 16.5 51.421875 16.5 36.375 
Q 16.5 21.390625 20.328125 13.890625 
Q 24.171875 6.390625 31.78125 6.390625 
Q 39.453125 6.390625 43.28125 13.890625 
Q 47.125 21.390625 47.125 36.375 
Q 47.125 51.421875 43.28125 58.90625 
Q 39.453125 66.40625 31.78125 66.40625 
z
M 31.78125 74.21875 
Q 44.046875 74.21875 50.515625 64.515625 
Q 56.984375 54.828125 56.984375 36.375 
Q 56.984375 17.96875 50.515625 8.265625 
Q 44.046875 -1.421875 31.78125 -1.421875 
Q 19.53125 -1.421875 13.0625 8.265625 
Q 6.59375 17.96875 6.59375 36.375 
Q 6.59375 54.828125 13.0625 64.515625 
Q 19.53125 74.21875 31.78125 74.21875 
z
" id="DejaVuSans-48"/>
       </defs>
       <use xlink:href="#DejaVuSans-48"/>
      </g>
     </g>
    </g>
    <g id="xtick_2">
     <g id="line2d_2">
      <g>
       <use style="stroke:#000000;stroke-width:0.8;" x="433.229407" xlink:href="#mf9011c7535" y="243.222353"/>
      </g>
     </g>
     <g id="text_2">
      <!-- 50 -->
      <g transform="translate(426.866907 257.82079)scale(0.1 -0.1)">
       <defs>
        <path d="M 10.796875 72.90625 
L 49.515625 72.90625 
L 49.515625 64.59375 
L 19.828125 64.59375 
L 19.828125 46.734375 
Q 21.96875 47.46875 24.109375 47.828125 
Q 26.265625 48.1875 28.421875 48.1875 
Q 40.625 48.1875 47.75 41.5 
Q 54.890625 34.8125 54.890625 23.390625 
Q 54.890625 11.625 47.5625 5.09375 
Q 40.234375 -1.421875 26.90625 -1.421875 
Q 22.3125 -1.421875 17.546875 -0.640625 
Q 12.796875 0.140625 7.71875 1.703125 
L 7.71875 11.625 
Q 12.109375 9.234375 16.796875 8.0625 
Q 21.484375 6.890625 26.703125 6.890625 
Q 35.15625 6.890625 40.078125 11.328125 
Q 45.015625 15.765625 45.015625 23.390625 
Q 45.015625 31 40.078125 35.4375 
Q 35.15625 39.890625 26.703125 39.890625 
Q 22.75 39.890625 18.8125 39.015625 
Q 14.890625 38.140625 10.796875 36.28125 
z
" id="DejaVuSans-53"/>
       </defs>
       <use xlink:href="#DejaVuSans-53"/>
       <use x="63.623047" xlink:href="#DejaVuSans-48"/>
      </g>
     </g>
    </g>
    <g id="xtick_3">
     <g id="line2d_3">
      <g>
       <use style="stroke:#000000;stroke-width:0.8;" x="644.960632" xlink:href="#mf9011c7535" y="243.222353"/>
      </g>
     </g>
     <g id="text_3">
      <!-- 100 -->
      <g transform="translate(635.416882 257.82079)scale(0.1 -0.1)">
       <defs>
        <path d="M 12.40625 8.296875 
L 28.515625 8.296875 
L 28.515625 63.921875 
L 10.984375 60.40625 
L 10.984375 69.390625 
L 28.421875 72.90625 
L 38.28125 72.90625 
L 38.28125 8.296875 
L 54.390625 8.296875 
L 54.390625 0 
L 12.40625 0 
z
" id="DejaVuSans-49"/>
       </defs>
       <use xlink:href="#DejaVuSans-49"/>
       <use x="63.623047" xlink:href="#DejaVuSans-48"/>
       <use x="127.246094" xlink:href="#DejaVuSans-48"/>
      </g>
     </g>
    </g>
    <g id="xtick_4">
     <g id="line2d_4">
      <g>
       <use style="stroke:#000000;stroke-width:0.8;" x="856.691858" xlink:href="#mf9011c7535" y="243.222353"/>
      </g>
     </g>
     <g id="text_4">
      <!-- 150 -->
      <g transform="translate(847.148108 257.82079)scale(0.1 -0.1)">
       <use xlink:href="#DejaVuSans-49"/>
       <use x="63.623047" xlink:href="#DejaVuSans-53"/>
       <use x="127.246094" xlink:href="#DejaVuSans-48"/>
      </g>
     </g>
    </g>
    <g id="xtick_5">
     <g id="line2d_5">
      <g>
       <use style="stroke:#000000;stroke-width:0.8;" x="1068.423083" xlink:href="#mf9011c7535" y="243.222353"/>
      </g>
     </g>
     <g id="text_5">
      <!-- 200 -->
      <g transform="translate(1058.879333 257.82079)scale(0.1 -0.1)">
       <defs>
        <path d="M 19.1875 8.296875 
L 53.609375 8.296875 
L 53.609375 0 
L 7.328125 0 
L 7.328125 8.296875 
Q 12.9375 14.109375 22.625 23.890625 
Q 32.328125 33.6875 34.8125 36.53125 
Q 39.546875 41.84375 41.421875 45.53125 
Q 43.3125 49.21875 43.3125 52.78125 
Q 43.3125 58.59375 39.234375 62.25 
Q 35.15625 65.921875 28.609375 65.921875 
Q 23.96875 65.921875 18.8125 64.3125 
Q 13.671875 62.703125 7.8125 59.421875 
L 7.8125 69.390625 
Q 13.765625 71.78125 18.9375 73 
Q 24.125 74.21875 28.421875 74.21875 
Q 39.75 74.21875 46.484375 68.546875 
Q 53.21875 62.890625 53.21875 53.421875 
Q 53.21875 48.921875 51.53125 44.890625 
Q 49.859375 40.875 45.40625 35.40625 
Q 44.1875 33.984375 37.640625 27.21875 
Q 31.109375 20.453125 19.1875 8.296875 
z
" id="DejaVuSans-50"/>
       </defs>
       <use xlink:href="#DejaVuSans-50"/>
       <use x="63.623047" xlink:href="#DejaVuSans-48"/>
       <use x="127.246094" xlink:href="#DejaVuSans-48"/>
      </g>
     </g>
    </g>
   </g>
   <g id="matplotlib.axis_2">
    <g id="ytick_1">
     <g id="line2d_6">
      <defs>
       <path d="M 0 0 
L -3.5 0 
" id="m48fde4e051" style="stroke:#000000;stroke-width:0.8;"/>
      </defs>
      <g>
       <use style="stroke:#000000;stroke-width:0.8;" x="172.8" xlink:href="#m48fde4e051" y="240.676997"/>
      </g>
     </g>
     <g id="text_6">
      <!-- 0 -->
      <g transform="translate(159.4375 244.476216)scale(0.1 -0.1)">
       <use xlink:href="#DejaVuSans-48"/>
      </g>
     </g>
    </g>
    <g id="ytick_2">
     <g id="line2d_7">
      <g>
       <use style="stroke:#000000;stroke-width:0.8;" x="172.8" xlink:href="#m48fde4e051" y="211.420031"/>
      </g>
     </g>
     <g id="text_7">
      <!-- 50 -->
      <g transform="translate(153.075 215.21925)scale(0.1 -0.1)">
       <use xlink:href="#DejaVuSans-53"/>
       <use x="63.623047" xlink:href="#DejaVuSans-48"/>
      </g>
     </g>
    </g>
    <g id="ytick_3">
     <g id="line2d_8">
      <g>
       <use style="stroke:#000000;stroke-width:0.8;" x="172.8" xlink:href="#m48fde4e051" y="182.163065"/>
      </g>
     </g>
     <g id="text_8">
      <!-- 100 -->
      <g transform="translate(146.7125 185.962284)scale(0.1 -0.1)">
       <use xlink:href="#DejaVuSans-49"/>
       <use x="63.623047" xlink:href="#DejaVuSans-48"/>
       <use x="127.246094" xlink:href="#DejaVuSans-48"/>
      </g>
     </g>
    </g>
    <g id="ytick_4">
     <g id="line2d_9">
      <g>
       <use style="stroke:#000000;stroke-width:0.8;" x="172.8" xlink:href="#m48fde4e051" y="152.906099"/>
      </g>
     </g>
     <g id="text_9">
      <!-- 150 -->
      <g transform="translate(146.7125 156.705318)scale(0.1 -0.1)">
       <use xlink:href="#DejaVuSans-49"/>
       <use x="63.623047" xlink:href="#DejaVuSans-53"/>
       <use x="127.246094" xlink:href="#DejaVuSans-48"/>
      </g>
     </g>
    </g>
    <g id="ytick_5">
     <g id="line2d_10">
      <g>
       <use style="stroke:#000000;stroke-width:0.8;" x="172.8" xlink:href="#m48fde4e051" y="123.649133"/>
      </g>
     </g>
     <g id="text_10">
      <!-- 200 -->
      <g transform="translate(146.7125 127.448352)scale(0.1 -0.1)">
       <use xlink:href="#DejaVuSans-50"/>
       <use x="63.623047" xlink:href="#DejaVuSans-48"/>
       <use x="127.246094" xlink:href="#DejaVuSans-48"/>
      </g>
     </g>
    </g>
    <g id="ytick_6">
     <g id="line2d_11">
      <g>
       <use style="stroke:#000000;stroke-width:0.8;" x="172.8" xlink:href="#m48fde4e051" y="94.392167"/>
      </g>
     </g>
     <g id="text_11">
      <!-- 250 -->
      <g transform="translate(146.7125 98.191386)scale(0.1 -0.1)">
       <use xlink:href="#DejaVuSans-50"/>
       <use x="63.623047" xlink:href="#DejaVuSans-53"/>
       <use x="127.246094" xlink:href="#DejaVuSans-48"/>
      </g>
     </g>
    </g>
   </g>
   <g id="line2d_12">
    <path clip-path="url(#pa299626727)" d="M 221.498182 235.995882 
L 229.967431 235.995882 
L 234.202055 235.410743 
L 238.43668 235.410743 
L 242.671304 235.995882 
L 263.844427 235.995882 
L 268.079051 235.410743 
L 272.313676 235.410743 
L 276.5483 235.995882 
L 293.486798 235.995882 
L 297.721423 235.410743 
L 301.956047 235.410743 
L 306.190672 234.825604 
L 314.659921 234.825604 
L 318.894545 234.240464 
L 335.833043 234.240464 
L 340.067668 234.825604 
L 348.536917 233.655325 
L 352.771542 233.655325 
L 357.006166 234.240464 
L 365.475415 234.240464 
L 369.71004 234.825604 
L 373.944664 234.240464 
L 378.179289 234.240464 
L 382.413913 235.410743 
L 386.648538 235.410743 
L 390.883162 234.825604 
L 395.117787 233.655325 
L 403.587036 234.825604 
L 407.82166 234.240464 
L 412.056285 234.240464 
L 416.290909 234.825604 
L 420.525534 233.655325 
L 424.760158 233.070186 
L 428.994783 233.655325 
L 433.229407 233.655325 
L 437.464032 232.485046 
L 441.698656 231.899907 
L 445.933281 232.485046 
L 454.40253 232.485046 
L 458.637154 233.070186 
L 462.871779 232.485046 
L 467.106403 232.485046 
L 471.341028 233.070186 
L 488.279526 233.070186 
L 492.51415 231.899907 
L 496.748775 232.485046 
L 500.983399 233.655325 
L 505.218024 233.655325 
L 509.452648 233.070186 
L 513.687273 233.655325 
L 517.921897 233.655325 
L 522.156522 232.485046 
L 526.391146 233.070186 
L 530.625771 234.240464 
L 534.860395 233.070186 
L 543.329644 228.389071 
L 547.564269 228.974211 
L 551.798893 228.389071 
L 556.033518 228.974211 
L 560.268142 230.144489 
L 564.502767 230.729628 
L 568.737391 231.899907 
L 577.20664 231.899907 
L 581.441265 228.974211 
L 585.675889 228.974211 
L 589.910514 226.048514 
L 594.145138 219.026842 
L 598.379763 223.122817 
L 602.614387 223.707957 
L 611.083636 229.55935 
L 615.318261 230.729628 
L 619.552885 227.803932 
L 623.78751 226.048514 
L 628.022134 230.144489 
L 632.256759 226.633653 
L 636.491383 227.218793 
L 640.726008 226.633653 
L 644.960632 224.878235 
L 649.195257 223.707957 
L 653.429881 225.463375 
L 657.664506 225.463375 
L 661.89913 220.78226 
L 666.133755 216.686285 
L 670.368379 217.271424 
L 674.603004 214.930867 
L 678.837628 213.175449 
L 683.072253 214.930867 
L 687.306877 207.909195 
L 691.541502 203.81322 
L 695.776126 203.81322 
L 700.010751 165.779164 
L 704.245375 111.361207 
L 708.48 91.466471 
L 733.887747 91.466471 
L 738.122372 101.413839 
L 742.356996 145.299288 
L 746.591621 183.918483 
L 755.06087 210.834892 
L 759.295494 206.153777 
L 763.530119 209.664613 
L 767.764743 217.856563 
L 771.999368 209.079474 
L 776.233992 214.930867 
L 780.468617 219.611981 
L 784.703241 218.441703 
L 788.937866 214.930867 
L 793.17249 213.760588 
L 797.407115 214.930867 
L 801.641739 214.930867 
L 805.876364 212.59031 
L 810.110988 217.856563 
L 818.580237 209.664613 
L 822.814862 213.760588 
L 827.049486 220.197121 
L 831.284111 220.197121 
L 835.518735 221.952539 
L 843.987984 224.293096 
L 848.222609 221.952539 
L 852.457233 221.952539 
L 856.691858 224.293096 
L 860.926482 221.952539 
L 869.395731 225.463375 
L 877.86498 226.633653 
L 890.568854 226.633653 
L 894.803478 224.878235 
L 899.038103 224.878235 
L 903.272727 225.463375 
L 907.507352 227.218793 
L 911.741976 224.878235 
L 915.976601 221.952539 
L 920.211225 227.803932 
L 924.44585 227.218793 
L 928.680474 228.389071 
L 932.915099 226.633653 
L 937.149723 225.463375 
L 941.384348 227.218793 
L 945.618972 228.389071 
L 949.853597 227.803932 
L 954.088221 228.974211 
L 958.322846 229.55935 
L 962.55747 230.729628 
L 971.026719 229.55935 
L 979.495968 229.55935 
L 983.730593 228.389071 
L 987.965217 228.389071 
L 992.199842 229.55935 
L 996.434466 230.144489 
L 1000.669091 229.55935 
L 1004.903715 229.55935 
L 1009.13834 228.974211 
L 1013.372964 229.55935 
L 1017.607589 228.389071 
L 1021.842213 227.803932 
L 1026.076838 228.389071 
L 1030.311462 228.389071 
L 1034.546087 227.218793 
L 1043.015336 230.729628 
L 1047.24996 230.729628 
L 1051.484585 229.55935 
L 1059.953834 230.729628 
L 1064.188458 230.144489 
L 1068.423083 228.389071 
L 1076.892332 230.729628 
L 1081.126957 229.55935 
L 1089.596206 230.729628 
L 1093.83083 228.389071 
L 1098.065455 227.803932 
L 1102.300079 229.55935 
L 1106.534704 228.974211 
L 1110.769328 230.144489 
L 1115.003953 230.729628 
L 1119.238577 230.729628 
L 1123.473202 231.314768 
L 1127.707826 231.314768 
L 1136.177075 230.144489 
L 1140.4117 230.144489 
L 1148.880949 231.314768 
L 1153.115573 230.144489 
L 1157.350198 229.55935 
L 1161.584822 230.729628 
L 1165.819447 230.729628 
L 1170.054071 231.899907 
L 1174.288696 231.314768 
L 1178.52332 230.144489 
L 1182.757945 231.314768 
L 1186.992569 230.144489 
L 1191.227194 230.729628 
L 1195.461818 230.729628 
L 1195.461818 230.729628 
" style="fill:none;stroke:#1f77b4;stroke-linecap:square;stroke-width:1.5;"/>
   </g>
   <g id="patch_3">
    <path d="M 172.8 243.222353 
L 172.8 84.24 
" style="fill:none;stroke:#000000;stroke-linecap:square;stroke-linejoin:miter;stroke-width:0.8;"/>
   </g>
   <g id="patch_4">
    <path d="M 1244.16 243.222353 
L 1244.16 84.24 
" style="fill:none;stroke:#000000;stroke-linecap:square;stroke-linejoin:miter;stroke-width:0.8;"/>
   </g>
   <g id="patch_5">
    <path d="M 172.8 243.222353 
L 1244.16 243.222353 
" style="fill:none;stroke:#000000;stroke-linecap:square;stroke-linejoin:miter;stroke-width:0.8;"/>
   </g>
   <g id="patch_6">
    <path d="M 172.8 84.24 
L 1244.16 84.24 
" style="fill:none;stroke:#000000;stroke-linecap:square;stroke-linejoin:miter;stroke-width:0.8;"/>
   </g>
   <g id="text_12">
    <!-- raw -->
    <g transform="translate(225.309344 240.384427)scale(0.1 -0.1)">
     <defs>
      <path d="M 41.109375 46.296875 
Q 39.59375 47.171875 37.8125 47.578125 
Q 36.03125 48 33.890625 48 
Q 26.265625 48 22.1875 43.046875 
Q 18.109375 38.09375 18.109375 28.8125 
L 18.109375 0 
L 9.078125 0 
L 9.078125 54.6875 
L 18.109375 54.6875 
L 18.109375 46.1875 
Q 20.953125 51.171875 25.484375 53.578125 
Q 30.03125 56 36.53125 56 
Q 37.453125 56 38.578125 55.875 
Q 39.703125 55.765625 41.0625 55.515625 
z
" id="DejaVuSans-114"/>
      <path d="M 34.28125 27.484375 
Q 23.390625 27.484375 19.1875 25 
Q 14.984375 22.515625 14.984375 16.5 
Q 14.984375 11.71875 18.140625 8.90625 
Q 21.296875 6.109375 26.703125 6.109375 
Q 34.1875 6.109375 38.703125 11.40625 
Q 43.21875 16.703125 43.21875 25.484375 
L 43.21875 27.484375 
z
M 52.203125 31.203125 
L 52.203125 0 
L 43.21875 0 
L 43.21875 8.296875 
Q 40.140625 3.328125 35.546875 0.953125 
Q 30.953125 -1.421875 24.3125 -1.421875 
Q 15.921875 -1.421875 10.953125 3.296875 
Q 6 8.015625 6 15.921875 
Q 6 25.140625 12.171875 29.828125 
Q 18.359375 34.515625 30.609375 34.515625 
L 43.21875 34.515625 
L 43.21875 35.40625 
Q 43.21875 41.609375 39.140625 45 
Q 35.0625 48.390625 27.6875 48.390625 
Q 23 48.390625 18.546875 47.265625 
Q 14.109375 46.140625 10.015625 43.890625 
L 10.015625 52.203125 
Q 14.9375 54.109375 19.578125 55.046875 
Q 24.21875 56 28.609375 56 
Q 40.484375 56 46.34375 49.84375 
Q 52.203125 43.703125 52.203125 31.203125 
z
" id="DejaVuSans-97"/>
      <path d="M 4.203125 54.6875 
L 13.1875 54.6875 
L 24.421875 12.015625 
L 35.59375 54.6875 
L 46.1875 54.6875 
L 57.421875 12.015625 
L 68.609375 54.6875 
L 77.59375 54.6875 
L 63.28125 0 
L 52.6875 0 
L 40.921875 44.828125 
L 29.109375 0 
L 18.5 0 
z
" id="DejaVuSans-119"/>
     </defs>
     <use xlink:href="#DejaVuSans-114"/>
     <use x="41.113281" xlink:href="#DejaVuSans-97"/>
     <use x="102.392578" xlink:href="#DejaVuSans-119"/>
    </g>
   </g>
  </g>
  <g id="axes_2">
   <g id="patch_7">
    <path d="M 172.8 434.001176 
L 1244.16 434.001176 
L 1244.16 275.018824 
L 172.8 275.018824 
z
" style="fill:#ffffff;"/>
   </g>
   <g id="matplotlib.axis_3">
    <g id="xtick_6">
     <g id="line2d_13">
      <g>
       <use style="stroke:#000000;stroke-width:0.8;" x="221.498182" xlink:href="#mf9011c7535" y="434.001176"/>
      </g>
     </g>
     <g id="text_13">
      <!-- 0 -->
      <g transform="translate(218.316932 448.599614)scale(0.1 -0.1)">
       <use xlink:href="#DejaVuSans-48"/>
      </g>
     </g>
    </g>
    <g id="xtick_7">
     <g id="line2d_14">
      <g>
       <use style="stroke:#000000;stroke-width:0.8;" x="433.229407" xlink:href="#mf9011c7535" y="434.001176"/>
      </g>
     </g>
     <g id="text_14">
      <!-- 50 -->
      <g transform="translate(426.866907 448.599614)scale(0.1 -0.1)">
       <use xlink:href="#DejaVuSans-53"/>
       <use x="63.623047" xlink:href="#DejaVuSans-48"/>
      </g>
     </g>
    </g>
    <g id="xtick_8">
     <g id="line2d_15">
      <g>
       <use style="stroke:#000000;stroke-width:0.8;" x="644.960632" xlink:href="#mf9011c7535" y="434.001176"/>
      </g>
     </g>
     <g id="text_15">
      <!-- 100 -->
      <g transform="translate(635.416882 448.599614)scale(0.1 -0.1)">
       <use xlink:href="#DejaVuSans-49"/>
       <use x="63.623047" xlink:href="#DejaVuSans-48"/>
       <use x="127.246094" xlink:href="#DejaVuSans-48"/>
      </g>
     </g>
    </g>
    <g id="xtick_9">
     <g id="line2d_16">
      <g>
       <use style="stroke:#000000;stroke-width:0.8;" x="856.691858" xlink:href="#mf9011c7535" y="434.001176"/>
      </g>
     </g>
     <g id="text_16">
      <!-- 150 -->
      <g transform="translate(847.148108 448.599614)scale(0.1 -0.1)">
       <use xlink:href="#DejaVuSans-49"/>
       <use x="63.623047" xlink:href="#DejaVuSans-53"/>
       <use x="127.246094" xlink:href="#DejaVuSans-48"/>
      </g>
     </g>
    </g>
    <g id="xtick_10">
     <g id="line2d_17">
      <g>
       <use style="stroke:#000000;stroke-width:0.8;" x="1068.423083" xlink:href="#mf9011c7535" y="434.001176"/>
      </g>
     </g>
     <g id="text_17">
      <!-- 200 -->
      <g transform="translate(1058.879333 448.599614)scale(0.1 -0.1)">
       <use xlink:href="#DejaVuSans-50"/>
       <use x="63.623047" xlink:href="#DejaVuSans-48"/>
       <use x="127.246094" xlink:href="#DejaVuSans-48"/>
      </g>
     </g>
    </g>
   </g>
   <g id="matplotlib.axis_4">
    <g id="ytick_7">
     <g id="line2d_18">
      <g>
       <use style="stroke:#000000;stroke-width:0.8;" x="172.8" xlink:href="#m48fde4e051" y="426.774706"/>
      </g>
     </g>
     <g id="text_18">
      <!-- 0 -->
      <g transform="translate(159.4375 430.573925)scale(0.1 -0.1)">
       <use xlink:href="#DejaVuSans-48"/>
      </g>
     </g>
    </g>
    <g id="ytick_8">
     <g id="line2d_19">
      <g>
       <use style="stroke:#000000;stroke-width:0.8;" x="172.8" xlink:href="#m48fde4e051" y="399.451891"/>
      </g>
     </g>
     <g id="text_19">
      <!-- 50 -->
      <g transform="translate(153.075 403.25111)scale(0.1 -0.1)">
       <use xlink:href="#DejaVuSans-53"/>
       <use x="63.623047" xlink:href="#DejaVuSans-48"/>
      </g>
     </g>
    </g>
    <g id="ytick_9">
     <g id="line2d_20">
      <g>
       <use style="stroke:#000000;stroke-width:0.8;" x="172.8" xlink:href="#m48fde4e051" y="372.129076"/>
      </g>
     </g>
     <g id="text_20">
      <!-- 100 -->
      <g transform="translate(146.7125 375.928295)scale(0.1 -0.1)">
       <use xlink:href="#DejaVuSans-49"/>
       <use x="63.623047" xlink:href="#DejaVuSans-48"/>
       <use x="127.246094" xlink:href="#DejaVuSans-48"/>
      </g>
     </g>
    </g>
    <g id="ytick_10">
     <g id="line2d_21">
      <g>
       <use style="stroke:#000000;stroke-width:0.8;" x="172.8" xlink:href="#m48fde4e051" y="344.806261"/>
      </g>
     </g>
     <g id="text_21">
      <!-- 150 -->
      <g transform="translate(146.7125 348.60548)scale(0.1 -0.1)">
       <use xlink:href="#DejaVuSans-49"/>
       <use x="63.623047" xlink:href="#DejaVuSans-53"/>
       <use x="127.246094" xlink:href="#DejaVuSans-48"/>
      </g>
     </g>
    </g>
    <g id="ytick_11">
     <g id="line2d_22">
      <g>
       <use style="stroke:#000000;stroke-width:0.8;" x="172.8" xlink:href="#m48fde4e051" y="317.483446"/>
      </g>
     </g>
     <g id="text_22">
      <!-- 200 -->
      <g transform="translate(146.7125 321.282665)scale(0.1 -0.1)">
       <use xlink:href="#DejaVuSans-50"/>
       <use x="63.623047" xlink:href="#DejaVuSans-48"/>
       <use x="127.246094" xlink:href="#DejaVuSans-48"/>
      </g>
     </g>
    </g>
    <g id="ytick_12">
     <g id="line2d_23">
      <g>
       <use style="stroke:#000000;stroke-width:0.8;" x="172.8" xlink:href="#m48fde4e051" y="290.160631"/>
      </g>
     </g>
     <g id="text_23">
      <!-- 250 -->
      <g transform="translate(146.7125 293.95985)scale(0.1 -0.1)">
       <use xlink:href="#DejaVuSans-50"/>
       <use x="63.623047" xlink:href="#DejaVuSans-53"/>
       <use x="127.246094" xlink:href="#DejaVuSans-48"/>
      </g>
     </g>
    </g>
   </g>
   <g id="line2d_24">
    <path clip-path="url(#p697e730474)" d="M 221.498182 424.047156 
L 225.732806 422.883275 
L 229.967431 422.050579 
L 234.202055 421.738319 
L 238.43668 422.135741 
L 246.905929 422.277678 
L 251.140553 422.469293 
L 255.375178 422.469293 
L 263.844427 422.183054 
L 272.313676 422.135741 
L 280.782925 422.327356 
L 285.017549 422.436174 
L 289.252174 422.426712 
L 306.190672 421.513585 
L 314.659921 421.090141 
L 323.12917 420.789708 
L 331.598419 420.855945 
L 335.833043 420.907989 
L 352.771542 420.479813 
L 357.006166 420.527125 
L 361.240791 420.730568 
L 369.71004 420.919817 
L 373.944664 421.092507 
L 378.179289 421.378746 
L 382.413913 421.390574 
L 386.648538 421.234443 
L 390.883162 421.248637 
L 395.117787 421.094872 
L 399.352411 420.773149 
L 412.056285 420.924548 
L 416.290909 420.640675 
L 424.760158 420.328414 
L 433.229407 419.526472 
L 445.933281 418.996575 
L 450.167905 419.024962 
L 458.637154 419.297007 
L 467.106403 419.420019 
L 479.810277 419.670774 
L 488.279526 419.30647 
L 500.983399 419.609268 
L 505.218024 419.954647 
L 509.452648 420.143896 
L 513.687273 419.921529 
L 517.921897 419.860023 
L 522.156522 420.084756 
L 526.391146 420.188843 
L 530.625771 419.554859 
L 534.860395 418.760013 
L 539.09502 417.761725 
L 543.329644 416.493757 
L 547.564269 415.568803 
L 551.798893 415.400845 
L 556.033518 415.985151 
L 564.502767 417.752263 
L 568.737391 418.260869 
L 572.972016 418.412269 
L 577.20664 418.322375 
L 581.441265 416.434617 
L 589.910514 411.871352 
L 594.145138 410.295855 
L 598.379763 410.182305 
L 602.614387 411.358015 
L 606.849012 413.487065 
L 611.083636 415.09095 
L 615.318261 415.76988 
L 619.552885 415.918914 
L 644.960632 412.642542 
L 649.195257 412.685123 
L 657.664506 410.182305 
L 661.89913 408.639927 
L 666.133755 406.350015 
L 670.368379 404.616021 
L 674.603004 403.118589 
L 678.837628 401.491048 
L 683.072253 402.588692 
L 687.306877 402.411271 
L 691.541502 392.889684 
L 695.776126 373.127364 
L 704.245375 322.583705 
L 708.48 300.309105 
L 712.714625 285.233062 
L 716.949249 282.245294 
L 721.183874 284.894779 
L 725.418498 283.421003 
L 729.653123 284.194558 
L 733.887747 294.328839 
L 738.122372 311.990495 
L 746.591621 361.19995 
L 750.826245 382.026795 
L 755.06087 396.64391 
L 759.295494 400.111897 
L 763.530119 399.870604 
L 767.764743 400.842871 
L 771.999368 401.931052 
L 776.233992 404.036446 
L 780.468617 404.237523 
L 784.703241 403.825907 
L 788.937866 404.675161 
L 793.17249 402.889125 
L 797.407115 402.172344 
L 801.641739 402.57923 
L 805.876364 402.361593 
L 810.110988 401.417714 
L 814.345613 401.237928 
L 818.580237 401.824599 
L 827.049486 404.511934 
L 831.284111 407.51153 
L 835.518735 409.832195 
L 839.75336 410.198865 
L 848.222609 410.35263 
L 852.457233 410.035638 
L 856.691858 410.00725 
L 860.926482 410.371554 
L 865.161107 411.355649 
L 869.395731 412.141032 
L 873.630356 412.737166 
L 877.86498 413.728357 
L 882.099605 413.799326 
L 886.334229 413.449215 
L 890.568854 412.933512 
L 894.803478 412.855447 
L 899.038103 412.992652 
L 903.272727 412.207269 
L 907.507352 412.062967 
L 911.741976 412.280603 
L 920.211225 413.276526 
L 924.44585 413.435022 
L 932.915099 414.435675 
L 937.149723 413.863197 
L 945.618972 414.315029 
L 954.088221 416.117625 
L 962.55747 416.706663 
L 966.792095 417.002364 
L 971.026719 416.787093 
L 979.495968 415.836117 
L 987.965217 415.949667 
L 1000.669091 416.559995 
L 1004.903715 416.538704 
L 1013.372964 415.715471 
L 1017.607589 415.585363 
L 1026.076838 414.837829 
L 1030.311462 414.878045 
L 1034.546087 415.51676 
L 1038.780711 416.030098 
L 1043.015336 416.396767 
L 1051.484585 417.442368 
L 1055.719209 417.113548 
L 1059.953834 416.609672 
L 1068.423083 416.593113 
L 1072.657708 416.434617 
L 1081.126957 416.926664 
L 1085.361581 416.787093 
L 1093.83083 415.895258 
L 1098.065455 415.776977 
L 1102.300079 415.772246 
L 1106.534704 416.03956 
L 1110.769328 416.79419 
L 1115.003953 417.387959 
L 1123.473202 417.884737 
L 1131.942451 417.435271 
L 1140.4117 417.359571 
L 1144.646324 417.184516 
L 1157.350198 417.23656 
L 1161.584822 417.437637 
L 1165.819447 417.482583 
L 1170.054071 417.865812 
L 1174.288696 417.910759 
L 1178.52332 417.693123 
L 1182.757945 426.774706 
L 1195.461818 426.774706 
L 1195.461818 426.774706 
" style="fill:none;stroke:#1f77b4;stroke-linecap:square;stroke-width:1.5;"/>
   </g>
   <g id="patch_8">
    <path d="M 172.8 434.001176 
L 172.8 275.018824 
" style="fill:none;stroke:#000000;stroke-linecap:square;stroke-linejoin:miter;stroke-width:0.8;"/>
   </g>
   <g id="patch_9">
    <path d="M 1244.16 434.001176 
L 1244.16 275.018824 
" style="fill:none;stroke:#000000;stroke-linecap:square;stroke-linejoin:miter;stroke-width:0.8;"/>
   </g>
   <g id="patch_10">
    <path d="M 172.8 434.001176 
L 1244.16 434.001176 
" style="fill:none;stroke:#000000;stroke-linecap:square;stroke-linejoin:miter;stroke-width:0.8;"/>
   </g>
   <g id="patch_11">
    <path d="M 172.8 275.018824 
L 1244.16 275.018824 
" style="fill:none;stroke:#000000;stroke-linecap:square;stroke-linejoin:miter;stroke-width:0.8;"/>
   </g>
   <g id="text_24">
    <!-- smoothed -->
    <g transform="translate(225.309344 426.501478)scale(0.1 -0.1)">
     <defs>
      <path d="M 44.28125 53.078125 
L 44.28125 44.578125 
Q 40.484375 46.53125 36.375 47.5 
Q 32.28125 48.484375 27.875 48.484375 
Q 21.1875 48.484375 17.84375 46.4375 
Q 14.5 44.390625 14.5 40.28125 
Q 14.5 37.15625 16.890625 35.375 
Q 19.28125 33.59375 26.515625 31.984375 
L 29.59375 31.296875 
Q 39.15625 29.25 43.1875 25.515625 
Q 47.21875 21.78125 47.21875 15.09375 
Q 47.21875 7.46875 41.1875 3.015625 
Q 35.15625 -1.421875 24.609375 -1.421875 
Q 20.21875 -1.421875 15.453125 -0.5625 
Q 10.6875 0.296875 5.421875 2 
L 5.421875 11.28125 
Q 10.40625 8.6875 15.234375 7.390625 
Q 20.0625 6.109375 24.8125 6.109375 
Q 31.15625 6.109375 34.5625 8.28125 
Q 37.984375 10.453125 37.984375 14.40625 
Q 37.984375 18.0625 35.515625 20.015625 
Q 33.0625 21.96875 24.703125 23.78125 
L 21.578125 24.515625 
Q 13.234375 26.265625 9.515625 29.90625 
Q 5.8125 33.546875 5.8125 39.890625 
Q 5.8125 47.609375 11.28125 51.796875 
Q 16.75 56 26.8125 56 
Q 31.78125 56 36.171875 55.265625 
Q 40.578125 54.546875 44.28125 53.078125 
z
" id="DejaVuSans-115"/>
      <path d="M 52 44.1875 
Q 55.375 50.25 60.0625 53.125 
Q 64.75 56 71.09375 56 
Q 79.640625 56 84.28125 50.015625 
Q 88.921875 44.046875 88.921875 33.015625 
L 88.921875 0 
L 79.890625 0 
L 79.890625 32.71875 
Q 79.890625 40.578125 77.09375 44.375 
Q 74.3125 48.1875 68.609375 48.1875 
Q 61.625 48.1875 57.5625 43.546875 
Q 53.515625 38.921875 53.515625 30.90625 
L 53.515625 0 
L 44.484375 0 
L 44.484375 32.71875 
Q 44.484375 40.625 41.703125 44.40625 
Q 38.921875 48.1875 33.109375 48.1875 
Q 26.21875 48.1875 22.15625 43.53125 
Q 18.109375 38.875 18.109375 30.90625 
L 18.109375 0 
L 9.078125 0 
L 9.078125 54.6875 
L 18.109375 54.6875 
L 18.109375 46.1875 
Q 21.1875 51.21875 25.484375 53.609375 
Q 29.78125 56 35.6875 56 
Q 41.65625 56 45.828125 52.96875 
Q 50 49.953125 52 44.1875 
z
" id="DejaVuSans-109"/>
      <path d="M 30.609375 48.390625 
Q 23.390625 48.390625 19.1875 42.75 
Q 14.984375 37.109375 14.984375 27.296875 
Q 14.984375 17.484375 19.15625 11.84375 
Q 23.34375 6.203125 30.609375 6.203125 
Q 37.796875 6.203125 41.984375 11.859375 
Q 46.1875 17.53125 46.1875 27.296875 
Q 46.1875 37.015625 41.984375 42.703125 
Q 37.796875 48.390625 30.609375 48.390625 
z
M 30.609375 56 
Q 42.328125 56 49.015625 48.375 
Q 55.71875 40.765625 55.71875 27.296875 
Q 55.71875 13.875 49.015625 6.21875 
Q 42.328125 -1.421875 30.609375 -1.421875 
Q 18.84375 -1.421875 12.171875 6.21875 
Q 5.515625 13.875 5.515625 27.296875 
Q 5.515625 40.765625 12.171875 48.375 
Q 18.84375 56 30.609375 56 
z
" id="DejaVuSans-111"/>
      <path d="M 18.3125 70.21875 
L 18.3125 54.6875 
L 36.8125 54.6875 
L 36.8125 47.703125 
L 18.3125 47.703125 
L 18.3125 18.015625 
Q 18.3125 11.328125 20.140625 9.421875 
Q 21.96875 7.515625 27.59375 7.515625 
L 36.8125 7.515625 
L 36.8125 0 
L 27.59375 0 
Q 17.1875 0 13.234375 3.875 
Q 9.28125 7.765625 9.28125 18.015625 
L 9.28125 47.703125 
L 2.6875 47.703125 
L 2.6875 54.6875 
L 9.28125 54.6875 
L 9.28125 70.21875 
z
" id="DejaVuSans-116"/>
      <path d="M 54.890625 33.015625 
L 54.890625 0 
L 45.90625 0 
L 45.90625 32.71875 
Q 45.90625 40.484375 42.875 44.328125 
Q 39.84375 48.1875 33.796875 48.1875 
Q 26.515625 48.1875 22.3125 43.546875 
Q 18.109375 38.921875 18.109375 30.90625 
L 18.109375 0 
L 9.078125 0 
L 9.078125 75.984375 
L 18.109375 75.984375 
L 18.109375 46.1875 
Q 21.34375 51.125 25.703125 53.5625 
Q 30.078125 56 35.796875 56 
Q 45.21875 56 50.046875 50.171875 
Q 54.890625 44.34375 54.890625 33.015625 
z
" id="DejaVuSans-104"/>
      <path d="M 56.203125 29.59375 
L 56.203125 25.203125 
L 14.890625 25.203125 
Q 15.484375 15.921875 20.484375 11.0625 
Q 25.484375 6.203125 34.421875 6.203125 
Q 39.59375 6.203125 44.453125 7.46875 
Q 49.3125 8.734375 54.109375 11.28125 
L 54.109375 2.78125 
Q 49.265625 0.734375 44.1875 -0.34375 
Q 39.109375 -1.421875 33.890625 -1.421875 
Q 20.796875 -1.421875 13.15625 6.1875 
Q 5.515625 13.8125 5.515625 26.8125 
Q 5.515625 40.234375 12.765625 48.109375 
Q 20.015625 56 32.328125 56 
Q 43.359375 56 49.78125 48.890625 
Q 56.203125 41.796875 56.203125 29.59375 
z
M 47.21875 32.234375 
Q 47.125 39.59375 43.09375 43.984375 
Q 39.0625 48.390625 32.421875 48.390625 
Q 24.90625 48.390625 20.390625 44.140625 
Q 15.875 39.890625 15.1875 32.171875 
z
" id="DejaVuSans-101"/>
      <path d="M 45.40625 46.390625 
L 45.40625 75.984375 
L 54.390625 75.984375 
L 54.390625 0 
L 45.40625 0 
L 45.40625 8.203125 
Q 42.578125 3.328125 38.25 0.953125 
Q 33.9375 -1.421875 27.875 -1.421875 
Q 17.96875 -1.421875 11.734375 6.484375 
Q 5.515625 14.40625 5.515625 27.296875 
Q 5.515625 40.1875 11.734375 48.09375 
Q 17.96875 56 27.875 56 
Q 33.9375 56 38.25 53.625 
Q 42.578125 51.265625 45.40625 46.390625 
z
M 14.796875 27.296875 
Q 14.796875 17.390625 18.875 11.75 
Q 22.953125 6.109375 30.078125 6.109375 
Q 37.203125 6.109375 41.296875 11.75 
Q 45.40625 17.390625 45.40625 27.296875 
Q 45.40625 37.203125 41.296875 42.84375 
Q 37.203125 48.484375 30.078125 48.484375 
Q 22.953125 48.484375 18.875 42.84375 
Q 14.796875 37.203125 14.796875 27.296875 
z
" id="DejaVuSans-100"/>
     </defs>
     <use xlink:href="#DejaVuSans-115"/>
     <use x="52.099609" xlink:href="#DejaVuSans-109"/>
     <use x="149.511719" xlink:href="#DejaVuSans-111"/>
     <use x="210.693359" xlink:href="#DejaVuSans-111"/>
     <use x="271.875" xlink:href="#DejaVuSans-116"/>
     <use x="311.083984" xlink:href="#DejaVuSans-104"/>
     <use x="374.462891" xlink:href="#DejaVuSans-101"/>
     <use x="435.986328" xlink:href="#DejaVuSans-100"/>
    </g>
   </g>
  </g>
  <g id="axes_3">
   <g id="patch_12">
    <path d="M 172.8 624.78 
L 1244.16 624.78 
L 1244.16 465.797647 
L 172.8 465.797647 
z
" style="fill:#ffffff;"/>
   </g>
   <g id="matplotlib.axis_5">
    <g id="xtick_11">
     <g id="line2d_25">
      <g>
       <use style="stroke:#000000;stroke-width:0.8;" x="221.498182" xlink:href="#mf9011c7535" y="624.78"/>
      </g>
     </g>
     <g id="text_25">
      <!-- 0 -->
      <g transform="translate(218.316932 639.378438)scale(0.1 -0.1)">
       <use xlink:href="#DejaVuSans-48"/>
      </g>
     </g>
    </g>
    <g id="xtick_12">
     <g id="line2d_26">
      <g>
       <use style="stroke:#000000;stroke-width:0.8;" x="433.229407" xlink:href="#mf9011c7535" y="624.78"/>
      </g>
     </g>
     <g id="text_26">
      <!-- 50 -->
      <g transform="translate(426.866907 639.378438)scale(0.1 -0.1)">
       <use xlink:href="#DejaVuSans-53"/>
       <use x="63.623047" xlink:href="#DejaVuSans-48"/>
      </g>
     </g>
    </g>
    <g id="xtick_13">
     <g id="line2d_27">
      <g>
       <use style="stroke:#000000;stroke-width:0.8;" x="644.960632" xlink:href="#mf9011c7535" y="624.78"/>
      </g>
     </g>
     <g id="text_27">
      <!-- 100 -->
      <g transform="translate(635.416882 639.378438)scale(0.1 -0.1)">
       <use xlink:href="#DejaVuSans-49"/>
       <use x="63.623047" xlink:href="#DejaVuSans-48"/>
       <use x="127.246094" xlink:href="#DejaVuSans-48"/>
      </g>
     </g>
    </g>
    <g id="xtick_14">
     <g id="line2d_28">
      <g>
       <use style="stroke:#000000;stroke-width:0.8;" x="856.691858" xlink:href="#mf9011c7535" y="624.78"/>
      </g>
     </g>
     <g id="text_28">
      <!-- 150 -->
      <g transform="translate(847.148108 639.378438)scale(0.1 -0.1)">
       <use xlink:href="#DejaVuSans-49"/>
       <use x="63.623047" xlink:href="#DejaVuSans-53"/>
       <use x="127.246094" xlink:href="#DejaVuSans-48"/>
      </g>
     </g>
    </g>
    <g id="xtick_15">
     <g id="line2d_29">
      <g>
       <use style="stroke:#000000;stroke-width:0.8;" x="1068.423083" xlink:href="#mf9011c7535" y="624.78"/>
      </g>
     </g>
     <g id="text_29">
      <!-- 200 -->
      <g transform="translate(1058.879333 639.378438)scale(0.1 -0.1)">
       <use xlink:href="#DejaVuSans-50"/>
       <use x="63.623047" xlink:href="#DejaVuSans-48"/>
       <use x="127.246094" xlink:href="#DejaVuSans-48"/>
      </g>
     </g>
    </g>
   </g>
   <g id="matplotlib.axis_6">
    <g id="ytick_13">
     <g id="line2d_30">
      <g>
       <use style="stroke:#000000;stroke-width:0.8;" x="172.8" xlink:href="#m48fde4e051" y="615.66246"/>
      </g>
     </g>
     <g id="text_30">
      <!-- −200 -->
      <g transform="translate(138.332812 619.461679)scale(0.1 -0.1)">
       <defs>
        <path d="M 10.59375 35.5 
L 73.1875 35.5 
L 73.1875 27.203125 
L 10.59375 27.203125 
z
" id="DejaVuSans-8722"/>
       </defs>
       <use xlink:href="#DejaVuSans-8722"/>
       <use x="83.789062" xlink:href="#DejaVuSans-50"/>
       <use x="147.412109" xlink:href="#DejaVuSans-48"/>
       <use x="211.035156" xlink:href="#DejaVuSans-48"/>
      </g>
     </g>
    </g>
    <g id="ytick_14">
     <g id="line2d_31">
      <g>
       <use style="stroke:#000000;stroke-width:0.8;" x="172.8" xlink:href="#m48fde4e051" y="581.3469"/>
      </g>
     </g>
     <g id="text_31">
      <!-- −100 -->
      <g transform="translate(138.332812 585.146119)scale(0.1 -0.1)">
       <use xlink:href="#DejaVuSans-8722"/>
       <use x="83.789062" xlink:href="#DejaVuSans-49"/>
       <use x="147.412109" xlink:href="#DejaVuSans-48"/>
       <use x="211.035156" xlink:href="#DejaVuSans-48"/>
      </g>
     </g>
    </g>
    <g id="ytick_15">
     <g id="line2d_32">
      <g>
       <use style="stroke:#000000;stroke-width:0.8;" x="172.8" xlink:href="#m48fde4e051" y="547.031341"/>
      </g>
     </g>
     <g id="text_32">
      <!-- 0 -->
      <g transform="translate(159.4375 550.83056)scale(0.1 -0.1)">
       <use xlink:href="#DejaVuSans-48"/>
      </g>
     </g>
    </g>
    <g id="ytick_16">
     <g id="line2d_33">
      <g>
       <use style="stroke:#000000;stroke-width:0.8;" x="172.8" xlink:href="#m48fde4e051" y="512.715781"/>
      </g>
     </g>
     <g id="text_33">
      <!-- 100 -->
      <g transform="translate(146.7125 516.515)scale(0.1 -0.1)">
       <use xlink:href="#DejaVuSans-49"/>
       <use x="63.623047" xlink:href="#DejaVuSans-48"/>
       <use x="127.246094" xlink:href="#DejaVuSans-48"/>
      </g>
     </g>
    </g>
    <g id="ytick_17">
     <g id="line2d_34">
      <g>
       <use style="stroke:#000000;stroke-width:0.8;" x="172.8" xlink:href="#m48fde4e051" y="478.400222"/>
      </g>
     </g>
     <g id="text_34">
      <!-- 200 -->
      <g transform="translate(146.7125 482.199441)scale(0.1 -0.1)">
       <use xlink:href="#DejaVuSans-50"/>
       <use x="63.623047" xlink:href="#DejaVuSans-48"/>
       <use x="127.246094" xlink:href="#DejaVuSans-48"/>
      </g>
     </g>
    </g>
   </g>
   <g id="line2d_35">
    <path clip-path="url(#pf6a045267a)" d="M 221.498182 542.842911 
L 225.732806 543.241774 
L 229.967431 545.471543 
L 234.202055 546.618366 
L 238.43668 547.31359 
L 242.671304 547.534933 
L 259.609802 546.732008 
L 263.844427 546.777317 
L 276.5483 547.280166 
L 280.782925 547.293536 
L 285.017549 547.083334 
L 293.486798 546.479469 
L 297.721423 546.320519 
L 306.190672 546.307149 
L 314.659921 546.469071 
L 331.598419 547.064022 
L 344.302292 546.703041 
L 348.536917 546.813712 
L 357.006166 547.248227 
L 365.475415 547.445802 
L 373.944664 547.540875 
L 390.883162 546.599797 
L 395.117787 546.626536 
L 407.82166 546.978605 
L 416.290909 546.48764 
L 424.760158 546.159339 
L 433.229407 546.109574 
L 445.933281 546.870162 
L 450.167905 547.186578 
L 454.40253 547.324732 
L 471.341028 547.317304 
L 484.044901 546.756519 
L 488.279526 546.870162 
L 496.748775 547.507451 
L 500.983399 547.664916 
L 505.218024 547.497795 
L 509.452648 547.178408 
L 513.687273 547.023913 
L 517.921897 547.110816 
L 522.156522 546.904329 
L 526.391146 546.174195 
L 534.860395 544.147943 
L 539.09502 543.816671 
L 543.329644 544.23336 
L 547.564269 545.572558 
L 551.798893 547.381924 
L 556.033518 548.855562 
L 560.268142 549.38218 
L 564.502767 549.0004 
L 568.737391 548.167023 
L 572.972016 546.223217 
L 577.20664 543.818157 
L 581.441265 541.608443 
L 585.675889 540.558179 
L 589.910514 541.900348 
L 594.145138 544.758492 
L 598.379763 548.379452 
L 602.614387 551.080131 
L 606.849012 551.712221 
L 611.083636 550.612192 
L 615.318261 548.484181 
L 619.552885 546.714925 
L 623.78751 545.768647 
L 628.022134 545.417321 
L 636.491383 545.343045 
L 640.726008 545.611182 
L 644.960632 545.34973 
L 649.195257 544.75255 
L 653.429881 543.731996 
L 657.664506 542.164771 
L 661.89913 541.524511 
L 666.133755 541.332136 
L 670.368379 541.527482 
L 674.603004 543.688174 
L 678.837628 545.480456 
L 683.072253 540.896878 
L 687.306877 526.174611 
L 691.541502 503.460236 
L 695.776126 482.759486 
L 700.010751 473.024118 
L 704.245375 476.910986 
L 708.48 494.108875 
L 712.714625 517.69228 
L 716.949249 536.319984 
L 721.183874 546.748349 
L 725.418498 554.39953 
L 729.653123 567.471382 
L 733.887747 588.991397 
L 738.122372 608.579491 
L 742.356996 617.553529 
L 746.591621 614.534949 
L 750.826245 598.205347 
L 755.06087 576.993578 
L 759.295494 559.860309 
L 763.530119 550.580996 
L 767.764743 550.142767 
L 771.999368 550.776342 
L 776.233992 549.628776 
L 780.468617 548.688441 
L 784.703241 546.448273 
L 788.937866 545.440347 
L 797.407115 545.481199 
L 801.641739 546.166767 
L 805.876364 546.079864 
L 810.110988 546.204648 
L 814.345613 547.662688 
L 818.580237 549.579011 
L 822.814862 551.814722 
L 827.049486 553.425028 
L 831.284111 553.119753 
L 835.518735 551.499791 
L 839.75336 548.95732 
L 843.987984 547.207375 
L 848.222609 546.833024 
L 852.457233 546.977862 
L 856.691858 547.766674 
L 860.926482 548.776829 
L 865.161107 549.301219 
L 869.395731 549.573069 
L 873.630356 549.064278 
L 877.86498 548.186334 
L 882.099605 547.066993 
L 886.334229 546.211333 
L 890.568854 546.338345 
L 899.038103 546.281152 
L 903.272727 546.378454 
L 907.507352 546.922155 
L 911.741976 547.928596 
L 915.976601 548.205646 
L 924.44585 548.288835 
L 928.680474 547.713938 
L 937.149723 547.122701 
L 941.384348 547.687199 
L 945.618972 548.826594 
L 949.853597 549.118499 
L 954.088221 548.91424 
L 962.55747 547.619608 
L 971.026719 546.264069 
L 975.261344 546.00336 
L 979.495968 546.36137 
L 983.730593 546.960036 
L 987.965217 547.380439 
L 992.199842 547.576527 
L 996.434466 547.536418 
L 1000.669091 547.104874 
L 1004.903715 546.553003 
L 1009.13834 546.160825 
L 1013.372964 546.004845 
L 1017.607589 546.064266 
L 1021.842213 546.270754 
L 1026.076838 546.899129 
L 1030.311462 547.7897 
L 1034.546087 548.372025 
L 1038.780711 548.583711 
L 1043.015336 548.516863 
L 1047.24996 548.04001 
L 1051.484585 547.228915 
L 1055.719209 546.569344 
L 1059.953834 546.333888 
L 1064.188458 546.599797 
L 1068.423083 547.025399 
L 1072.657708 547.269024 
L 1076.892332 547.307648 
L 1081.126957 547.032826 
L 1085.361581 546.368798 
L 1089.596206 546.029356 
L 1093.83083 546.203905 
L 1098.065455 546.777317 
L 1102.300079 547.678286 
L 1106.534704 548.363854 
L 1110.769328 548.641647 
L 1115.003953 548.462641 
L 1123.473202 547.065508 
L 1127.707826 546.741664 
L 1131.942451 546.622822 
L 1148.880949 546.938496 
L 1153.115573 547.20589 
L 1157.350198 547.312105 
L 1161.584822 547.567614 
L 1165.819447 547.589154 
L 1170.054071 547.326217 
L 1174.288696 552.81225 
L 1178.52332 555.408943 
L 1182.757945 555.449052 
L 1186.992569 552.73426 
L 1191.227194 547.031341 
L 1195.461818 547.031341 
L 1195.461818 547.031341 
" style="fill:none;stroke:#1f77b4;stroke-linecap:square;stroke-width:1.5;"/>
   </g>
   <g id="patch_13">
    <path d="M 172.8 624.78 
L 172.8 465.797647 
" style="fill:none;stroke:#000000;stroke-linecap:square;stroke-linejoin:miter;stroke-width:0.8;"/>
   </g>
   <g id="patch_14">
    <path d="M 1244.16 624.78 
L 1244.16 465.797647 
" style="fill:none;stroke:#000000;stroke-linecap:square;stroke-linejoin:miter;stroke-width:0.8;"/>
   </g>
   <g id="patch_15">
    <path d="M 172.8 624.78 
L 1244.16 624.78 
" style="fill:none;stroke:#000000;stroke-linecap:square;stroke-linejoin:miter;stroke-width:0.8;"/>
   </g>
   <g id="patch_16">
    <path d="M 172.8 465.797647 
L 1244.16 465.797647 
" style="fill:none;stroke:#000000;stroke-linecap:square;stroke-linejoin:miter;stroke-width:0.8;"/>
   </g>
   <g id="text_35">
    <!-- derivative -->
    <g transform="translate(225.309344 546.859763)scale(0.1 -0.1)">
     <defs>
      <path d="M 9.421875 54.6875 
L 18.40625 54.6875 
L 18.40625 0 
L 9.421875 0 
z
M 9.421875 75.984375 
L 18.40625 75.984375 
L 18.40625 64.59375 
L 9.421875 64.59375 
z
" id="DejaVuSans-105"/>
      <path d="M 2.984375 54.6875 
L 12.5 54.6875 
L 29.59375 8.796875 
L 46.6875 54.6875 
L 56.203125 54.6875 
L 35.6875 0 
L 23.484375 0 
z
" id="DejaVuSans-118"/>
     </defs>
     <use xlink:href="#DejaVuSans-100"/>
     <use x="63.476562" xlink:href="#DejaVuSans-101"/>
     <use x="125" xlink:href="#DejaVuSans-114"/>
     <use x="166.113281" xlink:href="#DejaVuSans-105"/>
     <use x="193.896484" xlink:href="#DejaVuSans-118"/>
     <use x="253.076172" xlink:href="#DejaVuSans-97"/>
     <use x="314.355469" xlink:href="#DejaVuSans-116"/>
     <use x="353.564453" xlink:href="#DejaVuSans-105"/>
     <use x="381.347656" xlink:href="#DejaVuSans-118"/>
     <use x="440.527344" xlink:href="#DejaVuSans-101"/>
    </g>
   </g>
  </g>
 </g>
 <defs>
  <clipPath id="pa299626727">
   <rect height="158.982353" width="1071.36" x="172.8" y="84.24"/>
  </clipPath>
  <clipPath id="p697e730474">
   <rect height="158.982353" width="1071.36" x="172.8" y="275.018824"/>
  </clipPath>
  <clipPath id="pf6a045267a">
   <rect height="158.982353" width="1071.36" x="172.8" y="465.797647"/>
  </clipPath>
 </defs>
</svg>
