<?xml version="1.0" encoding="utf-8" standalone="no"?>
<!DOCTYPE svg PUBLIC "-//W3C//DTD SVG 1.1//EN"
  "http://www.w3.org/Graphics/SVG/1.1/DTD/svg11.dtd">
<!-- Created with matplotlib (https://matplotlib.org/) -->
<svg height="345.6pt" version="1.1" viewBox="0 0 460.8 345.6" width="460.8pt" xmlns="http://www.w3.org/2000/svg" xmlns:xlink="http://www.w3.org/1999/xlink">
 <metadata>
  <rdf:RDF xmlns:cc="http://creativecommons.org/ns#" xmlns:dc="http://purl.org/dc/elements/1.1/" xmlns:rdf="http://www.w3.org/1999/02/22-rdf-syntax-ns#">
   <cc:Work>
    <dc:type rdf:resource="http://purl.org/dc/dcmitype/StillImage"/>
    <dc:date>2021-12-01T12:46:35.442182</dc:date>
    <dc:format>image/svg+xml</dc:format>
    <dc:creator>
     <cc:Agent>
      <dc:title>Matplotlib v3.3.4, https://matplotlib.org/</dc:title>
     </cc:Agent>
    </dc:creator>
   </cc:Work>
  </rdf:RDF>
 </metadata>
 <defs>
  <style type="text/css">*{stroke-linecap:butt;stroke-linejoin:round;}</style>
 </defs>
 <g id="figure_1">
  <g id="patch_1">
   <path d="M 0 345.6 
L 460.8 345.6 
L 460.8 0 
L 0 0 
z
" style="fill:#ffffff;"/>
  </g>
  <g id="axes_1">
   <g id="patch_2">
    <path d="M 57.6 119.740235 
L 414.72 119.740235 
L 414.72 41.472 
L 57.6 41.472 
z
" style="fill:#ffffff;"/>
   </g>
   <g id="matplotlib.axis_1">
    <g id="xtick_1">
     <g id="line2d_1">
      <defs>
       <path d="M 0 0 
L 0 3.5 
" id="me3bcc9eaba" style="stroke:#000000;stroke-width:0.8;"/>
      </defs>
      <g>
       <use style="stroke:#000000;stroke-width:0.8;" x="73.832727" xlink:href="#me3bcc9eaba" y="119.740235"/>
      </g>
     </g>
     <g id="text_1">
      <!-- 0 -->
      <g transform="translate(70.651477 134.338673)scale(0.1 -0.1)">
       <defs>
        <path d="M 31.78125 66.40625 
Q 24.171875 66.40625 20.328125 58.90625 
Q 16.5 51.421875 16.5 36.375 
Q 16.5 21.390625 20.328125 13.890625 
Q 24.171875 6.390625 31.78125 6.390625 
Q 39.453125 6.390625 43.28125 13.890625 
Q 47.125 21.390625 47.125 36.375 
Q 47.125 51.421875 43.28125 58.90625 
Q 39.453125 66.40625 31.78125 66.40625 
z
M 31.78125 74.21875 
Q 44.046875 74.21875 50.515625 64.515625 
Q 56.984375 54.828125 56.984375 36.375 
Q 56.984375 17.96875 50.515625 8.265625 
Q 44.046875 -1.421875 31.78125 -1.421875 
Q 19.53125 -1.421875 13.0625 8.265625 
Q 6.59375 17.96875 6.59375 36.375 
Q 6.59375 54.828125 13.0625 64.515625 
Q 19.53125 74.21875 31.78125 74.21875 
z
" id="DejaVuSans-48"/>
       </defs>
       <use xlink:href="#DejaVuSans-48"/>
      </g>
     </g>
    </g>
    <g id="xtick_2">
     <g id="line2d_2">
      <g>
       <use style="stroke:#000000;stroke-width:0.8;" x="144.409802" xlink:href="#me3bcc9eaba" y="119.740235"/>
      </g>
     </g>
     <g id="text_2">
      <!-- 50 -->
      <g transform="translate(138.047302 134.338673)scale(0.1 -0.1)">
       <defs>
        <path d="M 10.796875 72.90625 
L 49.515625 72.90625 
L 49.515625 64.59375 
L 19.828125 64.59375 
L 19.828125 46.734375 
Q 21.96875 47.46875 24.109375 47.828125 
Q 26.265625 48.1875 28.421875 48.1875 
Q 40.625 48.1875 47.75 41.5 
Q 54.890625 34.8125 54.890625 23.390625 
Q 54.890625 11.625 47.5625 5.09375 
Q 40.234375 -1.421875 26.90625 -1.421875 
Q 22.3125 -1.421875 17.546875 -0.640625 
Q 12.796875 0.140625 7.71875 1.703125 
L 7.71875 11.625 
Q 12.109375 9.234375 16.796875 8.0625 
Q 21.484375 6.890625 26.703125 6.890625 
Q 35.15625 6.890625 40.078125 11.328125 
Q 45.015625 15.765625 45.015625 23.390625 
Q 45.015625 31 40.078125 35.4375 
Q 35.15625 39.890625 26.703125 39.890625 
Q 22.75 39.890625 18.8125 39.015625 
Q 14.890625 38.140625 10.796875 36.28125 
z
" id="DejaVuSans-53"/>
       </defs>
       <use xlink:href="#DejaVuSans-53"/>
       <use x="63.623047" xlink:href="#DejaVuSans-48"/>
      </g>
     </g>
    </g>
    <g id="xtick_3">
     <g id="line2d_3">
      <g>
       <use style="stroke:#000000;stroke-width:0.8;" x="214.986877" xlink:href="#me3bcc9eaba" y="119.740235"/>
      </g>
     </g>
     <g id="text_3">
      <!-- 100 -->
      <g transform="translate(205.443127 134.338673)scale(0.1 -0.1)">
       <defs>
        <path d="M 12.40625 8.296875 
L 28.515625 8.296875 
L 28.515625 63.921875 
L 10.984375 60.40625 
L 10.984375 69.390625 
L 28.421875 72.90625 
L 38.28125 72.90625 
L 38.28125 8.296875 
L 54.390625 8.296875 
L 54.390625 0 
L 12.40625 0 
z
" id="DejaVuSans-49"/>
       </defs>
       <use xlink:href="#DejaVuSans-49"/>
       <use x="63.623047" xlink:href="#DejaVuSans-48"/>
       <use x="127.246094" xlink:href="#DejaVuSans-48"/>
      </g>
     </g>
    </g>
    <g id="xtick_4">
     <g id="line2d_4">
      <g>
       <use style="stroke:#000000;stroke-width:0.8;" x="285.563953" xlink:href="#me3bcc9eaba" y="119.740235"/>
      </g>
     </g>
     <g id="text_4">
      <!-- 150 -->
      <g transform="translate(276.020203 134.338673)scale(0.1 -0.1)">
       <use xlink:href="#DejaVuSans-49"/>
       <use x="63.623047" xlink:href="#DejaVuSans-53"/>
       <use x="127.246094" xlink:href="#DejaVuSans-48"/>
      </g>
     </g>
    </g>
    <g id="xtick_5">
     <g id="line2d_5">
      <g>
       <use style="stroke:#000000;stroke-width:0.8;" x="356.141028" xlink:href="#me3bcc9eaba" y="119.740235"/>
      </g>
     </g>
     <g id="text_5">
      <!-- 200 -->
      <g transform="translate(346.597278 134.338673)scale(0.1 -0.1)">
       <defs>
        <path d="M 19.1875 8.296875 
L 53.609375 8.296875 
L 53.609375 0 
L 7.328125 0 
L 7.328125 8.296875 
Q 12.9375 14.109375 22.625 23.890625 
Q 32.328125 33.6875 34.8125 36.53125 
Q 39.546875 41.84375 41.421875 45.53125 
Q 43.3125 49.21875 43.3125 52.78125 
Q 43.3125 58.59375 39.234375 62.25 
Q 35.15625 65.921875 28.609375 65.921875 
Q 23.96875 65.921875 18.8125 64.3125 
Q 13.671875 62.703125 7.8125 59.421875 
L 7.8125 69.390625 
Q 13.765625 71.78125 18.9375 73 
Q 24.125 74.21875 28.421875 74.21875 
Q 39.75 74.21875 46.484375 68.546875 
Q 53.21875 62.890625 53.21875 53.421875 
Q 53.21875 48.921875 51.53125 44.890625 
Q 49.859375 40.875 45.40625 35.40625 
Q 44.1875 33.984375 37.640625 27.21875 
Q 31.109375 20.453125 19.1875 8.296875 
z
" id="DejaVuSans-50"/>
       </defs>
       <use xlink:href="#DejaVuSans-50"/>
       <use x="63.623047" xlink:href="#DejaVuSans-48"/>
       <use x="127.246094" xlink:href="#DejaVuSans-48"/>
      </g>
     </g>
    </g>
   </g>
   <g id="matplotlib.axis_2">
    <g id="ytick_1">
     <g id="line2d_6">
      <defs>
       <path d="M 0 0 
L -3.5 0 
" id="m83422a270a" style="stroke:#000000;stroke-width:0.8;"/>
      </defs>
      <g>
       <use style="stroke:#000000;stroke-width:0.8;" x="57.6" xlink:href="#m83422a270a" y="118.487137"/>
      </g>
     </g>
     <g id="text_6">
      <!-- 0 -->
      <g transform="translate(44.2375 122.286356)scale(0.1 -0.1)">
       <use xlink:href="#DejaVuSans-48"/>
      </g>
     </g>
    </g>
    <g id="ytick_2">
     <g id="line2d_7">
      <g>
       <use style="stroke:#000000;stroke-width:0.8;" x="57.6" xlink:href="#m83422a270a" y="89.680278"/>
      </g>
     </g>
     <g id="text_7">
      <!-- 100 -->
      <g transform="translate(31.5125 93.479497)scale(0.1 -0.1)">
       <use xlink:href="#DejaVuSans-49"/>
       <use x="63.623047" xlink:href="#DejaVuSans-48"/>
       <use x="127.246094" xlink:href="#DejaVuSans-48"/>
      </g>
     </g>
    </g>
    <g id="ytick_3">
     <g id="line2d_8">
      <g>
       <use style="stroke:#000000;stroke-width:0.8;" x="57.6" xlink:href="#m83422a270a" y="60.873419"/>
      </g>
     </g>
     <g id="text_8">
      <!-- 200 -->
      <g transform="translate(31.5125 64.672638)scale(0.1 -0.1)">
       <use xlink:href="#DejaVuSans-50"/>
       <use x="63.623047" xlink:href="#DejaVuSans-48"/>
       <use x="127.246094" xlink:href="#DejaVuSans-48"/>
      </g>
     </g>
    </g>
   </g>
   <g id="line2d_9">
    <path clip-path="url(#p86a6a2665b)" d="M 73.832727 116.182588 
L 76.65581 116.182588 
L 78.067352 115.89452 
L 79.478893 115.89452 
L 80.890435 116.182588 
L 87.948142 116.182588 
L 89.359684 115.89452 
L 90.771225 115.89452 
L 92.182767 116.182588 
L 97.828933 116.182588 
L 99.240474 115.89452 
L 100.652016 115.89452 
L 102.063557 115.606451 
L 104.88664 115.606451 
L 106.298182 115.318382 
L 111.944348 115.318382 
L 113.355889 115.606451 
L 116.178972 115.030314 
L 117.590514 115.030314 
L 119.002055 115.318382 
L 121.825138 115.318382 
L 123.23668 115.606451 
L 124.648221 115.318382 
L 126.059763 115.318382 
L 127.471304 115.89452 
L 128.882846 115.89452 
L 130.294387 115.606451 
L 131.705929 115.030314 
L 134.529012 115.606451 
L 135.940553 115.318382 
L 137.352095 115.318382 
L 138.763636 115.606451 
L 140.175178 115.030314 
L 141.586719 114.742245 
L 142.998261 115.030314 
L 144.409802 115.030314 
L 145.821344 114.454177 
L 147.232885 114.166108 
L 148.644427 114.454177 
L 151.46751 114.454177 
L 152.879051 114.742245 
L 154.290593 114.454177 
L 155.702134 114.454177 
L 157.113676 114.742245 
L 162.759842 114.742245 
L 164.171383 114.166108 
L 165.582925 114.454177 
L 166.994466 115.030314 
L 168.406008 115.030314 
L 169.817549 114.742245 
L 171.229091 115.030314 
L 172.640632 115.030314 
L 174.052174 114.454177 
L 175.463715 114.742245 
L 176.875257 115.318382 
L 178.286798 114.742245 
L 181.109881 112.437697 
L 182.521423 112.725765 
L 183.932964 112.437697 
L 185.344506 112.725765 
L 186.756047 113.301902 
L 188.167589 113.589971 
L 189.57913 114.166108 
L 192.402213 114.166108 
L 193.813755 112.725765 
L 195.225296 112.725765 
L 196.636838 111.285422 
L 198.048379 107.828599 
L 199.459921 109.845079 
L 200.871462 110.133148 
L 203.694545 113.013834 
L 205.106087 113.589971 
L 206.517628 112.149628 
L 207.92917 111.285422 
L 209.340711 113.301902 
L 210.752253 111.573491 
L 212.163794 111.861559 
L 213.575336 111.573491 
L 214.986877 110.709285 
L 216.398419 110.133148 
L 217.80996 110.997354 
L 219.221502 110.997354 
L 220.633043 108.692805 
L 222.044585 106.676325 
L 223.456126 106.964393 
L 224.867668 105.812119 
L 226.279209 104.947913 
L 227.690751 105.812119 
L 229.102292 102.355296 
L 230.513834 100.338816 
L 231.925375 100.338816 
L 233.336917 81.614358 
L 234.748458 54.823979 
L 236.16 45.029647 
L 244.629249 45.029647 
L 246.040791 49.926813 
L 247.452332 71.531957 
L 248.863874 90.544484 
L 251.686957 103.795639 
L 253.098498 101.49109 
L 254.51004 103.219502 
L 255.921581 107.252462 
L 257.333123 102.931433 
L 258.744664 105.812119 
L 260.156206 108.116668 
L 261.567747 107.540531 
L 262.979289 105.812119 
L 264.39083 105.235982 
L 265.802372 105.812119 
L 267.213913 105.812119 
L 268.625455 104.659845 
L 270.036996 107.252462 
L 272.860079 103.219502 
L 274.271621 105.235982 
L 275.683162 108.404736 
L 277.094704 108.404736 
L 278.506245 109.268942 
L 281.329328 110.421216 
L 282.74087 109.268942 
L 284.152411 109.268942 
L 285.563953 110.421216 
L 286.975494 109.268942 
L 289.798577 110.997354 
L 292.62166 111.573491 
L 296.856285 111.573491 
L 298.267826 110.709285 
L 299.679368 110.709285 
L 301.090909 110.997354 
L 302.502451 111.861559 
L 303.913992 110.709285 
L 305.325534 109.268942 
L 306.737075 112.149628 
L 308.148617 111.861559 
L 309.560158 112.437697 
L 310.9717 111.573491 
L 312.383241 110.997354 
L 313.794783 111.861559 
L 315.206324 112.437697 
L 316.617866 112.149628 
L 318.029407 112.725765 
L 319.440949 113.013834 
L 320.85249 113.589971 
L 323.675573 113.013834 
L 326.498656 113.013834 
L 327.910198 112.437697 
L 329.321739 112.437697 
L 330.733281 113.013834 
L 332.144822 113.301902 
L 333.556364 113.013834 
L 334.967905 113.013834 
L 336.379447 112.725765 
L 337.790988 113.013834 
L 339.20253 112.437697 
L 340.614071 112.149628 
L 342.025613 112.437697 
L 343.437154 112.437697 
L 344.848696 111.861559 
L 347.671779 113.589971 
L 349.08332 113.589971 
L 350.494862 113.013834 
L 353.317945 113.589971 
L 354.729486 113.301902 
L 356.141028 112.437697 
L 358.964111 113.589971 
L 360.375652 113.013834 
L 363.198735 113.589971 
L 364.610277 112.437697 
L 366.021818 112.149628 
L 367.43336 113.013834 
L 368.844901 112.725765 
L 370.256443 113.301902 
L 371.667984 113.589971 
L 373.079526 113.589971 
L 374.491067 113.87804 
L 375.902609 113.87804 
L 378.725692 113.301902 
L 380.137233 113.301902 
L 382.960316 113.87804 
L 384.371858 113.301902 
L 385.783399 113.013834 
L 387.194941 113.589971 
L 388.606482 113.589971 
L 390.018024 114.166108 
L 391.429565 113.87804 
L 392.841107 113.301902 
L 394.252648 113.87804 
L 395.66419 113.301902 
L 397.075731 113.589971 
L 398.487273 113.589971 
L 398.487273 113.589971 
" style="fill:none;stroke:#1f77b4;stroke-linecap:square;stroke-width:1.5;"/>
   </g>
   <g id="patch_3">
    <path d="M 57.6 119.740235 
L 57.6 41.472 
" style="fill:none;stroke:#000000;stroke-linecap:square;stroke-linejoin:miter;stroke-width:0.8;"/>
   </g>
   <g id="patch_4">
    <path d="M 414.72 119.740235 
L 414.72 41.472 
" style="fill:none;stroke:#000000;stroke-linecap:square;stroke-linejoin:miter;stroke-width:0.8;"/>
   </g>
   <g id="patch_5">
    <path d="M 57.6 119.740235 
L 414.72 119.740235 
" style="fill:none;stroke:#000000;stroke-linecap:square;stroke-linejoin:miter;stroke-width:0.8;"/>
   </g>
   <g id="patch_6">
    <path d="M 57.6 41.472 
L 414.72 41.472 
" style="fill:none;stroke:#000000;stroke-linecap:square;stroke-linejoin:miter;stroke-width:0.8;"/>
   </g>
   <g id="text_9">
    <!-- raw -->
    <g transform="translate(75.103115 118.343103)scale(0.1 -0.1)">
     <defs>
      <path d="M 41.109375 46.296875 
Q 39.59375 47.171875 37.8125 47.578125 
Q 36.03125 48 33.890625 48 
Q 26.265625 48 22.1875 43.046875 
Q 18.109375 38.09375 18.109375 28.8125 
L 18.109375 0 
L 9.078125 0 
L 9.078125 54.6875 
L 18.109375 54.6875 
L 18.109375 46.1875 
Q 20.953125 51.171875 25.484375 53.578125 
Q 30.03125 56 36.53125 56 
Q 37.453125 56 38.578125 55.875 
Q 39.703125 55.765625 41.0625 55.515625 
z
" id="DejaVuSans-114"/>
      <path d="M 34.28125 27.484375 
Q 23.390625 27.484375 19.1875 25 
Q 14.984375 22.515625 14.984375 16.5 
Q 14.984375 11.71875 18.140625 8.90625 
Q 21.296875 6.109375 26.703125 6.109375 
Q 34.1875 6.109375 38.703125 11.40625 
Q 43.21875 16.703125 43.21875 25.484375 
L 43.21875 27.484375 
z
M 52.203125 31.203125 
L 52.203125 0 
L 43.21875 0 
L 43.21875 8.296875 
Q 40.140625 3.328125 35.546875 0.953125 
Q 30.953125 -1.421875 24.3125 -1.421875 
Q 15.921875 -1.421875 10.953125 3.296875 
Q 6 8.015625 6 15.921875 
Q 6 25.140625 12.171875 29.828125 
Q 18.359375 34.515625 30.609375 34.515625 
L 43.21875 34.515625 
L 43.21875 35.40625 
Q 43.21875 41.609375 39.140625 45 
Q 35.0625 48.390625 27.6875 48.390625 
Q 23 48.390625 18.546875 47.265625 
Q 14.109375 46.140625 10.015625 43.890625 
L 10.015625 52.203125 
Q 14.9375 54.109375 19.578125 55.046875 
Q 24.21875 56 28.609375 56 
Q 40.484375 56 46.34375 49.84375 
Q 52.203125 43.703125 52.203125 31.203125 
z
" id="DejaVuSans-97"/>
      <path d="M 4.203125 54.6875 
L 13.1875 54.6875 
L 24.421875 12.015625 
L 35.59375 54.6875 
L 46.1875 54.6875 
L 57.421875 12.015625 
L 68.609375 54.6875 
L 77.59375 54.6875 
L 63.28125 0 
L 52.6875 0 
L 40.921875 44.828125 
L 29.109375 0 
L 18.5 0 
z
" id="DejaVuSans-119"/>
     </defs>
     <use xlink:href="#DejaVuSans-114"/>
     <use x="41.113281" xlink:href="#DejaVuSans-97"/>
     <use x="102.392578" xlink:href="#DejaVuSans-119"/>
    </g>
   </g>
  </g>
  <g id="axes_2">
   <g id="patch_7">
    <path d="M 57.6 213.662118 
L 414.72 213.662118 
L 414.72 135.393882 
L 57.6 135.393882 
z
" style="fill:#ffffff;"/>
   </g>
   <g id="matplotlib.axis_3">
    <g id="xtick_6">
     <g id="line2d_10">
      <g>
       <use style="stroke:#000000;stroke-width:0.8;" x="73.832727" xlink:href="#me3bcc9eaba" y="213.662118"/>
      </g>
     </g>
     <g id="text_10">
      <!-- 0 -->
      <g transform="translate(70.651477 228.260555)scale(0.1 -0.1)">
       <use xlink:href="#DejaVuSans-48"/>
      </g>
     </g>
    </g>
    <g id="xtick_7">
     <g id="line2d_11">
      <g>
       <use style="stroke:#000000;stroke-width:0.8;" x="144.409802" xlink:href="#me3bcc9eaba" y="213.662118"/>
      </g>
     </g>
     <g id="text_11">
      <!-- 50 -->
      <g transform="translate(138.047302 228.260555)scale(0.1 -0.1)">
       <use xlink:href="#DejaVuSans-53"/>
       <use x="63.623047" xlink:href="#DejaVuSans-48"/>
      </g>
     </g>
    </g>
    <g id="xtick_8">
     <g id="line2d_12">
      <g>
       <use style="stroke:#000000;stroke-width:0.8;" x="214.986877" xlink:href="#me3bcc9eaba" y="213.662118"/>
      </g>
     </g>
     <g id="text_12">
      <!-- 100 -->
      <g transform="translate(205.443127 228.260555)scale(0.1 -0.1)">
       <use xlink:href="#DejaVuSans-49"/>
       <use x="63.623047" xlink:href="#DejaVuSans-48"/>
       <use x="127.246094" xlink:href="#DejaVuSans-48"/>
      </g>
     </g>
    </g>
    <g id="xtick_9">
     <g id="line2d_13">
      <g>
       <use style="stroke:#000000;stroke-width:0.8;" x="285.563953" xlink:href="#me3bcc9eaba" y="213.662118"/>
      </g>
     </g>
     <g id="text_13">
      <!-- 150 -->
      <g transform="translate(276.020203 228.260555)scale(0.1 -0.1)">
       <use xlink:href="#DejaVuSans-49"/>
       <use x="63.623047" xlink:href="#DejaVuSans-53"/>
       <use x="127.246094" xlink:href="#DejaVuSans-48"/>
      </g>
     </g>
    </g>
    <g id="xtick_10">
     <g id="line2d_14">
      <g>
       <use style="stroke:#000000;stroke-width:0.8;" x="356.141028" xlink:href="#me3bcc9eaba" y="213.662118"/>
      </g>
     </g>
     <g id="text_14">
      <!-- 200 -->
      <g transform="translate(346.597278 228.260555)scale(0.1 -0.1)">
       <use xlink:href="#DejaVuSans-50"/>
       <use x="63.623047" xlink:href="#DejaVuSans-48"/>
       <use x="127.246094" xlink:href="#DejaVuSans-48"/>
      </g>
     </g>
    </g>
   </g>
   <g id="matplotlib.axis_4">
    <g id="ytick_4">
     <g id="line2d_15">
      <g>
       <use style="stroke:#000000;stroke-width:0.8;" x="57.6" xlink:href="#m83422a270a" y="210.104471"/>
      </g>
     </g>
     <g id="text_15">
      <!-- 0 -->
      <g transform="translate(44.2375 213.903689)scale(0.1 -0.1)">
       <use xlink:href="#DejaVuSans-48"/>
      </g>
     </g>
    </g>
    <g id="ytick_5">
     <g id="line2d_16">
      <g>
       <use style="stroke:#000000;stroke-width:0.8;" x="57.6" xlink:href="#m83422a270a" y="182.516646"/>
      </g>
     </g>
     <g id="text_16">
      <!-- 100 -->
      <g transform="translate(31.5125 186.315865)scale(0.1 -0.1)">
       <use xlink:href="#DejaVuSans-49"/>
       <use x="63.623047" xlink:href="#DejaVuSans-48"/>
       <use x="127.246094" xlink:href="#DejaVuSans-48"/>
      </g>
     </g>
    </g>
    <g id="ytick_6">
     <g id="line2d_17">
      <g>
       <use style="stroke:#000000;stroke-width:0.8;" x="57.6" xlink:href="#m83422a270a" y="154.928821"/>
      </g>
     </g>
     <g id="text_17">
      <!-- 200 -->
      <g transform="translate(31.5125 158.72804)scale(0.1 -0.1)">
       <use xlink:href="#DejaVuSans-50"/>
       <use x="63.623047" xlink:href="#DejaVuSans-48"/>
       <use x="127.246094" xlink:href="#DejaVuSans-48"/>
      </g>
     </g>
    </g>
   </g>
   <g id="line2d_18">
    <path clip-path="url(#pdd3bd2e0fa)" d="M 73.832727 208.464966 
L 75.244269 207.731918 
L 76.65581 207.826504 
L 78.067352 207.66886 
L 79.478893 207.66886 
L 82.301976 207.921091 
L 87.948142 207.826504 
L 89.359684 207.66886 
L 90.771225 207.66886 
L 93.594308 207.921091 
L 99.240474 207.716153 
L 102.063557 207.416628 
L 110.532806 207.046163 
L 113.355889 207.227455 
L 114.767431 207.093457 
L 116.178972 206.817578 
L 117.590514 206.841225 
L 120.413597 207.06981 
L 123.23668 207.203808 
L 124.648221 207.117103 
L 126.059763 207.188043 
L 127.471304 207.503333 
L 128.882846 207.645213 
L 131.705929 206.959459 
L 135.940553 207.14075 
L 138.763636 207.156514 
L 141.586719 206.61264 
L 142.998261 206.746638 
L 144.409802 206.699345 
L 145.821344 206.289469 
L 147.232885 206.060884 
L 152.879051 206.376173 
L 155.702134 206.289469 
L 158.525217 206.5417 
L 161.3483 206.565347 
L 164.171383 206.131824 
L 165.582925 206.265822 
L 166.994466 206.699345 
L 168.406008 206.746638 
L 169.817549 206.659934 
L 171.229091 206.746638 
L 172.640632 206.652051 
L 174.052174 206.407702 
L 175.463715 206.588993 
L 176.875257 206.904283 
L 178.286798 206.518053 
L 179.69834 205.3436 
L 181.109881 204.594788 
L 182.521423 204.326792 
L 185.344506 204.610552 
L 189.57913 205.848063 
L 190.990672 206.131824 
L 193.813755 205.05984 
L 195.225296 204.397732 
L 196.636838 202.545407 
L 198.048379 201.102957 
L 199.459921 201.000488 
L 200.871462 202.435055 
L 202.283004 203.459746 
L 203.694545 204.886431 
L 205.106087 205.107133 
L 206.517628 204.058796 
L 207.92917 203.940562 
L 209.340711 204.121854 
L 210.752253 204.169147 
L 212.163794 203.546451 
L 213.575336 203.412453 
L 214.986877 202.632111 
L 216.398419 202.387762 
L 217.80996 202.860696 
L 219.221502 202.600582 
L 220.633043 200.771904 
L 222.044585 199.266397 
L 224.867668 197.989474 
L 226.279209 197.753007 
L 227.690751 196.996313 
L 229.102292 195.080929 
L 230.513834 194.473997 
L 231.925375 190.14665 
L 233.336917 173.60972 
L 234.748458 151.783809 
L 236.16 139.968338 
L 237.571542 138.951529 
L 238.983083 139.755517 
L 241.806166 139.755517 
L 243.217708 139.353523 
L 244.629249 139.187996 
L 246.040791 146.999292 
L 248.863874 181.523484 
L 250.275415 191.439337 
L 251.686957 194.23753 
L 253.098498 195.033636 
L 254.51004 196.215971 
L 255.921581 197.193369 
L 257.333123 197.122428 
L 258.744664 197.51654 
L 260.156206 199.8418 
L 261.567747 199.573804 
L 262.979289 198.155001 
L 264.39083 197.555951 
L 265.802372 197.871241 
L 267.213913 197.51654 
L 270.036996 198.281117 
L 271.448538 197.461365 
L 272.860079 196.050444 
L 274.271621 197.532305 
L 275.683162 199.762977 
L 277.094704 200.874373 
L 278.506245 201.158133 
L 279.917787 201.99365 
L 281.329328 202.001532 
L 282.74087 201.512834 
L 284.152411 201.560127 
L 285.563953 201.741419 
L 286.975494 201.796594 
L 288.387036 201.985768 
L 289.798577 202.837049 
L 291.210119 203.278455 
L 294.033202 203.507039 
L 295.444743 203.554333 
L 296.856285 203.270572 
L 298.267826 202.844932 
L 299.679368 202.584818 
L 301.090909 203.168103 
L 302.502451 203.40457 
L 303.913992 202.419291 
L 305.325534 202.269528 
L 306.737075 203.089281 
L 308.148617 204.279498 
L 309.560158 203.979973 
L 312.383241 203.168103 
L 315.206324 204.121854 
L 318.029407 204.445025 
L 319.440949 205.004664 
L 320.85249 205.249013 
L 322.264032 205.185956 
L 323.675573 204.910077 
L 325.087115 204.886431 
L 326.498656 204.720904 
L 327.910198 204.405614 
L 329.321739 204.381968 
L 330.733281 204.81549 
L 332.144822 205.044075 
L 333.556364 204.981017 
L 334.967905 204.74455 
L 336.379447 204.776079 
L 337.790988 204.649964 
L 340.614071 204.129736 
L 342.025613 204.263734 
L 344.848696 204.043031 
L 346.260237 204.539612 
L 347.671779 205.319954 
L 349.08332 205.319954 
L 350.494862 205.051958 
L 351.906403 205.115015 
L 353.317945 205.367247 
L 356.141028 204.594788 
L 358.964111 205.154427 
L 360.375652 205.099251 
L 361.787194 205.185956 
L 363.198735 205.107133 
L 364.610277 204.476554 
L 366.021818 204.24797 
L 373.079526 205.509127 
L 375.902609 205.666772 
L 378.725692 205.162309 
L 380.137233 205.162309 
L 381.548775 205.461834 
L 382.960316 205.524892 
L 384.371858 205.185956 
L 385.783399 205.028311 
L 387.194941 205.20172 
L 388.606482 205.627361 
L 390.018024 205.80077 
L 394.252648 205.335718 
L 395.66419 205.398776 
L 397.075731 210.104471 
L 398.487273 210.104471 
L 398.487273 210.104471 
" style="fill:none;stroke:#1f77b4;stroke-linecap:square;stroke-width:1.5;"/>
   </g>
   <g id="patch_8">
    <path d="M 57.6 213.662118 
L 57.6 135.393882 
" style="fill:none;stroke:#000000;stroke-linecap:square;stroke-linejoin:miter;stroke-width:0.8;"/>
   </g>
   <g id="patch_9">
    <path d="M 414.72 213.662118 
L 414.72 135.393882 
" style="fill:none;stroke:#000000;stroke-linecap:square;stroke-linejoin:miter;stroke-width:0.8;"/>
   </g>
   <g id="patch_10">
    <path d="M 57.6 213.662118 
L 414.72 213.662118 
" style="fill:none;stroke:#000000;stroke-linecap:square;stroke-linejoin:miter;stroke-width:0.8;"/>
   </g>
   <g id="patch_11">
    <path d="M 57.6 135.393882 
L 414.72 135.393882 
" style="fill:none;stroke:#000000;stroke-linecap:square;stroke-linejoin:miter;stroke-width:0.8;"/>
   </g>
   <g id="text_18">
    <!-- smoothed -->
    <g transform="translate(75.103115 209.966531)scale(0.1 -0.1)">
     <defs>
      <path d="M 44.28125 53.078125 
L 44.28125 44.578125 
Q 40.484375 46.53125 36.375 47.5 
Q 32.28125 48.484375 27.875 48.484375 
Q 21.1875 48.484375 17.84375 46.4375 
Q 14.5 44.390625 14.5 40.28125 
Q 14.5 37.15625 16.890625 35.375 
Q 19.28125 33.59375 26.515625 31.984375 
L 29.59375 31.296875 
Q 39.15625 29.25 43.1875 25.515625 
Q 47.21875 21.78125 47.21875 15.09375 
Q 47.21875 7.46875 41.1875 3.015625 
Q 35.15625 -1.421875 24.609375 -1.421875 
Q 20.21875 -1.421875 15.453125 -0.5625 
Q 10.6875 0.296875 5.421875 2 
L 5.421875 11.28125 
Q 10.40625 8.6875 15.234375 7.390625 
Q 20.0625 6.109375 24.8125 6.109375 
Q 31.15625 6.109375 34.5625 8.28125 
Q 37.984375 10.453125 37.984375 14.40625 
Q 37.984375 18.0625 35.515625 20.015625 
Q 33.0625 21.96875 24.703125 23.78125 
L 21.578125 24.515625 
Q 13.234375 26.265625 9.515625 29.90625 
Q 5.8125 33.546875 5.8125 39.890625 
Q 5.8125 47.609375 11.28125 51.796875 
Q 16.75 56 26.8125 56 
Q 31.78125 56 36.171875 55.265625 
Q 40.578125 54.546875 44.28125 53.078125 
z
" id="DejaVuSans-115"/>
      <path d="M 52 44.1875 
Q 55.375 50.25 60.0625 53.125 
Q 64.75 56 71.09375 56 
Q 79.640625 56 84.28125 50.015625 
Q 88.921875 44.046875 88.921875 33.015625 
L 88.921875 0 
L 79.890625 0 
L 79.890625 32.71875 
Q 79.890625 40.578125 77.09375 44.375 
Q 74.3125 48.1875 68.609375 48.1875 
Q 61.625 48.1875 57.5625 43.546875 
Q 53.515625 38.921875 53.515625 30.90625 
L 53.515625 0 
L 44.484375 0 
L 44.484375 32.71875 
Q 44.484375 40.625 41.703125 44.40625 
Q 38.921875 48.1875 33.109375 48.1875 
Q 26.21875 48.1875 22.15625 43.53125 
Q 18.109375 38.875 18.109375 30.90625 
L 18.109375 0 
L 9.078125 0 
L 9.078125 54.6875 
L 18.109375 54.6875 
L 18.109375 46.1875 
Q 21.1875 51.21875 25.484375 53.609375 
Q 29.78125 56 35.6875 56 
Q 41.65625 56 45.828125 52.96875 
Q 50 49.953125 52 44.1875 
z
" id="DejaVuSans-109"/>
      <path d="M 30.609375 48.390625 
Q 23.390625 48.390625 19.1875 42.75 
Q 14.984375 37.109375 14.984375 27.296875 
Q 14.984375 17.484375 19.15625 11.84375 
Q 23.34375 6.203125 30.609375 6.203125 
Q 37.796875 6.203125 41.984375 11.859375 
Q 46.1875 17.53125 46.1875 27.296875 
Q 46.1875 37.015625 41.984375 42.703125 
Q 37.796875 48.390625 30.609375 48.390625 
z
M 30.609375 56 
Q 42.328125 56 49.015625 48.375 
Q 55.71875 40.765625 55.71875 27.296875 
Q 55.71875 13.875 49.015625 6.21875 
Q 42.328125 -1.421875 30.609375 -1.421875 
Q 18.84375 -1.421875 12.171875 6.21875 
Q 5.515625 13.875 5.515625 27.296875 
Q 5.515625 40.765625 12.171875 48.375 
Q 18.84375 56 30.609375 56 
z
" id="DejaVuSans-111"/>
      <path d="M 18.3125 70.21875 
L 18.3125 54.6875 
L 36.8125 54.6875 
L 36.8125 47.703125 
L 18.3125 47.703125 
L 18.3125 18.015625 
Q 18.3125 11.328125 20.140625 9.421875 
Q 21.96875 7.515625 27.59375 7.515625 
L 36.8125 7.515625 
L 36.8125 0 
L 27.59375 0 
Q 17.1875 0 13.234375 3.875 
Q 9.28125 7.765625 9.28125 18.015625 
L 9.28125 47.703125 
L 2.6875 47.703125 
L 2.6875 54.6875 
L 9.28125 54.6875 
L 9.28125 70.21875 
z
" id="DejaVuSans-116"/>
      <path d="M 54.890625 33.015625 
L 54.890625 0 
L 45.90625 0 
L 45.90625 32.71875 
Q 45.90625 40.484375 42.875 44.328125 
Q 39.84375 48.1875 33.796875 48.1875 
Q 26.515625 48.1875 22.3125 43.546875 
Q 18.109375 38.921875 18.109375 30.90625 
L 18.109375 0 
L 9.078125 0 
L 9.078125 75.984375 
L 18.109375 75.984375 
L 18.109375 46.1875 
Q 21.34375 51.125 25.703125 53.5625 
Q 30.078125 56 35.796875 56 
Q 45.21875 56 50.046875 50.171875 
Q 54.890625 44.34375 54.890625 33.015625 
z
" id="DejaVuSans-104"/>
      <path d="M 56.203125 29.59375 
L 56.203125 25.203125 
L 14.890625 25.203125 
Q 15.484375 15.921875 20.484375 11.0625 
Q 25.484375 6.203125 34.421875 6.203125 
Q 39.59375 6.203125 44.453125 7.46875 
Q 49.3125 8.734375 54.109375 11.28125 
L 54.109375 2.78125 
Q 49.265625 0.734375 44.1875 -0.34375 
Q 39.109375 -1.421875 33.890625 -1.421875 
Q 20.796875 -1.421875 13.15625 6.1875 
Q 5.515625 13.8125 5.515625 26.8125 
Q 5.515625 40.234375 12.765625 48.109375 
Q 20.015625 56 32.328125 56 
Q 43.359375 56 49.78125 48.890625 
Q 56.203125 41.796875 56.203125 29.59375 
z
M 47.21875 32.234375 
Q 47.125 39.59375 43.09375 43.984375 
Q 39.0625 48.390625 32.421875 48.390625 
Q 24.90625 48.390625 20.390625 44.140625 
Q 15.875 39.890625 15.1875 32.171875 
z
" id="DejaVuSans-101"/>
      <path d="M 45.40625 46.390625 
L 45.40625 75.984375 
L 54.390625 75.984375 
L 54.390625 0 
L 45.40625 0 
L 45.40625 8.203125 
Q 42.578125 3.328125 38.25 0.953125 
Q 33.9375 -1.421875 27.875 -1.421875 
Q 17.96875 -1.421875 11.734375 6.484375 
Q 5.515625 14.40625 5.515625 27.296875 
Q 5.515625 40.1875 11.734375 48.09375 
Q 17.96875 56 27.875 56 
Q 33.9375 56 38.25 53.625 
Q 42.578125 51.265625 45.40625 46.390625 
z
M 14.796875 27.296875 
Q 14.796875 17.390625 18.875 11.75 
Q 22.953125 6.109375 30.078125 6.109375 
Q 37.203125 6.109375 41.296875 11.75 
Q 45.40625 17.390625 45.40625 27.296875 
Q 45.40625 37.203125 41.296875 42.84375 
Q 37.203125 48.484375 30.078125 48.484375 
Q 22.953125 48.484375 18.875 42.84375 
Q 14.796875 37.203125 14.796875 27.296875 
z
" id="DejaVuSans-100"/>
     </defs>
     <use xlink:href="#DejaVuSans-115"/>
     <use x="52.099609" xlink:href="#DejaVuSans-109"/>
     <use x="149.511719" xlink:href="#DejaVuSans-111"/>
     <use x="210.693359" xlink:href="#DejaVuSans-111"/>
     <use x="271.875" xlink:href="#DejaVuSans-116"/>
     <use x="311.083984" xlink:href="#DejaVuSans-104"/>
     <use x="374.462891" xlink:href="#DejaVuSans-101"/>
     <use x="435.986328" xlink:href="#DejaVuSans-100"/>
    </g>
   </g>
  </g>
  <g id="axes_3">
   <g id="patch_12">
    <path d="M 57.6 307.584 
L 414.72 307.584 
L 414.72 229.315765 
L 57.6 229.315765 
z
" style="fill:#ffffff;"/>
   </g>
   <g id="matplotlib.axis_5">
    <g id="xtick_11">
     <g id="line2d_19">
      <g>
       <use style="stroke:#000000;stroke-width:0.8;" x="73.832727" xlink:href="#me3bcc9eaba" y="307.584"/>
      </g>
     </g>
     <g id="text_19">
      <!-- 0 -->
      <g transform="translate(70.651477 322.182437)scale(0.1 -0.1)">
       <use xlink:href="#DejaVuSans-48"/>
      </g>
     </g>
    </g>
    <g id="xtick_12">
     <g id="line2d_20">
      <g>
       <use style="stroke:#000000;stroke-width:0.8;" x="144.409802" xlink:href="#me3bcc9eaba" y="307.584"/>
      </g>
     </g>
     <g id="text_20">
      <!-- 50 -->
      <g transform="translate(138.047302 322.182437)scale(0.1 -0.1)">
       <use xlink:href="#DejaVuSans-53"/>
       <use x="63.623047" xlink:href="#DejaVuSans-48"/>
      </g>
     </g>
    </g>
    <g id="xtick_13">
     <g id="line2d_21">
      <g>
       <use style="stroke:#000000;stroke-width:0.8;" x="214.986877" xlink:href="#me3bcc9eaba" y="307.584"/>
      </g>
     </g>
     <g id="text_21">
      <!-- 100 -->
      <g transform="translate(205.443127 322.182437)scale(0.1 -0.1)">
       <use xlink:href="#DejaVuSans-49"/>
       <use x="63.623047" xlink:href="#DejaVuSans-48"/>
       <use x="127.246094" xlink:href="#DejaVuSans-48"/>
      </g>
     </g>
    </g>
    <g id="xtick_14">
     <g id="line2d_22">
      <g>
       <use style="stroke:#000000;stroke-width:0.8;" x="285.563953" xlink:href="#me3bcc9eaba" y="307.584"/>
      </g>
     </g>
     <g id="text_22">
      <!-- 150 -->
      <g transform="translate(276.020203 322.182437)scale(0.1 -0.1)">
       <use xlink:href="#DejaVuSans-49"/>
       <use x="63.623047" xlink:href="#DejaVuSans-53"/>
       <use x="127.246094" xlink:href="#DejaVuSans-48"/>
      </g>
     </g>
    </g>
    <g id="xtick_15">
     <g id="line2d_23">
      <g>
       <use style="stroke:#000000;stroke-width:0.8;" x="356.141028" xlink:href="#me3bcc9eaba" y="307.584"/>
      </g>
     </g>
     <g id="text_23">
      <!-- 200 -->
      <g transform="translate(346.597278 322.182437)scale(0.1 -0.1)">
       <use xlink:href="#DejaVuSans-50"/>
       <use x="63.623047" xlink:href="#DejaVuSans-48"/>
       <use x="127.246094" xlink:href="#DejaVuSans-48"/>
      </g>
     </g>
    </g>
   </g>
   <g id="matplotlib.axis_6">
    <g id="ytick_7">
     <g id="line2d_24">
      <g>
       <use style="stroke:#000000;stroke-width:0.8;" x="57.6" xlink:href="#m83422a270a" y="296.902247"/>
      </g>
     </g>
     <g id="text_24">
      <!-- −200 -->
      <g transform="translate(23.132812 300.701465)scale(0.1 -0.1)">
       <defs>
        <path d="M 10.59375 35.5 
L 73.1875 35.5 
L 73.1875 27.203125 
L 10.59375 27.203125 
z
" id="DejaVuSans-8722"/>
       </defs>
       <use xlink:href="#DejaVuSans-8722"/>
       <use x="83.789062" xlink:href="#DejaVuSans-50"/>
       <use x="147.412109" xlink:href="#DejaVuSans-48"/>
       <use x="211.035156" xlink:href="#DejaVuSans-48"/>
      </g>
     </g>
    </g>
    <g id="ytick_8">
     <g id="line2d_25">
      <g>
       <use style="stroke:#000000;stroke-width:0.8;" x="57.6" xlink:href="#m83422a270a" y="269.486775"/>
      </g>
     </g>
     <g id="text_25">
      <!-- 0 -->
      <g transform="translate(44.2375 273.285993)scale(0.1 -0.1)">
       <use xlink:href="#DejaVuSans-48"/>
      </g>
     </g>
    </g>
    <g id="ytick_9">
     <g id="line2d_26">
      <g>
       <use style="stroke:#000000;stroke-width:0.8;" x="57.6" xlink:href="#m83422a270a" y="242.071303"/>
      </g>
     </g>
     <g id="text_26">
      <!-- 200 -->
      <g transform="translate(31.5125 245.870521)scale(0.1 -0.1)">
       <use xlink:href="#DejaVuSans-50"/>
       <use x="63.623047" xlink:href="#DejaVuSans-48"/>
       <use x="127.246094" xlink:href="#DejaVuSans-48"/>
      </g>
     </g>
    </g>
   </g>
   <g id="line2d_27">
    <path clip-path="url(#pebf284ea34)" d="M 73.832727 267.765475 
L 75.244269 268.117959 
L 76.65581 269.075543 
L 78.067352 269.494608 
L 80.890435 269.663017 
L 85.125059 269.445651 
L 87.948142 269.310532 
L 93.594308 269.629727 
L 99.240474 269.161706 
L 106.298182 269.292908 
L 109.121265 269.498524 
L 110.532806 269.600353 
L 111.944348 269.543564 
L 114.767431 269.224369 
L 116.178972 269.310532 
L 119.002055 269.71589 
L 120.413597 269.708057 
L 123.23668 269.533773 
L 126.059763 269.802053 
L 127.471304 269.666933 
L 128.882846 269.310532 
L 130.294387 269.08925 
L 131.705929 269.228286 
L 133.11747 269.498524 
L 134.529012 269.612103 
L 135.940553 269.52594 
L 138.763636 269.149956 
L 147.232885 269.224369 
L 148.644427 269.555313 
L 150.055968 269.690432 
L 154.290593 269.520065 
L 157.113676 269.651268 
L 158.525217 269.641476 
L 161.3483 269.241994 
L 162.759842 269.253743 
L 165.582925 269.823593 
L 166.994466 269.868633 
L 172.640632 269.367322 
L 174.052174 269.549439 
L 175.463715 269.543564 
L 176.875257 268.940423 
L 178.286798 268.108168 
L 179.69834 267.728268 
L 181.109881 268.196289 
L 182.521423 269.081417 
L 183.932964 269.780512 
L 185.344506 270.238742 
L 186.756047 270.420859 
L 188.167589 270.4424 
L 189.57913 269.917589 
L 192.402213 268.499818 
L 193.813755 267.403199 
L 195.225296 266.621858 
L 196.636838 266.651232 
L 198.048379 268.127751 
L 199.459921 270.272032 
L 200.871462 271.977666 
L 202.283004 272.136284 
L 203.694545 270.702847 
L 205.106087 269.520065 
L 206.517628 268.817054 
L 209.340711 269.288992 
L 210.752253 269.081417 
L 212.163794 268.558565 
L 213.575336 268.37449 
L 214.986877 268.891467 
L 216.398419 269.140165 
L 217.80996 268.615354 
L 219.221502 267.416907 
L 220.633043 266.551361 
L 222.044585 266.661023 
L 223.456126 267.669521 
L 224.867668 268.143417 
L 226.279209 267.481529 
L 227.690751 267.076171 
L 229.102292 265.080717 
L 230.513834 256.640668 
L 231.925375 242.78998 
L 233.336917 232.873412 
L 234.748458 235.691331 
L 237.571542 263.457329 
L 238.983083 269.580771 
L 240.394625 269.686516 
L 241.806166 269.104916 
L 243.217708 272.945041 
L 244.629249 283.609659 
L 246.040791 296.692714 
L 247.452332 304.026353 
L 248.863874 299.686875 
L 250.275415 287.888431 
L 251.686957 277.680084 
L 253.098498 272.837337 
L 254.51004 271.456772 
L 255.921581 270.945669 
L 257.333123 271.368651 
L 258.744664 271.345152 
L 260.156206 270.510938 
L 261.567747 269.087292 
L 262.979289 268.006339 
L 264.39083 268.394072 
L 265.802372 269.375155 
L 267.213913 269.866675 
L 268.625455 269.473067 
L 270.036996 268.636895 
L 271.448538 268.725016 
L 272.860079 270.2407 
L 274.271621 272.104952 
L 275.683162 272.854961 
L 277.094704 272.050121 
L 278.506245 270.877131 
L 279.917787 270.013543 
L 281.329328 269.567063 
L 282.74087 269.251785 
L 284.152411 269.441735 
L 288.387036 270.50898 
L 289.798577 270.622559 
L 291.210119 270.391485 
L 294.033202 269.512232 
L 296.856285 268.852302 
L 298.267826 269.124499 
L 299.679368 269.633643 
L 301.090909 269.478942 
L 302.502451 269.144081 
L 303.913992 269.165622 
L 305.325534 270.087957 
L 306.737075 270.761594 
L 308.148617 270.334696 
L 309.560158 269.339906 
L 310.9717 268.979588 
L 313.794783 270.091873 
L 315.206324 270.272032 
L 319.440949 270.14083 
L 322.264032 269.343823 
L 325.087115 269.052044 
L 326.498656 269.104916 
L 327.910198 269.367322 
L 329.321739 269.74918 
L 330.733281 269.937172 
L 334.967905 269.240035 
L 339.20253 269.102958 
L 342.025613 269.316407 
L 343.437154 269.635602 
L 344.848696 270.115372 
L 346.260237 270.399318 
L 347.671779 270.181953 
L 349.08332 269.706098 
L 350.494862 269.459359 
L 354.729486 269.157789 
L 356.141028 269.347739 
L 357.552569 269.688474 
L 358.964111 269.845134 
L 360.375652 269.627769 
L 361.787194 269.151914 
L 363.198735 268.887551 
L 364.610277 268.936507 
L 366.021818 269.365363 
L 367.43336 269.917589 
L 368.844901 270.176078 
L 371.667984 269.997877 
L 373.079526 269.864717 
L 375.902609 269.25766 
L 377.31415 269.122541 
L 380.137233 269.616019 
L 381.548775 269.588604 
L 382.960316 269.351656 
L 384.371858 269.234161 
L 387.194941 269.941088 
L 388.606482 269.929339 
L 391.429565 269.253743 
L 392.841107 269.216536 
L 394.252648 271.703511 
L 395.66419 272.986164 
L 397.075731 269.486775 
L 398.487273 269.486775 
L 398.487273 269.486775 
" style="fill:none;stroke:#1f77b4;stroke-linecap:square;stroke-width:1.5;"/>
   </g>
   <g id="patch_13">
    <path d="M 57.6 307.584 
L 57.6 229.315765 
" style="fill:none;stroke:#000000;stroke-linecap:square;stroke-linejoin:miter;stroke-width:0.8;"/>
   </g>
   <g id="patch_14">
    <path d="M 414.72 307.584 
L 414.72 229.315765 
" style="fill:none;stroke:#000000;stroke-linecap:square;stroke-linejoin:miter;stroke-width:0.8;"/>
   </g>
   <g id="patch_15">
    <path d="M 57.6 307.584 
L 414.72 307.584 
" style="fill:none;stroke:#000000;stroke-linecap:square;stroke-linejoin:miter;stroke-width:0.8;"/>
   </g>
   <g id="patch_16">
    <path d="M 57.6 229.315765 
L 414.72 229.315765 
" style="fill:none;stroke:#000000;stroke-linecap:square;stroke-linejoin:miter;stroke-width:0.8;"/>
   </g>
   <g id="text_27">
    <!-- derivative -->
    <g transform="translate(75.103115 269.418236)scale(0.1 -0.1)">
     <defs>
      <path d="M 9.421875 54.6875 
L 18.40625 54.6875 
L 18.40625 0 
L 9.421875 0 
z
M 9.421875 75.984375 
L 18.40625 75.984375 
L 18.40625 64.59375 
L 9.421875 64.59375 
z
" id="DejaVuSans-105"/>
      <path d="M 2.984375 54.6875 
L 12.5 54.6875 
L 29.59375 8.796875 
L 46.6875 54.6875 
L 56.203125 54.6875 
L 35.6875 0 
L 23.484375 0 
z
" id="DejaVuSans-118"/>
     </defs>
     <use xlink:href="#DejaVuSans-100"/>
     <use x="63.476562" xlink:href="#DejaVuSans-101"/>
     <use x="125" xlink:href="#DejaVuSans-114"/>
     <use x="166.113281" xlink:href="#DejaVuSans-105"/>
     <use x="193.896484" xlink:href="#DejaVuSans-118"/>
     <use x="253.076172" xlink:href="#DejaVuSans-97"/>
     <use x="314.355469" xlink:href="#DejaVuSans-116"/>
     <use x="353.564453" xlink:href="#DejaVuSans-105"/>
     <use x="381.347656" xlink:href="#DejaVuSans-118"/>
     <use x="440.527344" xlink:href="#DejaVuSans-101"/>
    </g>
   </g>
  </g>
 </g>
 <defs>
  <clipPath id="p86a6a2665b">
   <rect height="78.268235" width="357.12" x="57.6" y="41.472"/>
  </clipPath>
  <clipPath id="pdd3bd2e0fa">
   <rect height="78.268235" width="357.12" x="57.6" y="135.393882"/>
  </clipPath>
  <clipPath id="pebf284ea34">
   <rect height="78.268235" width="357.12" x="57.6" y="229.315765"/>
  </clipPath>
 </defs>
</svg>
